<?xml version="1.0" encoding="UTF-8" standalone="no"?><svg xmlns="http://www.w3.org/2000/svg" xmlns:xlink="http://www.w3.org/1999/xlink" contentScriptType="application/ecmascript" contentStyleType="text/css" height="906px" preserveAspectRatio="none" style="width:788px;height:906px;" version="1.1" viewBox="0 0 788 906" width="788px" zoomAndPan="magnify"><defs><filter height="300%" id="f19mfai6kmtvgh" width="300%" x="-1" y="-1"><feGaussianBlur result="blurOut" stdDeviation="2.0"/><feColorMatrix in="blurOut" result="blurOut2" type="matrix" values="0 0 0 0 0 0 0 0 0 0 0 0 0 0 0 0 0 0 .4 0"/><feOffset dx="4.0" dy="4.0" in="blurOut2" result="blurOut3"/><feBlend in="SourceGraphic" in2="blurOut3" mode="normal"/></filter></defs><g><text fill="#000000" font-family="sans-serif" font-size="18" lengthAdjust="spacing" textLength="563" x="109.25" y="31.2419">System sequence - User journey across Mapper, Runner, Evolution</text><line style="stroke:#A80036;stroke-width:1.0;stroke-dasharray:5.0,5.0;" x1="23" x2="23" y1="129.5838" y2="819.1161"/><line style="stroke:#A80036;stroke-width:1.0;stroke-dasharray:5.0,5.0;" x1="152.5" x2="152.5" y1="129.5838" y2="819.1161"/><line style="stroke:#A80036;stroke-width:1.0;stroke-dasharray:5.0,5.0;" x1="262.5" x2="262.5" y1="129.5838" y2="819.1161"/><line style="stroke:#A80036;stroke-width:1.0;stroke-dasharray:5.0,5.0;" x1="480.5" x2="480.5" y1="129.5838" y2="819.1161"/><line style="stroke:#A80036;stroke-width:1.0;stroke-dasharray:5.0,5.0;" x1="596.5" x2="596.5" y1="129.5838" y2="819.1161"/><line style="stroke:#A80036;stroke-width:1.0;stroke-dasharray:5.0,5.0;" x1="717.5" x2="717.5" y1="129.5838" y2="819.1161"/><text fill="#000000" font-family="sans-serif" font-size="14" lengthAdjust="spacing" textLength="31" x="5" y="125.4818">User</text><ellipse cx="23.5" cy="53.5158" fill="#FEFECE" filter="url(#f19mfai6kmtvgh)" rx="8" ry="8" style="stroke:#A80036;stroke-width:2.0;"/><path d="M23.5,61.5158 L23.5,88.5158 M10.5,69.5158 L36.5,69.5158 M23.5,88.5158 L10.5,103.5158 M23.5,88.5158 L36.5,103.5158 " fill="none" filter="url(#f19mfai6kmtvgh)" style="stroke:#A80036;stroke-width:2.0;"/><text fill="#000000" font-family="sans-serif" font-size="14" lengthAdjust="spacing" textLength="31" x="5" y="833.0821">User</text><ellipse cx="23.5" cy="847.184" fill="#FEFECE" filter="url(#f19mfai6kmtvgh)" rx="8" ry="8" style="stroke:#A80036;stroke-width:2.0;"/><path d="M23.5,855.184 L23.5,882.184 M10.5,863.184 L36.5,863.184 M23.5,882.184 L10.5,897.184 M23.5,882.184 L36.5,897.184 " fill="none" filter="url(#f19mfai6kmtvgh)" style="stroke:#A80036;stroke-width:2.0;"/><rect fill="#FEFECE" filter="url(#f19mfai6kmtvgh)" height="52.1358" style="stroke:#A80036;stroke-width:1.5;" width="102" x="99.5" y="72.4479"/><text fill="#000000" font-family="sans-serif" font-size="14" lengthAdjust="spacing" textLength="55" x="123" y="94.4139">Browser</text><text fill="#000000" font-family="sans-serif" font-size="14" lengthAdjust="spacing" textLength="88" x="106.5" y="113.4818">(Streamlit UI)</text><rect fill="#FEFECE" filter="url(#f19mfai6kmtvgh)" height="52.1358" style="stroke:#A80036;stroke-width:1.5;" width="102" x="99.5" y="818.1161"/><text fill="#000000" font-family="sans-serif" font-size="14" lengthAdjust="spacing" textLength="55" x="123" y="840.0821">Browser</text><text fill="#000000" font-family="sans-serif" font-size="14" lengthAdjust="spacing" textLength="88" x="106.5" y="859.15">(Streamlit UI)</text><rect fill="#FEFECE" filter="url(#f19mfai6kmtvgh)" height="52.1358" style="stroke:#A80036;stroke-width:1.5;" width="90" x="215.5" y="72.4479"/><text fill="#000000" font-family="sans-serif" font-size="14" lengthAdjust="spacing" textLength="76" x="222.5" y="94.4139">Home Page</text><text fill="#000000" font-family="sans-serif" font-size="14" lengthAdjust="spacing" textLength="46" x="237.5" y="113.4818">app.py</text><rect fill="#FEFECE" filter="url(#f19mfai6kmtvgh)" height="52.1358" style="stroke:#A80036;stroke-width:1.5;" width="90" x="215.5" y="818.1161"/><text fill="#000000" font-family="sans-serif" font-size="14" lengthAdjust="spacing" textLength="76" x="222.5" y="840.0821">Home Page</text><text fill="#000000" font-family="sans-serif" font-size="14" lengthAdjust="spacing" textLength="46" x="237.5" y="859.15">app.py</text><rect fill="#FEFECE" filter="url(#f19mfai6kmtvgh)" height="52.1358" style="stroke:#A80036;stroke-width:1.5;" width="104" x="426.5" y="72.4479"/><text fill="#000000" font-family="sans-serif" font-size="14" lengthAdjust="spacing" textLength="90" x="433.5" y="94.4139">Mapper Page</text><text fill="#000000" font-family="sans-serif" font-size="14" lengthAdjust="spacing" textLength="87" x="435" y="113.4818">0_mapper.py</text><rect fill="#FEFECE" filter="url(#f19mfai6kmtvgh)" height="52.1358" style="stroke:#A80036;stroke-width:1.5;" width="104" x="426.5" y="818.1161"/><text fill="#000000" font-family="sans-serif" font-size="14" lengthAdjust="spacing" textLength="90" x="433.5" y="840.0821">Mapper Page</text><text fill="#000000" font-family="sans-serif" font-size="14" lengthAdjust="spacing" textLength="87" x="435" y="859.15">0_mapper.py</text><rect fill="#FEFECE" filter="url(#f19mfai6kmtvgh)" height="52.1358" style="stroke:#A80036;stroke-width:1.5;" width="101" x="544.5" y="72.4479"/><text fill="#000000" font-family="sans-serif" font-size="14" lengthAdjust="spacing" textLength="87" x="551.5" y="94.4139">Runner Page</text><text fill="#000000" font-family="sans-serif" font-size="14" lengthAdjust="spacing" textLength="59" x="565.5" y="113.4818">2_test.py</text><rect fill="#FEFECE" filter="url(#f19mfai6kmtvgh)" height="52.1358" style="stroke:#A80036;stroke-width:1.5;" width="101" x="544.5" y="818.1161"/><text fill="#000000" font-family="sans-serif" font-size="14" lengthAdjust="spacing" textLength="87" x="551.5" y="840.0821">Runner Page</text><text fill="#000000" font-family="sans-serif" font-size="14" lengthAdjust="spacing" textLength="59" x="565.5" y="859.15">2_test.py</text><rect fill="#FEFECE" filter="url(#f19mfai6kmtvgh)" height="52.1358" style="stroke:#A80036;stroke-width:1.5;" width="113" x="659.5" y="72.4479"/><text fill="#000000" font-family="sans-serif" font-size="14" lengthAdjust="spacing" textLength="99" x="666.5" y="94.4139">Evolution Page</text><text fill="#000000" font-family="sans-serif" font-size="14" lengthAdjust="spacing" textLength="96" x="668" y="113.4818">3_evolution.py</text><rect fill="#FEFECE" filter="url(#f19mfai6kmtvgh)" height="52.1358" style="stroke:#A80036;stroke-width:1.5;" width="113" x="659.5" y="818.1161"/><text fill="#000000" font-family="sans-serif" font-size="14" lengthAdjust="spacing" textLength="99" x="666.5" y="840.0821">Evolution Page</text><text fill="#000000" font-family="sans-serif" font-size="14" lengthAdjust="spacing" textLength="96" x="668" y="859.15">3_evolution.py</text><polygon fill="#A80036" points="140.5,159.2898,150.5,163.2898,140.5,167.2898,144.5,163.2898" style="stroke:#A80036;stroke-width:1.0;"/><line style="stroke:#A80036;stroke-width:1.0;" x1="23.5" x2="146.5" y1="163.2898" y2="163.2898"/><text fill="#000000" font-family="sans-serif" font-size="13" lengthAdjust="spacing" textLength="105" x="30.5" y="157.4808">Open Torque app</text><polygon fill="#A80036" points="250.5,190.9958,260.5,194.9958,250.5,198.9958,254.5,194.9958" style="stroke:#A80036;stroke-width:1.0;"/><line style="stroke:#A80036;stroke-width:1.0;" x1="152.5" x2="256.5" y1="194.9958" y2="194.9958"/><text fill="#000000" font-family="sans-serif" font-size="13" lengthAdjust="spacing" textLength="48" x="159.5" y="189.1868">render()</text><rect fill="#EEEEEE" filter="url(#f19mfai6kmtvgh)" height="3" style="stroke:#EEEEEE;stroke-width:1.0;" width="781.5" x="0" y="224.8488"/><line style="stroke:#000000;stroke-width:1.0;" x1="0" x2="781.5" y1="224.8488" y2="224.8488"/><line style="stroke:#000000;stroke-width:1.0;" x1="0" x2="781.5" y1="227.8488" y2="227.8488"/><rect fill="#EEEEEE" filter="url(#f19mfai6kmtvgh)" height="25.706" style="stroke:#000000;stroke-width:2.0;" width="67" x="357.25" y="212.9958"/><text fill="#000000" font-family="sans-serif" font-size="13" font-weight="bold" lengthAdjust="spacing" textLength="50" x="363.25" y="230.8928">Mapper</text><polygon fill="#A80036" points="250.5,268.4078,260.5,272.4078,250.5,276.4078,254.5,272.4078" style="stroke:#A80036;stroke-width:1.0;"/><line style="stroke:#A80036;stroke-width:1.0;" x1="23.5" x2="256.5" y1="272.4078" y2="272.4078"/><text fill="#000000" font-family="sans-serif" font-size="13" lengthAdjust="spacing" textLength="133" x="30.5" y="266.5988">Click \"Go to Mapper\"</text><polygon fill="#A80036" points="468.5,300.1138,478.5,304.1138,468.5,308.1138,472.5,304.1138" style="stroke:#A80036;stroke-width:1.0;"/><line style="stroke:#A80036;stroke-width:1.0;" x1="262.5" x2="474.5" y1="304.1138" y2="304.1138"/><text fill="#000000" font-family="sans-serif" font-size="13" lengthAdjust="spacing" textLength="194" x="269.5" y="298.3048">st.switch_page(\"0_mapper.py\")</text><polygon fill="#A80036" points="468.5,331.8199,478.5,335.8199,468.5,339.8199,472.5,335.8199" style="stroke:#A80036;stroke-width:1.0;"/><line style="stroke:#A80036;stroke-width:1.0;" x1="152.5" x2="474.5" y1="335.8199" y2="335.8199"/><text fill="#000000" font-family="sans-serif" font-size="13" lengthAdjust="spacing" textLength="48" x="159.5" y="330.0109">render()</text><polygon fill="#A80036" points="468.5,381.2319,478.5,385.2319,468.5,389.2319,472.5,385.2319" style="stroke:#A80036;stroke-width:1.0;"/><line style="stroke:#A80036;stroke-width:1.0;" x1="23.5" x2="474.5" y1="385.2319" y2="385.2319"/><text fill="#000000" font-family="sans-serif" font-size="13" lengthAdjust="spacing" textLength="99" x="30.5" y="361.7169">Map Torque DSL</text><text fill="#000000" font-family="sans-serif" font-size="13" lengthAdjust="spacing" textLength="149" x="30.5" y="379.4229">(view AST + Python code)</text><rect fill="#EEEEEE" filter="url(#f19mfai6kmtvgh)" height="3" style="stroke:#EEEEEE;stroke-width:1.0;" width="781.5" x="0" y="415.0849"/><line style="stroke:#000000;stroke-width:1.0;" x1="0" x2="781.5" y1="415.0849" y2="415.0849"/><line style="stroke:#000000;stroke-width:1.0;" x1="0" x2="781.5" y1="418.0849" y2="418.0849"/><rect fill="#EEEEEE" filter="url(#f19mfai6kmtvgh)" height="25.706" style="stroke:#000000;stroke-width:2.0;" width="67" x="357.25" y="403.2319"/><text fill="#000000" font-family="sans-serif" font-size="13" font-weight="bold" lengthAdjust="spacing" textLength="50" x="363.25" y="421.1289">Runner</text><polygon fill="#A80036" points="250.5,458.6439,260.5,462.6439,250.5,466.6439,254.5,462.6439" style="stroke:#A80036;stroke-width:1.0;"/><line style="stroke:#A80036;stroke-width:1.0;" x1="23.5" x2="256.5" y1="462.6439" y2="462.6439"/><text fill="#000000" font-family="sans-serif" font-size="13" lengthAdjust="spacing" textLength="130" x="30.5" y="456.8349">Click \"Go to Runner\"</text><polygon fill="#A80036" points="585,490.3499,595,494.3499,585,498.3499,589,494.3499" style="stroke:#A80036;stroke-width:1.0;"/><line style="stroke:#A80036;stroke-width:1.0;" x1="262.5" x2="591" y1="494.3499" y2="494.3499"/><text fill="#000000" font-family="sans-serif" font-size="13" lengthAdjust="spacing" textLength="170" x="269.5" y="488.5409">st.switch_page(\"2_test.py\")</text><polygon fill="#A80036" points="585,522.056,595,526.056,585,530.056,589,526.056" style="stroke:#A80036;stroke-width:1.0;"/><line style="stroke:#A80036;stroke-width:1.0;" x1="152.5" x2="591" y1="526.056" y2="526.056"/><text fill="#000000" font-family="sans-serif" font-size="13" lengthAdjust="spacing" textLength="48" x="159.5" y="520.247">render()</text><polygon fill="#A80036" points="585,589.174,595,593.174,585,597.174,589,593.174" style="stroke:#A80036;stroke-width:1.0;"/><line style="stroke:#A80036;stroke-width:1.0;" x1="23.5" x2="591" y1="593.174" y2="593.174"/><text fill="#000000" font-family="sans-serif" font-size="13" lengthAdjust="spacing" textLength="78" x="30.5" y="551.953">Load dataset</text><text fill="#000000" font-family="sans-serif" font-size="13" lengthAdjust="spacing" textLength="119" x="30.5" y="569.659">and run Torque DSL</text><text fill="#000000" font-family="sans-serif" font-size="13" lengthAdjust="spacing" textLength="82" x="30.5" y="587.365">(view metrics)</text><rect fill="#EEEEEE" filter="url(#f19mfai6kmtvgh)" height="3" style="stroke:#EEEEEE;stroke-width:1.0;" width="781.5" x="0" y="623.027"/><line style="stroke:#000000;stroke-width:1.0;" x1="0" x2="781.5" y1="623.027" y2="623.027"/><line style="stroke:#000000;stroke-width:1.0;" x1="0" x2="781.5" y1="626.027" y2="626.027"/><rect fill="#EEEEEE" filter="url(#f19mfai6kmtvgh)" height="25.706" style="stroke:#000000;stroke-width:2.0;" width="79" x="351.25" y="611.174"/><text fill="#000000" font-family="sans-serif" font-size="13" font-weight="bold" lengthAdjust="spacing" textLength="62" x="357.25" y="629.071">Evolution</text><polygon fill="#A80036" points="250.5,666.586,260.5,670.586,250.5,674.586,254.5,670.586" style="stroke:#A80036;stroke-width:1.0;"/><line style="stroke:#A80036;stroke-width:1.0;" x1="23.5" x2="256.5" y1="670.586" y2="670.586"/><text fill="#000000" font-family="sans-serif" font-size="13" lengthAdjust="spacing" textLength="143" x="30.5" y="664.777">Click \"Go to Evolution\"</text><polygon fill="#A80036" points="706,698.2921,716,702.2921,706,706.2921,710,702.2921" style="stroke:#A80036;stroke-width:1.0;"/><line style="stroke:#A80036;stroke-width:1.0;" x1="262.5" x2="712" y1="702.2921" y2="702.2921"/><text fill="#000000" font-family="sans-serif" font-size="13" lengthAdjust="spacing" textLength="204" x="269.5" y="696.4831">st.switch_page(\"3_evolution.py\")</text><polygon fill="#A80036" points="706,729.9981,716,733.9981,706,737.9981,710,733.9981" style="stroke:#A80036;stroke-width:1.0;"/><line style="stroke:#A80036;stroke-width:1.0;" x1="152.5" x2="712" y1="733.9981" y2="733.9981"/><text fill="#000000" font-family="sans-serif" font-size="13" lengthAdjust="spacing" textLength="48" x="159.5" y="728.1891">render()</text><polygon fill="#A80036" points="706,797.1161,716,801.1161,706,805.1161,710,801.1161" style="stroke:#A80036;stroke-width:1.0;"/><line style="stroke:#A80036;stroke-width:1.0;" x1="23.5" x2="712" y1="801.1161" y2="801.1161"/><text fill="#000000" font-family="sans-serif" font-size="13" lengthAdjust="spacing" textLength="111" x="30.5" y="759.8951">Set GA/GE params,</text><text fill="#000000" font-family="sans-serif" font-size="13" lengthAdjust="spacing" textLength="160" x="30.5" y="777.6011">run Grammatical Evolution</text><text fill="#000000" font-family="sans-serif" font-size="13" lengthAdjust="spacing" textLength="159" x="30.5" y="795.3071">(view per-run stats + chart)</text><!--MD5=[4287eb84077bfbdc760ec7f1298618d3]
@startuml
title System sequence - User journey across Mapper, Runner, Evolution

actor User
participant "Browser\n(Streamlit UI)" as Browser
participant "Home Page\napp.py" as Home
participant "Mapper Page\n0_mapper.py" as MapperUI
participant "Runner Page\n2_test.py" as RunnerUI
participant "Evolution Page\n3_evolution.py" as EvoUI

User -> Browser: Open Torque app
Browser -> Home: render()

== Mapper ==
User -> Home: Click \"Go to Mapper\"
Home -> MapperUI: st.switch_page(\"0_mapper.py\")
Browser -> MapperUI: render()
User -> MapperUI: Map Torque DSL\n(view AST + Python code)

== Runner ==
User -> Home: Click \"Go to Runner\"
Home -> RunnerUI: st.switch_page(\"2_test.py\")
Browser -> RunnerUI: render()
User -> RunnerUI: Load dataset\nand run Torque DSL\n(view metrics)

== Evolution ==
User -> Home: Click \"Go to Evolution\"
Home -> EvoUI: st.switch_page(\"3_evolution.py\")
Browser -> EvoUI: render()
User -> EvoUI: Set GA/GE params,\nrun Grammatical Evolution\n(view per-run stats + chart)

@enduml

PlantUML version 1.2021.00(Sun Jan 10 10:25:05 GMT 2021)
(MIT source distribution)
Java Runtime: OpenJDK Runtime Environment
JVM: OpenJDK 64-Bit Server VM
Default Encoding: UTF-8
Language: en
Country: US
--></g></svg>