<?xml version="1.0" encoding="UTF-8" standalone="no"?><svg xmlns="http://www.w3.org/2000/svg" xmlns:xlink="http://www.w3.org/1999/xlink" contentScriptType="application/ecmascript" contentStyleType="text/css" height="858px" preserveAspectRatio="none" style="width:2529px;height:858px;" version="1.1" viewBox="0 0 2529 858" width="2529px" zoomAndPan="magnify"><defs><filter height="300%" id="f1r16z0lvocas8" width="300%" x="-1" y="-1"><feGaussianBlur result="blurOut" stdDeviation="2.0"/><feColorMatrix in="blurOut" result="blurOut2" type="matrix" values="0 0 0 0 0 0 0 0 0 0 0 0 0 0 0 0 0 0 .4 0"/><feOffset dx="4.0" dy="4.0" in="blurOut2" result="blurOut3"/><feBlend in="SourceGraphic" in2="blurOut3" mode="normal"/></filter></defs><g><text fill="#000000" font-family="sans-serif" font-size="18" lengthAdjust="spacing" textLength="268" x="1124" y="19.2419">Mapper and Compiler Structure</text><!--MD5=[164ff8bffdaf51fb323d5149bcf8376a]
cluster Mapper Module (dsl_mapper.py)--><polygon fill="#FFFFFF" filter="url(#f1r16z0lvocas8)" points="488,31.1178,718,31.1178,725,56.1857,1041,56.1857,1041,223.1178,488,223.1178,488,31.1178" style="stroke:#000000;stroke-width:1.5;"/><line style="stroke:#000000;stroke-width:1.5;" x1="488" x2="725" y1="56.1857" y2="56.1857"/><text fill="#000000" font-family="sans-serif" font-size="14" font-weight="bold" lengthAdjust="spacing" textLength="224" x="492" y="48.0838">Mapper Module (dsl_mapper.py)</text><!--MD5=[a99f8c12717a805731cb2f26d1cee52d]
cluster Compiler Module (compiler.py)--><polygon fill="#FFFFFF" filter="url(#f1r16z0lvocas8)" points="16,274.1178,237,274.1178,244,299.1857,1572,299.1857,1572,623.1178,16,623.1178,16,274.1178" style="stroke:#000000;stroke-width:1.5;"/><line style="stroke:#000000;stroke-width:1.5;" x1="16" x2="244" y1="299.1857" y2="299.1857"/><text fill="#000000" font-family="sans-serif" font-size="14" font-weight="bold" lengthAdjust="spacing" textLength="215" x="20" y="291.0838">Compiler Module (compiler.py)</text><!--MD5=[56c474d8861be518c64064d86f4ccc04]
cluster Registry Module (registry.py)--><polygon fill="#FFFFFF" filter="url(#f1r16z0lvocas8)" points="420,674.1178,628,674.1178,635,699.1857,821,699.1857,821,851.1178,420,851.1178,420,674.1178" style="stroke:#000000;stroke-width:1.5;"/><line style="stroke:#000000;stroke-width:1.5;" x1="420" x2="635" y1="699.1857" y2="699.1857"/><text fill="#000000" font-family="sans-serif" font-size="14" font-weight="bold" lengthAdjust="spacing" textLength="202" x="424" y="691.0838">Registry Module (registry.py)</text><!--MD5=[f9ccf62b6cd5751f3ac579783640e149]
cluster sklearn--><polygon fill="#FFFFFF" filter="url(#f1r16z0lvocas8)" points="1596,491.1178,1653,491.1178,1660,516.1857,2512,516.1857,2512,821.1178,1596,821.1178,1596,491.1178" style="stroke:#000000;stroke-width:1.5;"/><line style="stroke:#000000;stroke-width:1.5;" x1="1596" x2="1660" y1="516.1857" y2="516.1857"/><text fill="#000000" font-family="sans-serif" font-size="14" font-weight="bold" lengthAdjust="spacing" textLength="51" x="1600" y="508.0838">sklearn</text><!--MD5=[dbe0a3d6d127d8626fb8b0fcc2e6dca9]
class DSLMapper--><rect codeLine="4" fill="#FEFECE" filter="url(#f1r16z0lvocas8)" height="137.8913" id="DSLMapper" style="stroke:#A80036;stroke-width:1.5;" width="194" x="504" y="69.1178"/><ellipse cx="563.75" cy="85.1178" fill="#ADD1B2" rx="11" ry="11" style="stroke:#A80036;stroke-width:1.0;"/><path d="M566.7188,90.7585 Q566.1406,91.0553 565.5,91.196 Q564.8594,91.3522 564.1563,91.3522 Q561.6563,91.3522 560.3281,89.7116 Q559.0156,88.0553 559.0156,84.9303 Q559.0156,81.8053 560.3281,80.1491 Q561.6563,78.4928 564.1563,78.4928 Q564.8594,78.4928 565.5,78.6491 Q566.1563,78.8053 566.7188,79.1022 L566.7188,81.821 Q566.0938,81.2428 565.5,80.9772 Q564.9063,80.696 564.2813,80.696 Q562.9375,80.696 562.25,81.7741 Q561.5625,82.8366 561.5625,84.9303 Q561.5625,87.0241 562.25,88.1022 Q562.9375,89.1647 564.2813,89.1647 Q564.9063,89.1647 565.5,88.8991 Q566.0938,88.6178 566.7188,88.0397 L566.7188,90.7585 Z " fill="#000000"/><text fill="#000000" font-family="sans-serif" font-size="12" lengthAdjust="spacing" textLength="66" x="584.25" y="89.7739">DSLMapper</text><line style="stroke:#A80036;stroke-width:1.5;" x1="505" x2="697" y1="101.1178" y2="101.1178"/><rect fill="none" height="6" style="stroke:#C82930;stroke-width:1.0;" width="6" x="512" y="109.1178"/><text fill="#000000" font-family="sans-serif" font-size="11" lengthAdjust="spacing" textLength="168" x="524" y="116.8767">grammar: pyparsing expression</text><line style="stroke:#A80036;stroke-width:1.0;" x1="505" x2="697" y1="124.0997" y2="124.0997"/><ellipse cx="515" cy="135.0997" fill="#84BE84" rx="3" ry="3" style="stroke:#038048;stroke-width:1.0;"/><text fill="#000000" font-family="sans-serif" font-size="11" lengthAdjust="spacing" textLength="43" x="524" y="139.8586">__init__()</text><ellipse cx="515" cy="150.0816" fill="#84BE84" rx="3" ry="3" style="stroke:#038048;stroke-width:1.0;"/><text fill="#000000" font-family="sans-serif" font-size="11" lengthAdjust="spacing" textLength="125" x="524" y="154.8405">map(dsl_string: str): dict</text><rect fill="#F24D5C" height="6" style="stroke:#C82930;stroke-width:1.0;" width="6" x="512" y="162.0635"/><text fill="#000000" font-family="sans-serif" font-size="11" lengthAdjust="spacing" textLength="94" x="524" y="169.8224">_setup_grammar()</text><rect fill="#F24D5C" height="6" style="stroke:#C82930;stroke-width:1.0;" width="6" x="512" y="177.0454"/><text fill="#000000" font-family="sans-serif" font-size="11" lengthAdjust="spacing" textLength="166" x="524" y="184.8043">_make_literal_node(tokens): dict</text><rect fill="#F24D5C" height="6" style="stroke:#C82930;stroke-width:1.0;" width="6" x="512" y="192.0273"/><text fill="#000000" font-family="sans-serif" font-size="11" lengthAdjust="spacing" textLength="153" x="524" y="199.7862">_make_call_node(tokens): dict</text><path d="M733,88.6178 L733,134.1178 L698.19,138.1178 L733,142.1178 L733,187.1479 A0,0 0 0 0 733,187.1479 L1025,187.1479 A0,0 0 0 0 1025,187.1479 L1025,98.6178 L1015,88.6178 L733,88.6178 A0,0 0 0 0 733,88.6178 " fill="#FBFB77" filter="url(#f1r16z0lvocas8)" style="stroke:#A80036;stroke-width:1.0;"/><path d="M1015,88.6178 L1015,98.6178 L1025,98.6178 L1015,88.6178 " fill="#FBFB77" style="stroke:#A80036;stroke-width:1.0;"/><text fill="#000000" font-family="sans-serif" font-size="13" lengthAdjust="spacing" textLength="130" x="739" y="107.5148">Maps DSL strings into</text><text fill="#000000" font-family="sans-serif" font-size="13" lengthAdjust="spacing" textLength="127" x="739" y="125.2209">dict-based AST nodes</text><text fill="#000000" font-family="sans-serif" font-size="13" lengthAdjust="spacing" textLength="137" x="739" y="142.9269">- Handles function calls</text><text fill="#000000" font-family="sans-serif" font-size="13" lengthAdjust="spacing" textLength="271" x="739" y="160.6329">- Handles literals (strings, numbers, booleans)</text><text fill="#000000" font-family="sans-serif" font-size="13" lengthAdjust="spacing" textLength="204" x="739" y="178.3389">- Returns dict with "type" and data</text><!--MD5=[b8546d46fdb882f82c355bb5b471656c]
class Compiler--><rect codeLine="24" fill="#FEFECE" filter="url(#f1r16z0lvocas8)" height="107.9276" id="Compiler" style="stroke:#A80036;stroke-width:1.5;" width="342" x="430" y="312.1178"/><ellipse cx="571.25" cy="328.1178" fill="#ADD1B2" rx="11" ry="11" style="stroke:#A80036;stroke-width:1.0;"/><path d="M574.2188,333.7585 Q573.6406,334.0553 573,334.196 Q572.3594,334.3522 571.6563,334.3522 Q569.1563,334.3522 567.8281,332.7116 Q566.5156,331.0553 566.5156,327.9303 Q566.5156,324.8053 567.8281,323.1491 Q569.1563,321.4928 571.6563,321.4928 Q572.3594,321.4928 573,321.6491 Q573.6563,321.8053 574.2188,322.1022 L574.2188,324.821 Q573.5938,324.2428 573,323.9772 Q572.4063,323.696 571.7813,323.696 Q570.4375,323.696 569.75,324.7741 Q569.0625,325.8366 569.0625,327.9303 Q569.0625,330.0241 569.75,331.1022 Q570.4375,332.1647 571.7813,332.1647 Q572.4063,332.1647 573,331.8991 Q573.5938,331.6178 574.2188,331.0397 L574.2188,333.7585 Z " fill="#000000"/><text fill="#000000" font-family="sans-serif" font-size="12" lengthAdjust="spacing" textLength="51" x="591.75" y="332.7739">Compiler</text><line style="stroke:#A80036;stroke-width:1.5;" x1="431" x2="771" y1="344.1178" y2="344.1178"/><line style="stroke:#A80036;stroke-width:1.5;" x1="431" x2="771" y1="352.1178" y2="352.1178"/><ellipse cx="441" cy="363.1178" fill="#84BE84" rx="3" ry="3" style="stroke:#038048;stroke-width:1.0;"/><text fill="#000000" font-family="sans-serif" font-size="11" lengthAdjust="spacing" textLength="262" x="450" y="367.8767">dsl_to_sklearn_estimator(dsl_string: str): estimator</text><ellipse cx="441" cy="378.0997" fill="#84BE84" rx="3" ry="3" style="stroke:#038048;stroke-width:1.0;"/><text fill="#000000" font-family="sans-serif" font-size="11" lengthAdjust="spacing" textLength="316" x="450" y="382.8586">compile_ast_to_estimator(node: dict, context: dict): estimator</text><ellipse cx="441" cy="393.0816" fill="#84BE84" rx="3" ry="3" style="stroke:#038048;stroke-width:1.0;"/><text fill="#000000" font-family="sans-serif" font-size="11" lengthAdjust="spacing" textLength="138" x="450" y="397.8405">eval_value(node: dict): Any</text><ellipse cx="441" cy="408.0635" fill="#84BE84" rx="3" ry="3" style="stroke:#038048;stroke-width:1.0;"/><text fill="#000000" font-family="sans-serif" font-size="11" lengthAdjust="spacing" textLength="198" x="450" y="412.8224">safe_kwargs_for(cls, kwargs: dict): dict</text><!--MD5=[de853b39a30e94ea5f90241bcbd78441]
class ModelBuilder--><rect codeLine="31" fill="#FEFECE" filter="url(#f1r16z0lvocas8)" height="62.9819" id="ModelBuilder" style="stroke:#A80036;stroke-width:1.5;" width="355" x="32.5" y="521.6178"/><ellipse cx="168.25" cy="537.6178" fill="#ADD1B2" rx="11" ry="11" style="stroke:#A80036;stroke-width:1.0;"/><path d="M171.2188,543.2585 Q170.6406,543.5553 170,543.696 Q169.3594,543.8522 168.6563,543.8522 Q166.1563,543.8522 164.8281,542.2116 Q163.5156,540.5553 163.5156,537.4303 Q163.5156,534.3053 164.8281,532.6491 Q166.1563,530.9928 168.6563,530.9928 Q169.3594,530.9928 170,531.1491 Q170.6563,531.3053 171.2188,531.6022 L171.2188,534.321 Q170.5938,533.7428 170,533.4772 Q169.4063,533.196 168.7813,533.196 Q167.4375,533.196 166.75,534.2741 Q166.0625,535.3366 166.0625,537.4303 Q166.0625,539.5241 166.75,540.6022 Q167.4375,541.6647 168.7813,541.6647 Q169.4063,541.6647 170,541.3991 Q170.5938,541.1178 171.2188,540.5397 L171.2188,543.2585 Z " fill="#000000"/><text fill="#000000" font-family="sans-serif" font-size="12" lengthAdjust="spacing" textLength="75" x="188.75" y="542.2739">ModelBuilder</text><line style="stroke:#A80036;stroke-width:1.5;" x1="33.5" x2="386.5" y1="553.6178" y2="553.6178"/><line style="stroke:#A80036;stroke-width:1.5;" x1="33.5" x2="386.5" y1="561.6178" y2="561.6178"/><ellipse cx="43.5" cy="572.6178" fill="#84BE84" rx="3" ry="3" style="stroke:#038048;stroke-width:1.0;"/><text fill="#000000" font-family="sans-serif" font-size="11" lengthAdjust="spacing" textLength="329" x="52.5" y="577.3767">build_model(name: str, kw_nodes: dict, context: dict): estimator</text><!--MD5=[3cd482c400b3dc510ecad2773987f914]
class EnsembleBuilders--><rect codeLine="35" fill="#FEFECE" filter="url(#f1r16z0lvocas8)" height="107.9276" id="EnsembleBuilders" style="stroke:#A80036;stroke-width:1.5;" width="417" x="784.5" y="499.1178"/><ellipse cx="938.25" cy="515.1178" fill="#ADD1B2" rx="11" ry="11" style="stroke:#A80036;stroke-width:1.0;"/><path d="M941.2188,520.7585 Q940.6406,521.0553 940,521.196 Q939.3594,521.3522 938.6563,521.3522 Q936.1563,521.3522 934.8281,519.7116 Q933.5156,518.0553 933.5156,514.9303 Q933.5156,511.8053 934.8281,510.1491 Q936.1563,508.4928 938.6563,508.4928 Q939.3594,508.4928 940,508.6491 Q940.6563,508.8053 941.2188,509.1022 L941.2188,511.821 Q940.5938,511.2428 940,510.9772 Q939.4063,510.696 938.7813,510.696 Q937.4375,510.696 936.75,511.7741 Q936.0625,512.8366 936.0625,514.9303 Q936.0625,517.0241 936.75,518.1022 Q937.4375,519.1647 938.7813,519.1647 Q939.4063,519.1647 940,518.8991 Q940.5938,518.6178 941.2188,518.0397 L941.2188,520.7585 Z " fill="#000000"/><text fill="#000000" font-family="sans-serif" font-size="12" lengthAdjust="spacing" textLength="101" x="958.75" y="519.7739">EnsembleBuilders</text><line style="stroke:#A80036;stroke-width:1.5;" x1="785.5" x2="1200.5" y1="531.1178" y2="531.1178"/><line style="stroke:#A80036;stroke-width:1.5;" x1="785.5" x2="1200.5" y1="539.1178" y2="539.1178"/><ellipse cx="795.5" cy="550.1178" fill="#84BE84" rx="3" ry="3" style="stroke:#038048;stroke-width:1.0;"/><text fill="#000000" font-family="sans-serif" font-size="11" lengthAdjust="spacing" textLength="309" x="804.5" y="554.8767">build_vote(pos_nodes: list, kw_nodes: dict): VotingClassifier</text><ellipse cx="795.5" cy="565.0997" fill="#84BE84" rx="3" ry="3" style="stroke:#038048;stroke-width:1.0;"/><text fill="#000000" font-family="sans-serif" font-size="11" lengthAdjust="spacing" textLength="391" x="804.5" y="569.8586">build_stack(pos_nodes: list, kw_nodes: dict, context: dict): StackingClassifier</text><ellipse cx="795.5" cy="580.0816" fill="#84BE84" rx="3" ry="3" style="stroke:#038048;stroke-width:1.0;"/><text fill="#000000" font-family="sans-serif" font-size="11" lengthAdjust="spacing" textLength="385" x="804.5" y="584.8405">build_bag(pos_nodes: list, kw_nodes: dict, context: dict): BaggingClassifier</text><ellipse cx="795.5" cy="595.0635" fill="#84BE84" rx="3" ry="3" style="stroke:#038048;stroke-width:1.0;"/><text fill="#000000" font-family="sans-serif" font-size="11" lengthAdjust="spacing" textLength="390" x="804.5" y="599.8224">build_ada(pos_nodes: list, kw_nodes: dict, context: dict): AdaBoostClassifier</text><path d="M807.5,334.6178 L807.5,362.1178 L772.24,366.1178 L807.5,370.1178 L807.5,397.7359 A0,0 0 0 0 807.5,397.7359 L1062.5,397.7359 A0,0 0 0 0 1062.5,397.7359 L1062.5,344.6178 L1052.5,334.6178 L807.5,334.6178 A0,0 0 0 0 807.5,334.6178 " fill="#FBFB77" filter="url(#f1r16z0lvocas8)" style="stroke:#A80036;stroke-width:1.0;"/><path d="M1052.5,334.6178 L1052.5,344.6178 L1062.5,344.6178 L1052.5,334.6178 " fill="#FBFB77" style="stroke:#A80036;stroke-width:1.0;"/><text fill="#000000" font-family="sans-serif" font-size="13" lengthAdjust="spacing" textLength="174" x="813.5" y="353.5148">Main compilation entry point</text><text fill="#000000" font-family="sans-serif" font-size="13" lengthAdjust="spacing" textLength="234" x="813.5" y="371.2209">- Converts AST dict to sklearn estimator</text><text fill="#000000" font-family="sans-serif" font-size="13" lengthAdjust="spacing" textLength="184" x="813.5" y="388.9269">- Routes to appropriate builder</text><path d="M423,521.6178 L423,549.1178 L387.72,553.1178 L423,557.1178 L423,584.7359 A0,0 0 0 0 423,584.7359 L749,584.7359 A0,0 0 0 0 749,584.7359 L749,531.6178 L739,521.6178 L423,521.6178 A0,0 0 0 0 423,521.6178 " fill="#FBFB77" filter="url(#f1r16z0lvocas8)" style="stroke:#A80036;stroke-width:1.0;"/><path d="M739,521.6178 L739,531.6178 L749,531.6178 L739,521.6178 " fill="#FBFB77" style="stroke:#A80036;stroke-width:1.0;"/><text fill="#000000" font-family="sans-serif" font-size="13" lengthAdjust="spacing" textLength="190" x="429" y="540.5148">Builds individual sklearn models</text><text fill="#000000" font-family="sans-serif" font-size="13" lengthAdjust="spacing" textLength="184" x="429" y="558.2209">- Handles parameter validation</text><text fill="#000000" font-family="sans-serif" font-size="13" lengthAdjust="spacing" textLength="305" x="429" y="575.9269">- Applies special constraints (e.g., LR penalty/solver)</text><path d="M1236.5,521.6178 L1236.5,549.1178 L1201.58,553.1178 L1236.5,557.1178 L1236.5,584.7359 A0,0 0 0 0 1236.5,584.7359 L1555.5,584.7359 A0,0 0 0 0 1555.5,584.7359 L1555.5,531.6178 L1545.5,521.6178 L1236.5,521.6178 A0,0 0 0 0 1236.5,521.6178 " fill="#FBFB77" filter="url(#f1r16z0lvocas8)" style="stroke:#A80036;stroke-width:1.0;"/><path d="M1545.5,521.6178 L1545.5,531.6178 L1555.5,531.6178 L1545.5,521.6178 " fill="#FBFB77" style="stroke:#A80036;stroke-width:1.0;"/><text fill="#000000" font-family="sans-serif" font-size="13" lengthAdjust="spacing" textLength="156" x="1242.5" y="540.5148">Builds ensemble classifiers</text><text fill="#000000" font-family="sans-serif" font-size="13" lengthAdjust="spacing" textLength="228" x="1242.5" y="558.2209">- Recursively compiles base estimators</text><text fill="#000000" font-family="sans-serif" font-size="13" lengthAdjust="spacing" textLength="298" x="1242.5" y="575.9269">- Handles context propagation (e.g., voting mode)</text><!--MD5=[4f2bdc04b3c2920488cdfecc8f6028d5]
class MODEL_REGISTRY--><rect codeLine="62" fill="#FEFECE" filter="url(#f1r16z0lvocas8)" height="122.9094" id="MODEL_REGISTRY" style="stroke:#A80036;stroke-width:1.5;" width="177" x="435.5" y="712.1178"/><ellipse cx="469.85" cy="728.1178" fill="#ADD1B2" rx="11" ry="11" style="stroke:#A80036;stroke-width:1.0;"/><path d="M472.8188,733.7585 Q472.2406,734.0553 471.6,734.196 Q470.9594,734.3522 470.2563,734.3522 Q467.7563,734.3522 466.4281,732.7116 Q465.1156,731.0553 465.1156,727.9303 Q465.1156,724.8053 466.4281,723.1491 Q467.7563,721.4928 470.2563,721.4928 Q470.9594,721.4928 471.6,721.6491 Q472.2563,721.8053 472.8188,722.1022 L472.8188,724.821 Q472.1938,724.2428 471.6,723.9772 Q471.0063,723.696 470.3813,723.696 Q469.0375,723.696 468.35,724.7741 Q467.6625,725.8366 467.6625,727.9303 Q467.6625,730.0241 468.35,731.1022 Q469.0375,732.1647 470.3813,732.1647 Q471.0063,732.1647 471.6,731.8991 Q472.1938,731.6178 472.8188,731.0397 L472.8188,733.7585 Z " fill="#000000"/><text fill="#000000" font-family="sans-serif" font-size="12" lengthAdjust="spacing" textLength="102" x="488.15" y="732.7739">MODEL_REGISTRY</text><line style="stroke:#A80036;stroke-width:1.5;" x1="436.5" x2="611.5" y1="744.1178" y2="744.1178"/><ellipse cx="446.5" cy="755.1178" fill="none" rx="3" ry="3" style="stroke:#038048;stroke-width:1.0;"/><text fill="#000000" font-family="sans-serif" font-size="11" lengthAdjust="spacing" textLength="125" x="455.5" y="759.8767">"LR": LogisticRegression</text><ellipse cx="446.5" cy="770.0997" fill="none" rx="3" ry="3" style="stroke:#038048;stroke-width:1.0;"/><text fill="#000000" font-family="sans-serif" font-size="11" lengthAdjust="spacing" textLength="57" x="455.5" y="774.8586">"SVM": SVC</text><ellipse cx="446.5" cy="785.0816" fill="none" rx="3" ry="3" style="stroke:#038048;stroke-width:1.0;"/><text fill="#000000" font-family="sans-serif" font-size="11" lengthAdjust="spacing" textLength="151" x="455.5" y="789.8405">"RF": RandomForestClassifier</text><ellipse cx="446.5" cy="800.0635" fill="none" rx="3" ry="3" style="stroke:#038048;stroke-width:1.0;"/><text fill="#000000" font-family="sans-serif" font-size="11" lengthAdjust="spacing" textLength="142" x="455.5" y="804.8224">"DT": DecisionTreeClassifier</text><ellipse cx="446.5" cy="815.0454" fill="none" rx="3" ry="3" style="stroke:#038048;stroke-width:1.0;"/><text fill="#000000" font-family="sans-serif" font-size="11" lengthAdjust="spacing" textLength="91" x="455.5" y="819.8043">"NB": GaussianNB</text><line style="stroke:#A80036;stroke-width:1.5;" x1="436.5" x2="611.5" y1="827.0273" y2="827.0273"/><!--MD5=[bdc6261e6cd4971c5ff634a0bb9e607f]
class ENSEMBLE_REGISTRY--><rect codeLine="70" fill="#FEFECE" filter="url(#f1r16z0lvocas8)" height="107.9276" id="ENSEMBLE_REGISTRY" style="stroke:#A80036;stroke-width:1.5;" width="157" x="647.5" y="719.6178"/><ellipse cx="663.85" cy="735.6178" fill="#ADD1B2" rx="11" ry="11" style="stroke:#A80036;stroke-width:1.0;"/><path d="M666.8188,741.2585 Q666.2406,741.5553 665.6,741.696 Q664.9594,741.8522 664.2563,741.8522 Q661.7563,741.8522 660.4281,740.2116 Q659.1156,738.5553 659.1156,735.4303 Q659.1156,732.3053 660.4281,730.6491 Q661.7563,728.9928 664.2563,728.9928 Q664.9594,728.9928 665.6,729.1491 Q666.2563,729.3053 666.8188,729.6022 L666.8188,732.321 Q666.1938,731.7428 665.6,731.4772 Q665.0063,731.196 664.3813,731.196 Q663.0375,731.196 662.35,732.2741 Q661.6625,733.3366 661.6625,735.4303 Q661.6625,737.5241 662.35,738.6022 Q663.0375,739.6647 664.3813,739.6647 Q665.0063,739.6647 665.6,739.3991 Q666.1938,739.1178 666.8188,738.5397 L666.8188,741.2585 Z " fill="#000000"/><text fill="#000000" font-family="sans-serif" font-size="12" lengthAdjust="spacing" textLength="122" x="678.15" y="740.2739">ENSEMBLE_REGISTRY</text><line style="stroke:#A80036;stroke-width:1.5;" x1="648.5" x2="803.5" y1="751.6178" y2="751.6178"/><ellipse cx="658.5" cy="762.6178" fill="none" rx="3" ry="3" style="stroke:#038048;stroke-width:1.0;"/><text fill="#000000" font-family="sans-serif" font-size="11" lengthAdjust="spacing" textLength="119" x="667.5" y="767.3767">"vote": VotingClassifier</text><ellipse cx="658.5" cy="777.5997" fill="none" rx="3" ry="3" style="stroke:#038048;stroke-width:1.0;"/><text fill="#000000" font-family="sans-serif" font-size="11" lengthAdjust="spacing" textLength="131" x="667.5" y="782.3586">"stack": StackingClassifier</text><ellipse cx="658.5" cy="792.5816" fill="none" rx="3" ry="3" style="stroke:#038048;stroke-width:1.0;"/><text fill="#000000" font-family="sans-serif" font-size="11" lengthAdjust="spacing" textLength="125" x="667.5" y="797.3405">"bag": BaggingClassifier</text><ellipse cx="658.5" cy="807.5635" fill="none" rx="3" ry="3" style="stroke:#038048;stroke-width:1.0;"/><text fill="#000000" font-family="sans-serif" font-size="11" lengthAdjust="spacing" textLength="130" x="667.5" y="812.3224">"ada": AdaBoostClassifier</text><line style="stroke:#A80036;stroke-width:1.5;" x1="648.5" x2="803.5" y1="819.5454" y2="819.5454"/><!--MD5=[238dbd9944093bcdc066e7d3f25fa0ed]
class Estimator--><rect codeLine="79" fill="#FEFECE" filter="url(#f1r16z0lvocas8)" height="62.9819" id="Estimator" style="stroke:#A80036;stroke-width:1.5;" width="86" x="1856" y="742.1178"/><ellipse cx="1871" cy="758.1178" fill="#ADD1B2" rx="11" ry="11" style="stroke:#A80036;stroke-width:1.0;"/><path d="M1873.9688,763.7585 Q1873.3906,764.0553 1872.75,764.196 Q1872.1094,764.3522 1871.4063,764.3522 Q1868.9063,764.3522 1867.5781,762.7116 Q1866.2656,761.0553 1866.2656,757.9303 Q1866.2656,754.8053 1867.5781,753.1491 Q1868.9063,751.4928 1871.4063,751.4928 Q1872.1094,751.4928 1872.75,751.6491 Q1873.4063,751.8053 1873.9688,752.1022 L1873.9688,754.821 Q1873.3438,754.2428 1872.75,753.9772 Q1872.1563,753.696 1871.5313,753.696 Q1870.1875,753.696 1869.5,754.7741 Q1868.8125,755.8366 1868.8125,757.9303 Q1868.8125,760.0241 1869.5,761.1022 Q1870.1875,762.1647 1871.5313,762.1647 Q1872.1563,762.1647 1872.75,761.8991 Q1873.3438,761.6178 1873.9688,761.0397 L1873.9688,763.7585 Z " fill="#000000"/><text fill="#000000" font-family="sans-serif" font-size="12" lengthAdjust="spacing" textLength="54" x="1885" y="762.7739">Estimator</text><line style="stroke:#A80036;stroke-width:1.5;" x1="1857" x2="1941" y1="774.1178" y2="774.1178"/><text fill="#000000" font-family="sans-serif" font-size="11" lengthAdjust="spacing" textLength="58" x="1862" y="789.8767">«interface»</text><line style="stroke:#A80036;stroke-width:1.5;" x1="1857" x2="1941" y1="797.0997" y2="797.0997"/><!--MD5=[d085121c7f25a8eb8b5ef557c00e22b2]
class LogisticRegression--><rect codeLine="83" fill="#FEFECE" filter="url(#f1r16z0lvocas8)" height="48" id="LogisticRegression" style="stroke:#A80036;stroke-width:1.5;" width="136" x="2022" y="529.1178"/><ellipse cx="2037" cy="545.1178" fill="#ADD1B2" rx="11" ry="11" style="stroke:#A80036;stroke-width:1.0;"/><path d="M2039.9688,550.7585 Q2039.3906,551.0553 2038.75,551.196 Q2038.1094,551.3522 2037.4063,551.3522 Q2034.9063,551.3522 2033.5781,549.7116 Q2032.2656,548.0553 2032.2656,544.9303 Q2032.2656,541.8053 2033.5781,540.1491 Q2034.9063,538.4928 2037.4063,538.4928 Q2038.1094,538.4928 2038.75,538.6491 Q2039.4063,538.8053 2039.9688,539.1022 L2039.9688,541.821 Q2039.3438,541.2428 2038.75,540.9772 Q2038.1563,540.696 2037.5313,540.696 Q2036.1875,540.696 2035.5,541.7741 Q2034.8125,542.8366 2034.8125,544.9303 Q2034.8125,547.0241 2035.5,548.1022 Q2036.1875,549.1647 2037.5313,549.1647 Q2038.1563,549.1647 2038.75,548.8991 Q2039.3438,548.6178 2039.9688,548.0397 L2039.9688,550.7585 Z " fill="#000000"/><text fill="#000000" font-family="sans-serif" font-size="12" lengthAdjust="spacing" textLength="104" x="2051" y="549.7739">LogisticRegression</text><line style="stroke:#A80036;stroke-width:1.5;" x1="2023" x2="2157" y1="561.1178" y2="561.1178"/><line style="stroke:#A80036;stroke-width:1.5;" x1="2023" x2="2157" y1="569.1178" y2="569.1178"/><!--MD5=[2336b22e3ebc2255a815b84bb9981058]
class SVC--><rect codeLine="84" fill="#FEFECE" filter="url(#f1r16z0lvocas8)" height="48" id="SVC" style="stroke:#A80036;stroke-width:1.5;" width="54" x="1933" y="529.1178"/><ellipse cx="1948" cy="545.1178" fill="#ADD1B2" rx="11" ry="11" style="stroke:#A80036;stroke-width:1.0;"/><path d="M1950.9688,550.7585 Q1950.3906,551.0553 1949.75,551.196 Q1949.1094,551.3522 1948.4063,551.3522 Q1945.9063,551.3522 1944.5781,549.7116 Q1943.2656,548.0553 1943.2656,544.9303 Q1943.2656,541.8053 1944.5781,540.1491 Q1945.9063,538.4928 1948.4063,538.4928 Q1949.1094,538.4928 1949.75,538.6491 Q1950.4063,538.8053 1950.9688,539.1022 L1950.9688,541.821 Q1950.3438,541.2428 1949.75,540.9772 Q1949.1563,540.696 1948.5313,540.696 Q1947.1875,540.696 1946.5,541.7741 Q1945.8125,542.8366 1945.8125,544.9303 Q1945.8125,547.0241 1946.5,548.1022 Q1947.1875,549.1647 1948.5313,549.1647 Q1949.1563,549.1647 1949.75,548.8991 Q1950.3438,548.6178 1950.9688,548.0397 L1950.9688,550.7585 Z " fill="#000000"/><text fill="#000000" font-family="sans-serif" font-size="12" lengthAdjust="spacing" textLength="22" x="1962" y="549.7739">SVC</text><line style="stroke:#A80036;stroke-width:1.5;" x1="1934" x2="1986" y1="561.1178" y2="561.1178"/><line style="stroke:#A80036;stroke-width:1.5;" x1="1934" x2="1986" y1="569.1178" y2="569.1178"/><!--MD5=[002d17b2736f42c14bf8bc81ed889ea8]
class VotingClassifier--><rect codeLine="85" fill="#FEFECE" filter="url(#f1r16z0lvocas8)" height="48" id="VotingClassifier" style="stroke:#A80036;stroke-width:1.5;" width="119" x="1778.5" y="529.1178"/><ellipse cx="1793.5" cy="545.1178" fill="#ADD1B2" rx="11" ry="11" style="stroke:#A80036;stroke-width:1.0;"/><path d="M1796.4688,550.7585 Q1795.8906,551.0553 1795.25,551.196 Q1794.6094,551.3522 1793.9063,551.3522 Q1791.4063,551.3522 1790.0781,549.7116 Q1788.7656,548.0553 1788.7656,544.9303 Q1788.7656,541.8053 1790.0781,540.1491 Q1791.4063,538.4928 1793.9063,538.4928 Q1794.6094,538.4928 1795.25,538.6491 Q1795.9063,538.8053 1796.4688,539.1022 L1796.4688,541.821 Q1795.8438,541.2428 1795.25,540.9772 Q1794.6563,540.696 1794.0313,540.696 Q1792.6875,540.696 1792,541.7741 Q1791.3125,542.8366 1791.3125,544.9303 Q1791.3125,547.0241 1792,548.1022 Q1792.6875,549.1647 1794.0313,549.1647 Q1794.6563,549.1647 1795.25,548.8991 Q1795.8438,548.6178 1796.4688,548.0397 L1796.4688,550.7585 Z " fill="#000000"/><text fill="#000000" font-family="sans-serif" font-size="12" lengthAdjust="spacing" textLength="87" x="1807.5" y="549.7739">VotingClassifier</text><line style="stroke:#A80036;stroke-width:1.5;" x1="1779.5" x2="1896.5" y1="561.1178" y2="561.1178"/><line style="stroke:#A80036;stroke-width:1.5;" x1="1779.5" x2="1896.5" y1="569.1178" y2="569.1178"/><!--MD5=[2d6fd1bb445727df5e75ea44f32d6759]
class StackingClassifier--><rect codeLine="86" fill="#FEFECE" filter="url(#f1r16z0lvocas8)" height="48" id="StackingClassifier" style="stroke:#A80036;stroke-width:1.5;" width="131" x="1612.5" y="529.1178"/><ellipse cx="1627.5" cy="545.1178" fill="#ADD1B2" rx="11" ry="11" style="stroke:#A80036;stroke-width:1.0;"/><path d="M1630.4688,550.7585 Q1629.8906,551.0553 1629.25,551.196 Q1628.6094,551.3522 1627.9063,551.3522 Q1625.4063,551.3522 1624.0781,549.7116 Q1622.7656,548.0553 1622.7656,544.9303 Q1622.7656,541.8053 1624.0781,540.1491 Q1625.4063,538.4928 1627.9063,538.4928 Q1628.6094,538.4928 1629.25,538.6491 Q1629.9063,538.8053 1630.4688,539.1022 L1630.4688,541.821 Q1629.8438,541.2428 1629.25,540.9772 Q1628.6563,540.696 1628.0313,540.696 Q1626.6875,540.696 1626,541.7741 Q1625.3125,542.8366 1625.3125,544.9303 Q1625.3125,547.0241 1626,548.1022 Q1626.6875,549.1647 1628.0313,549.1647 Q1628.6563,549.1647 1629.25,548.8991 Q1629.8438,548.6178 1630.4688,548.0397 L1630.4688,550.7585 Z " fill="#000000"/><text fill="#000000" font-family="sans-serif" font-size="12" lengthAdjust="spacing" textLength="99" x="1641.5" y="549.7739">StackingClassifier</text><line style="stroke:#A80036;stroke-width:1.5;" x1="1613.5" x2="1742.5" y1="561.1178" y2="561.1178"/><line style="stroke:#A80036;stroke-width:1.5;" x1="1613.5" x2="1742.5" y1="569.1178" y2="569.1178"/><!--MD5=[da737e4ce8aa8032e98647fd72e802b2]
class BaggingClassifier--><rect codeLine="87" fill="#FEFECE" filter="url(#f1r16z0lvocas8)" height="48" id="BaggingClassifier" style="stroke:#A80036;stroke-width:1.5;" width="130" x="2366" y="529.1178"/><ellipse cx="2381" cy="545.1178" fill="#ADD1B2" rx="11" ry="11" style="stroke:#A80036;stroke-width:1.0;"/><path d="M2383.9688,550.7585 Q2383.3906,551.0553 2382.75,551.196 Q2382.1094,551.3522 2381.4063,551.3522 Q2378.9063,551.3522 2377.5781,549.7116 Q2376.2656,548.0553 2376.2656,544.9303 Q2376.2656,541.8053 2377.5781,540.1491 Q2378.9063,538.4928 2381.4063,538.4928 Q2382.1094,538.4928 2382.75,538.6491 Q2383.4063,538.8053 2383.9688,539.1022 L2383.9688,541.821 Q2383.3438,541.2428 2382.75,540.9772 Q2382.1563,540.696 2381.5313,540.696 Q2380.1875,540.696 2379.5,541.7741 Q2378.8125,542.8366 2378.8125,544.9303 Q2378.8125,547.0241 2379.5,548.1022 Q2380.1875,549.1647 2381.5313,549.1647 Q2382.1563,549.1647 2382.75,548.8991 Q2383.3438,548.6178 2383.9688,548.0397 L2383.9688,550.7585 Z " fill="#000000"/><text fill="#000000" font-family="sans-serif" font-size="12" lengthAdjust="spacing" textLength="98" x="2395" y="549.7739">BaggingClassifier</text><line style="stroke:#A80036;stroke-width:1.5;" x1="2367" x2="2495" y1="561.1178" y2="561.1178"/><line style="stroke:#A80036;stroke-width:1.5;" x1="2367" x2="2495" y1="569.1178" y2="569.1178"/><!--MD5=[9272aea13635a74b5c79435e490aae8a]
class AdaBoostClassifier--><rect codeLine="88" fill="#FEFECE" filter="url(#f1r16z0lvocas8)" height="48" id="AdaBoostClassifier" style="stroke:#A80036;stroke-width:1.5;" width="138" x="2193" y="529.1178"/><ellipse cx="2208" cy="545.1178" fill="#ADD1B2" rx="11" ry="11" style="stroke:#A80036;stroke-width:1.0;"/><path d="M2210.9688,550.7585 Q2210.3906,551.0553 2209.75,551.196 Q2209.1094,551.3522 2208.4063,551.3522 Q2205.9063,551.3522 2204.5781,549.7116 Q2203.2656,548.0553 2203.2656,544.9303 Q2203.2656,541.8053 2204.5781,540.1491 Q2205.9063,538.4928 2208.4063,538.4928 Q2209.1094,538.4928 2209.75,538.6491 Q2210.4063,538.8053 2210.9688,539.1022 L2210.9688,541.821 Q2210.3438,541.2428 2209.75,540.9772 Q2209.1563,540.696 2208.5313,540.696 Q2207.1875,540.696 2206.5,541.7741 Q2205.8125,542.8366 2205.8125,544.9303 Q2205.8125,547.0241 2206.5,548.1022 Q2207.1875,549.1647 2208.5313,549.1647 Q2209.1563,549.1647 2209.75,548.8991 Q2210.3438,548.6178 2210.9688,548.0397 L2210.9688,550.7585 Z " fill="#000000"/><text fill="#000000" font-family="sans-serif" font-size="12" lengthAdjust="spacing" textLength="106" x="2222" y="549.7739">AdaBoostClassifier</text><line style="stroke:#A80036;stroke-width:1.5;" x1="2194" x2="2330" y1="561.1178" y2="561.1178"/><line style="stroke:#A80036;stroke-width:1.5;" x1="2194" x2="2330" y1="569.1178" y2="569.1178"/><!--MD5=[0ad59f320fa1ff599f4fd34898c938b8]
link DSLMapper to Compiler--><path codeLine="92" d="M601,207.2278 C601,238.9278 601,276.2578 601,306.6578 " fill="none" id="DSLMapper-to-Compiler" style="stroke:#A80036;stroke-width:1.0;"/><polygon fill="#A80036" points="601,311.8578,605,302.8578,601,306.8578,597,302.8578,601,311.8578" style="stroke:#A80036;stroke-width:1.0;"/><text fill="#000000" font-family="sans-serif" font-size="13" lengthAdjust="spacing" textLength="132" x="602" y="254.0148">map() returns dict AST</text><!--MD5=[a131f971cfc9aa9f565774ad817bcf67]
link Compiler to ModelBuilder--><path codeLine="93" d="M488.96,420.1278 C421.35,452.1178 337.36,491.8578 279.3,519.3278 " fill="none" id="Compiler-to-ModelBuilder" style="stroke:#A80036;stroke-width:1.0;"/><polygon fill="#A80036" points="274.46,521.6178,284.3058,521.372,278.9769,519.4737,280.8752,514.1449,274.46,521.6178" style="stroke:#A80036;stroke-width:1.0;"/><text fill="#000000" font-family="sans-serif" font-size="13" lengthAdjust="spacing" textLength="83" x="419" y="465.0148">builds models</text><!--MD5=[6e6a43e1103efccac7ce853aff4413c3]
link Compiler to EnsembleBuilders--><path codeLine="94" d="M713.33,420.1278 C764.28,444.1778 824.52,472.6078 876.01,496.9078 " fill="none" id="Compiler-to-EnsembleBuilders" style="stroke:#A80036;stroke-width:1.0;"/><polygon fill="#A80036" points="880.65,499.0978,874.2257,491.6327,876.1304,496.9592,870.8039,498.864,880.65,499.0978" style="stroke:#A80036;stroke-width:1.0;"/><text fill="#000000" font-family="sans-serif" font-size="13" lengthAdjust="spacing" textLength="103" x="809" y="465.0148">builds ensembles</text><!--MD5=[f64808d95b3db603583d92ce0d809ad0]
link ModelBuilder to MODEL_REGISTRY--><path codeLine="95" d="M253.99,584.7278 C300.14,616.8478 374.01,668.2478 432.83,709.1778 " fill="none" id="ModelBuilder-to-MODEL_REGISTRY" style="stroke:#A80036;stroke-width:1.0;"/><polygon fill="#A80036" points="437.04,712.0978,431.9293,703.6788,432.9332,709.2458,427.3661,710.2497,437.04,712.0978" style="stroke:#A80036;stroke-width:1.0;"/><text fill="#000000" font-family="sans-serif" font-size="13" lengthAdjust="spacing" textLength="114" x="359" y="654.0148">lookup model class</text><!--MD5=[1072b876ec4398826a9ab473f891a65f]
link EnsembleBuilders to ENSEMBLE_REGISTRY--><path codeLine="96" d="M928.03,607.2878 C887.65,640.3278 835.8,682.7578 794.74,716.3678 " fill="none" id="EnsembleBuilders-to-ENSEMBLE_REGISTRY" style="stroke:#A80036;stroke-width:1.0;"/><polygon fill="#A80036" points="790.8,719.5878,800.297,716.9788,794.6679,716.4193,795.2274,710.7902,790.8,719.5878" style="stroke:#A80036;stroke-width:1.0;"/><text fill="#000000" font-family="sans-serif" font-size="13" lengthAdjust="spacing" textLength="134" x="884" y="654.0148">lookup ensemble class</text><!--MD5=[af7c2b5be695b546ba88cf353764d148]
link ModelBuilder to Estimator--><path codeLine="97" d="M273.48,584.6478 C310.89,601.2478 359.64,620.4978 405,631.1178 C427.58,636.4078 797.9,664.0078 821,666.1178 C1218.94,702.5178 1698.93,751.8578 1850.63,767.5878 " fill="none" id="ModelBuilder-to-Estimator" style="stroke:#A80036;stroke-width:1.0;"/><polygon fill="#A80036" points="1855.89,768.1278,1847.3494,763.223,1850.9165,767.6133,1846.5262,771.1805,1855.89,768.1278" style="stroke:#A80036;stroke-width:1.0;"/><text fill="#000000" font-family="sans-serif" font-size="13" lengthAdjust="spacing" textLength="43" x="715" y="654.0148">creates</text><!--MD5=[00b0f3eab290cbb01239cf3dcc5eb1b4]
link EnsembleBuilders to Estimator--><path codeLine="98" d="M1140.2,607.1878 C1166.28,615.7478 1193.31,624.0978 1219,631.1178 C1452.87,695.0278 1738.83,745.8278 1850.8,764.6978 " fill="none" id="EnsembleBuilders-to-Estimator" style="stroke:#A80036;stroke-width:1.0;"/><polygon fill="#A80036" points="1856,765.5678,1847.7877,760.1311,1851.0692,764.7389,1846.4614,768.0204,1856,765.5678" style="stroke:#A80036;stroke-width:1.0;"/><text fill="#000000" font-family="sans-serif" font-size="13" lengthAdjust="spacing" textLength="43" x="1311" y="654.0148">creates</text><!--MD5=[7642fce2c75cb6d405e76dc4305a8263]
link LogisticRegression to Estimator--><path codeLine="99" d="M2069.56,577.4978 C2038.48,613.0478 1978.76,681.3778 1938.89,726.9878 " fill="none" id="LogisticRegression-to-Estimator" style="stroke:#A80036;stroke-width:1.0;stroke-dasharray:7.0,7.0;"/><polygon fill="none" points="1944.12,731.6378,1925.69,742.0878,1933.58,722.4178,1944.12,731.6378" style="stroke:#A80036;stroke-width:1.0;"/><!--MD5=[80dde767e7a9bf51c16781a4a8584c41]
link SVC to Estimator--><path codeLine="100" d="M1953.47,577.4978 C1943.85,611.9678 1925.63,677.2278 1912.92,722.7478 " fill="none" id="SVC-to-Estimator" style="stroke:#A80036;stroke-width:1.0;stroke-dasharray:7.0,7.0;"/><polygon fill="none" points="1919.64,724.7078,1907.52,742.0878,1906.16,720.9378,1919.64,724.7078" style="stroke:#A80036;stroke-width:1.0;"/><!--MD5=[618f301979d31c928bde03ddca6da839]
link VotingClassifier to Estimator--><path codeLine="101" d="M1844.53,577.4978 C1854.15,611.9678 1872.37,677.2278 1885.08,722.7478 " fill="none" id="VotingClassifier-to-Estimator" style="stroke:#A80036;stroke-width:1.0;stroke-dasharray:7.0,7.0;"/><polygon fill="none" points="1891.84,720.9378,1890.48,742.0878,1878.36,724.7078,1891.84,720.9378" style="stroke:#A80036;stroke-width:1.0;"/><!--MD5=[8957153cd21bfc425452b1cc225740b2]
link StackingClassifier to Estimator--><path codeLine="102" d="M1701.65,577.4978 C1737.84,613.2878 1807.62,682.2678 1853.75,727.8878 " fill="none" id="StackingClassifier-to-Estimator" style="stroke:#A80036;stroke-width:1.0;stroke-dasharray:7.0,7.0;"/><polygon fill="none" points="1858.82,723.0478,1868.12,742.0878,1848.97,732.9978,1858.82,723.0478" style="stroke:#A80036;stroke-width:1.0;"/><!--MD5=[92d07c898762e9ccadb890a9e77a6ac3]
link BaggingClassifier to Estimator--><path codeLine="103" d="M2411.59,577.2878 C2396.18,594.3278 2373.27,616.9178 2349,631.1178 C2222.4,705.1778 2052.69,744.8678 1962.16,762.0278 " fill="none" id="BaggingClassifier-to-Estimator" style="stroke:#A80036;stroke-width:1.0;stroke-dasharray:7.0,7.0;"/><polygon fill="none" points="1963.17,768.9578,1942.23,765.6878,1960.64,755.1878,1963.17,768.9578" style="stroke:#A80036;stroke-width:1.0;"/><!--MD5=[92d18d305adb93ab28ce548b6c2d349f]
link AdaBoostClassifier to Estimator--><path codeLine="104" d="M2239.28,577.4478 C2222.69,593.7078 2199.14,615.2478 2176,631.1178 C2106.39,678.8678 2018.5,721.0678 1960.61,746.6878 " fill="none" id="AdaBoostClassifier-to-Estimator" style="stroke:#A80036;stroke-width:1.0;stroke-dasharray:7.0,7.0;"/><polygon fill="none" points="1963.33,753.1378,1942.2,754.7278,1957.73,740.3078,1963.33,753.1378" style="stroke:#A80036;stroke-width:1.0;"/><!--MD5=[86b1118edecddb0570a85b3eece285f4]
@startuml
title Mapper and Compiler Structure

package "Mapper Module (dsl_mapper.py)" {
    class DSLMapper {
        - grammar: pyparsing expression
        - -
        + __init__()
        + map(dsl_string: str): dict
        - _setup_grammar()
        - _make_literal_node(tokens): dict
        - _make_call_node(tokens): dict
    }
    
    note right of DSLMapper
        Maps DSL strings into
        dict-based AST nodes
        - Handles function calls
        - Handles literals (strings, numbers, booleans)
        - Returns dict with "type" and data
    end note
}

package "Compiler Module (compiler.py)" {
    class Compiler {
        + dsl_to_sklearn_estimator(dsl_string: str): estimator
        + compile_ast_to_estimator(node: dict, context: dict): estimator
        + eval_value(node: dict): Any
        + safe_kwargs_for(cls, kwargs: dict): dict
    }
    
    class ModelBuilder {
        + build_model(name: str, kw_nodes: dict, context: dict): estimator
    }
    
    class EnsembleBuilders {
        + build_vote(pos_nodes: list, kw_nodes: dict): VotingClassifier
        + build_stack(pos_nodes: list, kw_nodes: dict, context: dict): StackingClassifier
        + build_bag(pos_nodes: list, kw_nodes: dict, context: dict): BaggingClassifier
        + build_ada(pos_nodes: list, kw_nodes: dict, context: dict): AdaBoostClassifier
    }
    
    note right of Compiler
        Main compilation entry point
        - Converts AST dict to sklearn estimator
        - Routes to appropriate builder
    end note
    
    note right of ModelBuilder
        Builds individual sklearn models
        - Handles parameter validation
        - Applies special constraints (e.g., LR penalty/solver)
    end note
    
    note right of EnsembleBuilders
        Builds ensemble classifiers
        - Recursively compiles base estimators
        - Handles context propagation (e.g., voting mode)
    end note
}

package "Registry Module (registry.py)" {
    class MODEL_REGISTRY {
        + "LR": LogisticRegression
        + "SVM": SVC
        + "RF": RandomForestClassifier
        + "DT": DecisionTreeClassifier
        + "NB": GaussianNB
    }
    
    class ENSEMBLE_REGISTRY {
        + "vote": VotingClassifier
        + "stack": StackingClassifier
        + "bag": BaggingClassifier
        + "ada": AdaBoostClassifier
    }
}

package "sklearn" {
    class Estimator {
        <<interface>>
    }
    
    class LogisticRegression
    class SVC
    class VotingClassifier
    class StackingClassifier
    class BaggingClassifier
    class AdaBoostClassifier
}

' Relationships
DSLMapper - -> Compiler : "map() returns dict AST"
Compiler - -> ModelBuilder : "builds models"
Compiler - -> EnsembleBuilders : "builds ensembles"
ModelBuilder - -> MODEL_REGISTRY : "lookup model class"
EnsembleBuilders - -> ENSEMBLE_REGISTRY : "lookup ensemble class"
ModelBuilder - -> Estimator : "creates"
EnsembleBuilders - -> Estimator : "creates"
LogisticRegression ..|> Estimator
SVC ..|> Estimator
VotingClassifier ..|> Estimator
StackingClassifier ..|> Estimator
BaggingClassifier ..|> Estimator
AdaBoostClassifier ..|> Estimator

@enduml

@startuml
title Mapper and Compiler Structure

package "Mapper Module (dsl_mapper.py)" {
    class DSLMapper {
        - grammar: pyparsing expression
        - -
        + __init__()
        + map(dsl_string: str): dict
        - _setup_grammar()
        - _make_literal_node(tokens): dict
        - _make_call_node(tokens): dict
    }
    
    note right of DSLMapper
        Maps DSL strings into
        dict-based AST nodes
        - Handles function calls
        - Handles literals (strings, numbers, booleans)
        - Returns dict with "type" and data
    end note
}

package "Compiler Module (compiler.py)" {
    class Compiler {
        + dsl_to_sklearn_estimator(dsl_string: str): estimator
        + compile_ast_to_estimator(node: dict, context: dict): estimator
        + eval_value(node: dict): Any
        + safe_kwargs_for(cls, kwargs: dict): dict
    }
    
    class ModelBuilder {
        + build_model(name: str, kw_nodes: dict, context: dict): estimator
    }
    
    class EnsembleBuilders {
        + build_vote(pos_nodes: list, kw_nodes: dict): VotingClassifier
        + build_stack(pos_nodes: list, kw_nodes: dict, context: dict): StackingClassifier
        + build_bag(pos_nodes: list, kw_nodes: dict, context: dict): BaggingClassifier
        + build_ada(pos_nodes: list, kw_nodes: dict, context: dict): AdaBoostClassifier
    }
    
    note right of Compiler
        Main compilation entry point
        - Converts AST dict to sklearn estimator
        - Routes to appropriate builder
    end note
    
    note right of ModelBuilder
        Builds individual sklearn models
        - Handles parameter validation
        - Applies special constraints (e.g., LR penalty/solver)
    end note
    
    note right of EnsembleBuilders
        Builds ensemble classifiers
        - Recursively compiles base estimators
        - Handles context propagation (e.g., voting mode)
    end note
}

package "Registry Module (registry.py)" {
    class MODEL_REGISTRY {
        + "LR": LogisticRegression
        + "SVM": SVC
        + "RF": RandomForestClassifier
        + "DT": DecisionTreeClassifier
        + "NB": GaussianNB
    }
    
    class ENSEMBLE_REGISTRY {
        + "vote": VotingClassifier
        + "stack": StackingClassifier
        + "bag": BaggingClassifier
        + "ada": AdaBoostClassifier
    }
}

package "sklearn" {
    class Estimator {
        <<interface>>
    }
    
    class LogisticRegression
    class SVC
    class VotingClassifier
    class StackingClassifier
    class BaggingClassifier
    class AdaBoostClassifier
}

DSLMapper - -> Compiler : "map() returns dict AST"
Compiler - -> ModelBuilder : "builds models"
Compiler - -> EnsembleBuilders : "builds ensembles"
ModelBuilder - -> MODEL_REGISTRY : "lookup model class"
EnsembleBuilders - -> ENSEMBLE_REGISTRY : "lookup ensemble class"
ModelBuilder - -> Estimator : "creates"
EnsembleBuilders - -> Estimator : "creates"
LogisticRegression ..|> Estimator
SVC ..|> Estimator
VotingClassifier ..|> Estimator
StackingClassifier ..|> Estimator
BaggingClassifier ..|> Estimator
AdaBoostClassifier ..|> Estimator

@enduml

PlantUML version 1.2021.00(Sun Jan 10 10:25:05 GMT 2021)
(MIT source distribution)
Java Runtime: OpenJDK Runtime Environment
JVM: OpenJDK 64-Bit Server VM
Default Encoding: UTF-8
Language: en
Country: US
--></g></svg>