<?xml version="1.0" encoding="UTF-8" standalone="no"?><svg xmlns="http://www.w3.org/2000/svg" xmlns:xlink="http://www.w3.org/1999/xlink" contentScriptType="application/ecmascript" contentStyleType="text/css" height="810px" preserveAspectRatio="none" style="width:671px;height:810px;" version="1.1" viewBox="0 0 671 810" width="671px" zoomAndPan="magnify"><defs><filter height="300%" id="fe3nk8y8jdi47" width="300%" x="-1" y="-1"><feGaussianBlur result="blurOut" stdDeviation="2.0"/><feColorMatrix in="blurOut" result="blurOut2" type="matrix" values="0 0 0 0 0 0 0 0 0 0 0 0 0 0 0 0 0 0 .4 0"/><feOffset dx="4.0" dy="4.0" in="blurOut2" result="blurOut3"/><feBlend in="SourceGraphic" in2="blurOut3" mode="normal"/></filter></defs><g><text fill="#000000" font-family="sans-serif" font-size="18" lengthAdjust="spacing" textLength="315" x="171.5" y="19.2419">Runner structure - main components</text><!--MD5=[9681dc6e01e10c6b4fe06895ae94f592]
cluster UI--><polygon fill="#FFFFFF" filter="url(#fe3nk8y8jdi47)" points="317,31.1178,339,31.1178,346,56.1857,477,56.1857,477,153.1178,317,153.1178,317,31.1178" style="stroke:#000000;stroke-width:1.5;"/><line style="stroke:#000000;stroke-width:1.5;" x1="317" x2="346" y1="56.1857" y2="56.1857"/><text fill="#000000" font-family="sans-serif" font-size="14" font-weight="bold" lengthAdjust="spacing" textLength="16" x="321" y="48.0838">UI</text><!--MD5=[f21b1f164e99c6b37934f23ad048ad54]
cluster Data--><polygon fill="#FFFFFF" filter="url(#fe3nk8y8jdi47)" points="16,222.1178,54,222.1178,61,247.1857,206,247.1857,206,481.6178,16,481.6178,16,222.1178" style="stroke:#000000;stroke-width:1.5;"/><line style="stroke:#000000;stroke-width:1.5;" x1="16" x2="61" y1="247.1857" y2="247.1857"/><text fill="#000000" font-family="sans-serif" font-size="14" font-weight="bold" lengthAdjust="spacing" textLength="32" x="20" y="239.0838">Data</text><!--MD5=[79da0236b3c471b05d907711ce9d7c9f]
cluster Core Execution--><polygon fill="#FFFFFF" filter="url(#fe3nk8y8jdi47)" points="369,222.1178,479,222.1178,486,247.1857,567,247.1857,567,803.1178,369,803.1178,369,222.1178" style="stroke:#000000;stroke-width:1.5;"/><line style="stroke:#000000;stroke-width:1.5;" x1="369" x2="486" y1="247.1857" y2="247.1857"/><text fill="#000000" font-family="sans-serif" font-size="14" font-weight="bold" lengthAdjust="spacing" textLength="104" x="373" y="239.0838">Core Execution</text><!--MD5=[1bbff15fb21456d717c3a12862abd8bc]
entity RunnerUI--><rect fill="#FEFECE" filter="url(#fe3nk8y8jdi47)" height="68.1358" style="stroke:#A80036;stroke-width:1.5;" width="127" x="333.5" y="69.1178"/><rect fill="#FEFECE" height="10" style="stroke:#A80036;stroke-width:1.5;" width="15" x="440.5" y="74.1178"/><rect fill="#FEFECE" height="2" style="stroke:#A80036;stroke-width:1.5;" width="4" x="438.5" y="76.1178"/><rect fill="#FEFECE" height="2" style="stroke:#A80036;stroke-width:1.5;" width="4" x="438.5" y="80.1178"/><text fill="#000000" font-family="sans-serif" font-size="14" lengthAdjust="spacing" textLength="87" x="348.5" y="104.0838">Runner Page</text><text fill="#000000" font-family="sans-serif" font-size="14" lengthAdjust="spacing" textLength="59" x="348.5" y="123.1517">2_test.py</text><!--MD5=[e9afd8dee7f22e3497c63b001e7f1ac7]
entity Loader--><rect fill="#FEFECE" filter="url(#fe3nk8y8jdi47)" height="68.1358" style="stroke:#A80036;stroke-width:1.5;" width="159" x="31.5" y="260.1178"/><rect fill="#FEFECE" height="10" style="stroke:#A80036;stroke-width:1.5;" width="15" x="170.5" y="265.1178"/><rect fill="#FEFECE" height="2" style="stroke:#A80036;stroke-width:1.5;" width="4" x="168.5" y="267.1178"/><rect fill="#FEFECE" height="2" style="stroke:#A80036;stroke-width:1.5;" width="4" x="168.5" y="271.1178"/><text fill="#000000" font-family="sans-serif" font-size="14" lengthAdjust="spacing" textLength="101" x="46.5" y="295.0838">Dataset Loader</text><text fill="#000000" font-family="sans-serif" font-size="14" lengthAdjust="spacing" textLength="119" x="46.5" y="314.1517">dataset_loader.py</text><!--MD5=[cafb66fbc5844cdcb58d84cde512b4ee]
entity DataSource--><rect fill="#FEFECE" filter="url(#fe3nk8y8jdi47)" height="49.0679" style="stroke:#A80036;stroke-width:1.5;" width="137" x="42.5" y="416.6178"/><rect fill="#FEFECE" height="10" style="stroke:#A80036;stroke-width:1.5;" width="15" x="159.5" y="421.6178"/><rect fill="#FEFECE" height="2" style="stroke:#A80036;stroke-width:1.5;" width="4" x="157.5" y="423.6178"/><rect fill="#FEFECE" height="2" style="stroke:#A80036;stroke-width:1.5;" width="4" x="157.5" y="427.6178"/><text fill="#000000" font-family="sans-serif" font-size="14" lengthAdjust="spacing" textLength="97" x="57.5" y="451.5838">CSV / UCI Data</text><!--MD5=[d5b45c8b0274f0bd032f9fa02440ab36]
entity TR--><rect fill="#FEFECE" filter="url(#fe3nk8y8jdi47)" height="68.1358" style="stroke:#A80036;stroke-width:1.5;" width="161" x="385.5" y="260.1178"/><rect fill="#FEFECE" height="10" style="stroke:#A80036;stroke-width:1.5;" width="15" x="526.5" y="265.1178"/><rect fill="#FEFECE" height="2" style="stroke:#A80036;stroke-width:1.5;" width="4" x="524.5" y="267.1178"/><rect fill="#FEFECE" height="2" style="stroke:#A80036;stroke-width:1.5;" width="4" x="524.5" y="271.1178"/><text fill="#000000" font-family="sans-serif" font-size="14" lengthAdjust="spacing" textLength="98" x="400.5" y="295.0838">TorqueRunner</text><text fill="#000000" font-family="sans-serif" font-size="14" lengthAdjust="spacing" textLength="121" x="400.5" y="314.1517">Torque_runner.py</text><!--MD5=[c6ddddda358f072e4f19aa798de5fbe9]
entity TM--><rect fill="#FEFECE" filter="url(#fe3nk8y8jdi47)" height="68.1358" style="stroke:#A80036;stroke-width:1.5;" width="167" x="384.5" y="407.1178"/><rect fill="#FEFECE" height="10" style="stroke:#A80036;stroke-width:1.5;" width="15" x="531.5" y="412.1178"/><rect fill="#FEFECE" height="2" style="stroke:#A80036;stroke-width:1.5;" width="4" x="529.5" y="414.1178"/><rect fill="#FEFECE" height="2" style="stroke:#A80036;stroke-width:1.5;" width="4" x="529.5" y="418.1178"/><text fill="#000000" font-family="sans-serif" font-size="14" lengthAdjust="spacing" textLength="101" x="399.5" y="442.0838">TorqueMapper</text><text fill="#000000" font-family="sans-serif" font-size="14" lengthAdjust="spacing" textLength="127" x="399.5" y="461.1517">Torque_mapper.py</text><!--MD5=[c01552aeb07e95759ece564214fd0bdc]
entity Compiler--><rect fill="#FEFECE" filter="url(#fe3nk8y8jdi47)" height="68.1358" style="stroke:#A80036;stroke-width:1.5;" width="119" x="385.5" y="554.1178"/><rect fill="#FEFECE" height="10" style="stroke:#A80036;stroke-width:1.5;" width="15" x="484.5" y="559.1178"/><rect fill="#FEFECE" height="2" style="stroke:#A80036;stroke-width:1.5;" width="4" x="482.5" y="561.1178"/><rect fill="#FEFECE" height="2" style="stroke:#A80036;stroke-width:1.5;" width="4" x="482.5" y="565.1178"/><text fill="#000000" font-family="sans-serif" font-size="14" lengthAdjust="spacing" textLength="61" x="400.5" y="589.0838">Compiler</text><text fill="#000000" font-family="sans-serif" font-size="14" lengthAdjust="spacing" textLength="79" x="400.5" y="608.1517">compiler.py</text><!--MD5=[4deb7753515de286d568fa33f0a2fe6f]
entity Registry--><rect fill="#FEFECE" filter="url(#fe3nk8y8jdi47)" height="68.1358" style="stroke:#A80036;stroke-width:1.5;" width="112" x="385" y="719.1178"/><rect fill="#FEFECE" height="10" style="stroke:#A80036;stroke-width:1.5;" width="15" x="477" y="724.1178"/><rect fill="#FEFECE" height="2" style="stroke:#A80036;stroke-width:1.5;" width="4" x="475" y="726.1178"/><rect fill="#FEFECE" height="2" style="stroke:#A80036;stroke-width:1.5;" width="4" x="475" y="730.1178"/><text fill="#000000" font-family="sans-serif" font-size="14" lengthAdjust="spacing" textLength="55" x="400" y="754.0838">Registry</text><text fill="#000000" font-family="sans-serif" font-size="14" lengthAdjust="spacing" textLength="72" x="400" y="773.1517">registry.py</text><!--MD5=[4d6cbbb34eaa45afafaf6dd58e31a055]
link RunnerUI to Loader--><path d="M333.2,111.9078 C264.34,121.6478 160.9,140.5878 134,169.1178 C112.67,191.7478 107.93,227.4378 107.93,254.7278 " fill="none" id="RunnerUI-to-Loader" style="stroke:#A80036;stroke-width:1.0;"/><polygon fill="#A80036" points="107.99,260.0678,111.8869,251.0227,107.9329,255.0682,103.8874,251.1141,107.99,260.0678" style="stroke:#A80036;stroke-width:1.0;"/><text fill="#000000" font-family="sans-serif" font-size="13" lengthAdjust="spacing" textLength="142" x="186" y="184.0148">build_X_y_from_frames,</text><text fill="#000000" font-family="sans-serif" font-size="13" lengthAdjust="spacing" textLength="244" x="135" y="201.7209">fetch_ucirepo, sample_stratified_by_class</text><!--MD5=[f6658b470591170f5d3553e119a3180c]
link Loader to DataSource--><path d="M111,328.3878 C111,353.4178 111,387.3678 111,411.2578 " fill="none" id="Loader-to-DataSource" style="stroke:#A80036;stroke-width:1.0;"/><polygon fill="#A80036" points="111,416.4978,115,407.4978,111,411.4978,107,407.4978,111,416.4978" style="stroke:#A80036;stroke-width:1.0;"/><!--MD5=[03f43401fbf82707d1179df234de5197]
link RunnerUI to TR--><path d="M389.99,137.2378 C387.12,157.6878 386.08,184.1178 394,206.1178 C400.62,224.4978 412.99,241.7478 425.64,255.9678 " fill="none" id="RunnerUI-to-TR" style="stroke:#A80036;stroke-width:1.0;"/><polygon fill="#A80036" points="429.21,259.8878,426.1247,250.5347,425.8502,256.1849,420.2,255.9104,429.21,259.8878" style="stroke:#A80036;stroke-width:1.0;"/><text fill="#000000" font-family="sans-serif" font-size="13" lengthAdjust="spacing" textLength="96" x="395" y="193.0148">run_dsl(dsl, X, y)</text><!--MD5=[72ff11d28189131b85231c7841f14103]
link TR to RunnerUI--><path d="M486.36,259.8678 C499.44,233.9078 511.36,197.5778 496,169.1178 C488.76,155.7078 477.42,144.6078 464.95,135.6178 " fill="none" id="TR-to-RunnerUI" style="stroke:#A80036;stroke-width:1.0;"/><polygon fill="#A80036" points="460.68,132.6478,465.777,141.0752,464.7822,135.5065,470.3509,134.5117,460.68,132.6478" style="stroke:#A80036;stroke-width:1.0;"/><text fill="#000000" font-family="sans-serif" font-size="13" lengthAdjust="spacing" textLength="78" x="544.5" y="184.0148">metrics JSON</text><text fill="#000000" font-family="sans-serif" font-size="13" lengthAdjust="spacing" textLength="159" x="504" y="201.7209">(confusion matrix, reports)</text><!--MD5=[2167c3df9f0825e197f681700f7df08e]
link TR to TM--><path d="M466.46,328.3878 C466.76,350.3078 467.16,379.0678 467.47,401.9278 " fill="none" id="TR-to-TM" style="stroke:#A80036;stroke-width:1.0;"/><polygon fill="#A80036" points="467.54,407.0078,471.4369,397.9627,467.4829,402.0082,463.4374,398.0541,467.54,407.0078" style="stroke:#A80036;stroke-width:1.0;"/><text fill="#000000" font-family="sans-serif" font-size="13" lengthAdjust="spacing" textLength="115" x="468" y="373.0148">export_to_json(dsl)</text><!--MD5=[6cfce05c7c8ad9275dc93027216b8976]
link TM to Compiler--><path d="M462.72,475.3878 C459.25,497.3078 454.68,526.0678 451.06,548.9278 " fill="none" id="TM-to-Compiler" style="stroke:#A80036;stroke-width:1.0;"/><polygon fill="#A80036" points="450.25,554.0078,455.5936,545.7346,451.0232,549.068,447.6899,544.4975,450.25,554.0078" style="stroke:#A80036;stroke-width:1.0;"/><text fill="#000000" font-family="sans-serif" font-size="13" lengthAdjust="spacing" textLength="116" x="459" y="520.0148">compile nested AST</text><!--MD5=[f52f69d7169993b3a54da8075d9a45e6]
link Compiler to Registry--><path d="M444.18,622.4978 C443.53,649.0678 442.62,686.2578 441.94,713.9978 " fill="none" id="Compiler-to-Registry" style="stroke:#A80036;stroke-width:1.0;"/><polygon fill="#A80036" points="441.81,719.0578,446.04,710.1636,441.9385,714.0595,438.0427,709.958,441.81,719.0578" style="stroke:#A80036;stroke-width:1.0;"/><text fill="#000000" font-family="sans-serif" font-size="13" lengthAdjust="spacing" textLength="108" x="455" y="667.0148">MODEL_REGISTRY</text><text fill="#000000" font-family="sans-serif" font-size="13" lengthAdjust="spacing" textLength="128" x="445" y="684.7209">ENSEMBLE_REGISTRY</text><!--MD5=[4e6d64b62e812aa0497e61f9946abd6c]
@startuml
title Runner structure - main components

package "UI" {
  [Runner Page\n2_test.py] as RunnerUI
}

package "Data" {
  [Dataset Loader\ndataset_loader.py] as Loader
  [CSV / UCI Data] as DataSource
}

package "Core Execution" {
  [TorqueRunner\nTorque_runner.py] as TR
  [TorqueMapper\nTorque_mapper.py] as TM
  [Compiler\ncompiler.py] as Compiler
  [Registry\nregistry.py] as Registry
}

RunnerUI - -> Loader : build_X_y_from_frames,\nfetch_ucirepo, sample_stratified_by_class
Loader - -> DataSource

RunnerUI - -> TR : run_dsl(dsl, X, y)
TR - -> TM : export_to_json(dsl)
TM - -> Compiler : compile nested AST
Compiler - -> Registry : MODEL_REGISTRY\nENSEMBLE_REGISTRY

TR - -> RunnerUI : metrics JSON\n(confusion matrix, reports)

@enduml

PlantUML version 1.2021.00(Sun Jan 10 10:25:05 GMT 2021)
(MIT source distribution)
Java Runtime: OpenJDK Runtime Environment
JVM: OpenJDK 64-Bit Server VM
Default Encoding: UTF-8
Language: en
Country: US
--></g></svg>