<?xml version="1.0" encoding="UTF-8" standalone="no"?><svg xmlns="http://www.w3.org/2000/svg" xmlns:xlink="http://www.w3.org/1999/xlink" contentScriptType="application/ecmascript" contentStyleType="text/css" height="837px" preserveAspectRatio="none" style="width:1190px;height:837px;" version="1.1" viewBox="0 0 1190 837" width="1190px" zoomAndPan="magnify"><defs><filter height="300%" id="f1u8r2769nqd1u" width="300%" x="-1" y="-1"><feGaussianBlur result="blurOut" stdDeviation="2.0"/><feColorMatrix in="blurOut" result="blurOut2" type="matrix" values="0 0 0 0 0 0 0 0 0 0 0 0 0 0 0 0 0 0 .4 0"/><feOffset dx="4.0" dy="4.0" in="blurOut2" result="blurOut3"/><feBlend in="SourceGraphic" in2="blurOut3" mode="normal"/></filter></defs><g><text fill="#000000" font-family="sans-serif" font-size="18" lengthAdjust="spacing" textLength="334" x="421.5" y="19.2419">Evolution structure - main components</text><!--MD5=[9681dc6e01e10c6b4fe06895ae94f592]
cluster UI--><polygon fill="#FFFFFF" filter="url(#f1u8r2769nqd1u)" points="502,31.1178,524,31.1178,531,56.1857,674,56.1857,674,153.1178,502,153.1178,502,31.1178" style="stroke:#000000;stroke-width:1.5;"/><line style="stroke:#000000;stroke-width:1.5;" x1="502" x2="531" y1="56.1857" y2="56.1857"/><text fill="#000000" font-family="sans-serif" font-size="14" font-weight="bold" lengthAdjust="spacing" textLength="16" x="506" y="48.0838">UI</text><!--MD5=[7fc138c4594c50e52424414d7476cb5f]
cluster Config--><polygon fill="#FFFFFF" filter="url(#f1u8r2769nqd1u)" points="16,257.1178,67,257.1178,74,282.1857,278,282.1857,278,379.1178,16,379.1178,16,257.1178" style="stroke:#000000;stroke-width:1.5;"/><line style="stroke:#000000;stroke-width:1.5;" x1="16" x2="74" y1="282.1857" y2="282.1857"/><text fill="#000000" font-family="sans-serif" font-size="14" font-weight="bold" lengthAdjust="spacing" textLength="45" x="20" y="274.0838">Config</text><!--MD5=[f21b1f164e99c6b37934f23ad048ad54]
cluster Data--><polygon fill="#FFFFFF" filter="url(#f1u8r2769nqd1u)" points="302,257.1178,340,257.1178,347,282.1857,492,282.1857,492,560.6178,302,560.6178,302,257.1178" style="stroke:#000000;stroke-width:1.5;"/><line style="stroke:#000000;stroke-width:1.5;" x1="302" x2="347" y1="282.1857" y2="282.1857"/><text fill="#000000" font-family="sans-serif" font-size="14" font-weight="bold" lengthAdjust="spacing" textLength="32" x="306" y="274.0838">Data</text><!--MD5=[513568b654b189bf3b7dad3be4590e9b]
cluster Grammar & GE--><polygon fill="#FFFFFF" filter="url(#f1u8r2769nqd1u)" points="521,257.1178,630,257.1178,637,282.1857,900,282.1857,900,570.1178,521,570.1178,521,257.1178" style="stroke:#000000;stroke-width:1.5;"/><line style="stroke:#000000;stroke-width:1.5;" x1="521" x2="637" y1="282.1857" y2="282.1857"/><text fill="#000000" font-family="sans-serif" font-size="14" font-weight="bold" lengthAdjust="spacing" textLength="103" x="525" y="274.0838">Grammar &amp; GE</text><!--MD5=[da9aecba9d0d962678cd087fe99a44d3]
cluster Core DSL--><polygon fill="#FFFFFF" filter="url(#f1u8r2769nqd1u)" points="924,448.1178,992,448.1178,999,473.1857,1122,473.1857,1122,830.1178,924,830.1178,924,448.1178" style="stroke:#000000;stroke-width:1.5;"/><line style="stroke:#000000;stroke-width:1.5;" x1="924" x2="999" y1="473.1857" y2="473.1857"/><text fill="#000000" font-family="sans-serif" font-size="14" font-weight="bold" lengthAdjust="spacing" textLength="62" x="928" y="465.0838">Core DSL</text><!--MD5=[9b19363d7d5bcd0327a14fcc96b289d5]
cluster Results--><polygon fill="#FFFFFF" filter="url(#f1u8r2769nqd1u)" points="934,257.1178,990,257.1178,997,282.1857,1138,282.1857,1138,379.1178,934,379.1178,934,257.1178" style="stroke:#000000;stroke-width:1.5;"/><line style="stroke:#000000;stroke-width:1.5;" x1="934" x2="997" y1="282.1857" y2="282.1857"/><text fill="#000000" font-family="sans-serif" font-size="14" font-weight="bold" lengthAdjust="spacing" textLength="50" x="938" y="274.0838">Results</text><!--MD5=[d1d23d7e1f2496803f7df53350c39a80]
entity EvoUI--><rect fill="#FEFECE" filter="url(#f1u8r2769nqd1u)" height="68.1358" style="stroke:#A80036;stroke-width:1.5;" width="139" x="518.5" y="69.1178"/><rect fill="#FEFECE" height="10" style="stroke:#A80036;stroke-width:1.5;" width="15" x="637.5" y="74.1178"/><rect fill="#FEFECE" height="2" style="stroke:#A80036;stroke-width:1.5;" width="4" x="635.5" y="76.1178"/><rect fill="#FEFECE" height="2" style="stroke:#A80036;stroke-width:1.5;" width="4" x="635.5" y="80.1178"/><text fill="#000000" font-family="sans-serif" font-size="14" lengthAdjust="spacing" textLength="99" x="533.5" y="104.0838">Evolution Page</text><text fill="#000000" font-family="sans-serif" font-size="14" lengthAdjust="spacing" textLength="96" x="533.5" y="123.1517">3_evolution.py</text><!--MD5=[86cc3e5ea8675cfa0c09bb879883a7f3]
entity EvoConfig--><rect fill="#FEFECE" filter="url(#f1u8r2769nqd1u)" height="68.1358" style="stroke:#A80036;stroke-width:1.5;" width="229" x="32.5" y="295.1178"/><rect fill="#FEFECE" height="10" style="stroke:#A80036;stroke-width:1.5;" width="15" x="241.5" y="300.1178"/><rect fill="#FEFECE" height="2" style="stroke:#A80036;stroke-width:1.5;" width="4" x="239.5" y="302.1178"/><rect fill="#FEFECE" height="2" style="stroke:#A80036;stroke-width:1.5;" width="4" x="239.5" y="306.1178"/><text fill="#000000" font-family="sans-serif" font-size="14" lengthAdjust="spacing" textLength="110" x="47.5" y="330.0838">Evolution Config</text><text fill="#000000" font-family="sans-serif" font-size="14" lengthAdjust="spacing" textLength="189" x="47.5" y="349.1517">config/evolution_config.json</text><!--MD5=[e9afd8dee7f22e3497c63b001e7f1ac7]
entity Loader--><rect fill="#FEFECE" filter="url(#f1u8r2769nqd1u)" height="68.1358" style="stroke:#A80036;stroke-width:1.5;" width="159" x="317.5" y="295.1178"/><rect fill="#FEFECE" height="10" style="stroke:#A80036;stroke-width:1.5;" width="15" x="456.5" y="300.1178"/><rect fill="#FEFECE" height="2" style="stroke:#A80036;stroke-width:1.5;" width="4" x="454.5" y="302.1178"/><rect fill="#FEFECE" height="2" style="stroke:#A80036;stroke-width:1.5;" width="4" x="454.5" y="306.1178"/><text fill="#000000" font-family="sans-serif" font-size="14" lengthAdjust="spacing" textLength="101" x="332.5" y="330.0838">Dataset Loader</text><text fill="#000000" font-family="sans-serif" font-size="14" lengthAdjust="spacing" textLength="119" x="332.5" y="349.1517">dataset_loader.py</text><!--MD5=[cafb66fbc5844cdcb58d84cde512b4ee]
entity DataSource--><rect fill="#FEFECE" filter="url(#f1u8r2769nqd1u)" height="49.0679" style="stroke:#A80036;stroke-width:1.5;" width="137" x="328.5" y="495.6178"/><rect fill="#FEFECE" height="10" style="stroke:#A80036;stroke-width:1.5;" width="15" x="445.5" y="500.6178"/><rect fill="#FEFECE" height="2" style="stroke:#A80036;stroke-width:1.5;" width="4" x="443.5" y="502.6178"/><rect fill="#FEFECE" height="2" style="stroke:#A80036;stroke-width:1.5;" width="4" x="443.5" y="506.6178"/><text fill="#000000" font-family="sans-serif" font-size="14" lengthAdjust="spacing" textLength="97" x="343.5" y="530.5838">CSV / UCI Data</text><!--MD5=[7642f318d6d2a8288c8b08f01eada685]
entity GrammarFile--><rect fill="#FEFECE" filter="url(#f1u8r2769nqd1u)" height="68.1358" style="stroke:#A80036;stroke-width:1.5;" width="270" x="537" y="486.1178"/><rect fill="#FEFECE" height="10" style="stroke:#A80036;stroke-width:1.5;" width="15" x="787" y="491.1178"/><rect fill="#FEFECE" height="2" style="stroke:#A80036;stroke-width:1.5;" width="4" x="785" y="493.1178"/><rect fill="#FEFECE" height="2" style="stroke:#A80036;stroke-width:1.5;" width="4" x="785" y="497.1178"/><text fill="#000000" font-family="sans-serif" font-size="14" lengthAdjust="spacing" textLength="122" x="552" y="521.0838">BNF Grammar File</text><text fill="#000000" font-family="sans-serif" font-size="14" lengthAdjust="spacing" textLength="230" x="552" y="540.1517">grammar/ensamble_grammar.bnf</text><!--MD5=[4c1396d1e45578ac1db9f657971c6264]
entity BNFGrammar--><rect fill="#FEFECE" filter="url(#f1u8r2769nqd1u)" height="68.1358" style="stroke:#A80036;stroke-width:1.5;" width="154" x="537" y="295.1178"/><rect fill="#FEFECE" height="10" style="stroke:#A80036;stroke-width:1.5;" width="15" x="671" y="300.1178"/><rect fill="#FEFECE" height="2" style="stroke:#A80036;stroke-width:1.5;" width="4" x="669" y="302.1178"/><rect fill="#FEFECE" height="2" style="stroke:#A80036;stroke-width:1.5;" width="4" x="669" y="306.1178"/><text fill="#000000" font-family="sans-serif" font-size="14" lengthAdjust="spacing" textLength="114" x="552" y="330.0838">Grammar Loader</text><text fill="#000000" font-family="sans-serif" font-size="14" lengthAdjust="spacing" textLength="101" x="552" y="349.1517">Grammar class</text><!--MD5=[38d7c869583251a8098d842e36db289c]
entity GE--><rect fill="#FEFECE" filter="url(#f1u8r2769nqd1u)" height="68.1358" style="stroke:#A80036;stroke-width:1.5;" width="157" x="726.5" y="295.1178"/><rect fill="#FEFECE" height="10" style="stroke:#A80036;stroke-width:1.5;" width="15" x="863.5" y="300.1178"/><rect fill="#FEFECE" height="2" style="stroke:#A80036;stroke-width:1.5;" width="4" x="861.5" y="302.1178"/><rect fill="#FEFECE" height="2" style="stroke:#A80036;stroke-width:1.5;" width="4" x="861.5" y="306.1178"/><text fill="#000000" font-family="sans-serif" font-size="14" lengthAdjust="spacing" textLength="96" x="741.5" y="330.0838">GE Algorithms</text><text fill="#000000" font-family="sans-serif" font-size="14" lengthAdjust="spacing" textLength="117" x="741.5" y="349.1517">grape.algorithms</text><!--MD5=[c6ddddda358f072e4f19aa798de5fbe9]
entity TM--><rect fill="#FEFECE" filter="url(#f1u8r2769nqd1u)" height="68.1358" style="stroke:#A80036;stroke-width:1.5;" width="167" x="939.5" y="486.1178"/><rect fill="#FEFECE" height="10" style="stroke:#A80036;stroke-width:1.5;" width="15" x="1086.5" y="491.1178"/><rect fill="#FEFECE" height="2" style="stroke:#A80036;stroke-width:1.5;" width="4" x="1084.5" y="493.1178"/><rect fill="#FEFECE" height="2" style="stroke:#A80036;stroke-width:1.5;" width="4" x="1084.5" y="497.1178"/><text fill="#000000" font-family="sans-serif" font-size="14" lengthAdjust="spacing" textLength="101" x="954.5" y="521.0838">TorqueMapper</text><text fill="#000000" font-family="sans-serif" font-size="14" lengthAdjust="spacing" textLength="127" x="954.5" y="540.1517">Torque_mapper.py</text><!--MD5=[c01552aeb07e95759ece564214fd0bdc]
entity Compiler--><rect fill="#FEFECE" filter="url(#f1u8r2769nqd1u)" height="68.1358" style="stroke:#A80036;stroke-width:1.5;" width="119" x="963.5" y="617.1178"/><rect fill="#FEFECE" height="10" style="stroke:#A80036;stroke-width:1.5;" width="15" x="1062.5" y="622.1178"/><rect fill="#FEFECE" height="2" style="stroke:#A80036;stroke-width:1.5;" width="4" x="1060.5" y="624.1178"/><rect fill="#FEFECE" height="2" style="stroke:#A80036;stroke-width:1.5;" width="4" x="1060.5" y="628.1178"/><text fill="#000000" font-family="sans-serif" font-size="14" lengthAdjust="spacing" textLength="61" x="978.5" y="652.0838">Compiler</text><text fill="#000000" font-family="sans-serif" font-size="14" lengthAdjust="spacing" textLength="79" x="978.5" y="671.1517">compiler.py</text><!--MD5=[4deb7753515de286d568fa33f0a2fe6f]
entity Registry--><rect fill="#FEFECE" filter="url(#f1u8r2769nqd1u)" height="68.1358" style="stroke:#A80036;stroke-width:1.5;" width="112" x="967" y="746.1178"/><rect fill="#FEFECE" height="10" style="stroke:#A80036;stroke-width:1.5;" width="15" x="1059" y="751.1178"/><rect fill="#FEFECE" height="2" style="stroke:#A80036;stroke-width:1.5;" width="4" x="1057" y="753.1178"/><rect fill="#FEFECE" height="2" style="stroke:#A80036;stroke-width:1.5;" width="4" x="1057" y="757.1178"/><text fill="#000000" font-family="sans-serif" font-size="14" lengthAdjust="spacing" textLength="55" x="982" y="781.0838">Registry</text><text fill="#000000" font-family="sans-serif" font-size="14" lengthAdjust="spacing" textLength="72" x="982" y="800.1517">registry.py</text><!--MD5=[592a26111d2de2c830a109c9b24f40af]
entity EvoResults--><rect fill="#FEFECE" filter="url(#f1u8r2769nqd1u)" height="68.1358" style="stroke:#A80036;stroke-width:1.5;" width="172" x="950" y="295.1178"/><rect fill="#FEFECE" height="10" style="stroke:#A80036;stroke-width:1.5;" width="15" x="1102" y="300.1178"/><rect fill="#FEFECE" height="2" style="stroke:#A80036;stroke-width:1.5;" width="4" x="1100" y="302.1178"/><rect fill="#FEFECE" height="2" style="stroke:#A80036;stroke-width:1.5;" width="4" x="1100" y="306.1178"/><text fill="#000000" font-family="sans-serif" font-size="14" lengthAdjust="spacing" textLength="100" x="965" y="330.0838">Evolution Runs</text><text fill="#000000" font-family="sans-serif" font-size="14" lengthAdjust="spacing" textLength="132" x="965" y="349.1517">results/evolution_*/</text><!--MD5=[c01257a599ebfdc5eebddafe29656926]
link EvoUI to EvoConfig--><path d="M518.4,103.9978 C449.13,106.9478 342.27,120.0778 265,169.1178 C218.61,198.5578 184.15,253.2078 164.81,290.1178 " fill="none" id="EvoUI-to-EvoConfig" style="stroke:#A80036;stroke-width:1.0;"/><polygon fill="#A80036" points="162.29,294.9778,169.9798,288.8243,164.5887,290.5375,162.8754,285.1464,162.29,294.9778" style="stroke:#A80036;stroke-width:1.0;"/><text fill="#000000" font-family="sans-serif" font-size="13" lengthAdjust="spacing" textLength="118" x="266" y="201.5148">read GA/GE/dataset</text><text fill="#000000" font-family="sans-serif" font-size="13" lengthAdjust="spacing" textLength="72" x="289" y="219.2209">and bounds</text><!--MD5=[5ebbf3d0d6dccecd456e433af015fde2]
link EvoUI to Loader--><path d="M518.39,113.6178 C482.93,122.1578 442.28,138.3678 418,169.1178 C391.11,203.1678 389.17,254.6878 391.78,289.7778 " fill="none" id="EvoUI-to-Loader" style="stroke:#A80036;stroke-width:1.0;"/><polygon fill="#A80036" points="392.19,294.8378,395.431,285.5375,391.776,289.855,387.4585,286.2,392.19,294.8378" style="stroke:#A80036;stroke-width:1.0;"/><text fill="#000000" font-family="sans-serif" font-size="13" lengthAdjust="spacing" textLength="155" x="419" y="210.5148">load_dataset_from_config</text><!--MD5=[f6658b470591170f5d3553e119a3180c]
link Loader to DataSource--><path d="M397,363.4678 C397,399.3878 397,455.9378 397,490.0778 " fill="none" id="Loader-to-DataSource" style="stroke:#A80036;stroke-width:1.0;"/><polygon fill="#A80036" points="397,495.3578,401,486.3578,397,490.3578,393,486.3578,397,495.3578" style="stroke:#A80036;stroke-width:1.0;"/><!--MD5=[c0642b5a8fea2091abf75c683d7faeea]
link EvoUI to BNFGrammar--><path d="M586.18,137.1778 C585.69,147.4078 585.24,158.7278 585,169.1178 C584.26,201.1078 579.87,209.5278 585,241.1178 C587.66,257.4978 592.96,274.9578 598.31,289.9078 " fill="none" id="EvoUI-to-BNFGrammar" style="stroke:#A80036;stroke-width:1.0;"/><polygon fill="#A80036" points="600.12,294.8778,600.7939,285.0521,598.4067,290.1805,593.2782,287.7933,600.12,294.8778" style="stroke:#A80036;stroke-width:1.0;"/><text fill="#000000" font-family="sans-serif" font-size="13" lengthAdjust="spacing" textLength="223" x="586" y="210.5148">load BNFGrammar(GRAMMAR_PATH)</text><!--MD5=[446bc7cb02cb99881a3ab9e9d6ede465]
link BNFGrammar to GrammarFile--><path d="M624.24,363.4678 C634.34,396.3978 649.77,446.6878 660.34,481.1378 " fill="none" id="BNFGrammar-to-GrammarFile" style="stroke:#A80036;stroke-width:1.0;"/><polygon fill="#A80036" points="661.87,486.0978,663.0669,476.322,660.4096,481.3158,655.4158,478.6586,661.87,486.0978" style="stroke:#A80036;stroke-width:1.0;"/><!--MD5=[ea55022d3af92c027ccb506dfdd26561]
link EvoUI to GE--><path d="M657.75,114.8378 C716.89,125.5278 795.06,143.9678 814,169.1178 C839.92,203.5378 830.95,254.9678 819.96,289.9478 " fill="none" id="EvoUI-to-GE" style="stroke:#A80036;stroke-width:1.0;"/><polygon fill="#A80036" points="818.33,294.9878,824.9114,287.6608,819.8725,290.2317,817.3017,285.1928,818.33,294.9878" style="stroke:#A80036;stroke-width:1.0;"/><text fill="#000000" font-family="sans-serif" font-size="13" lengthAdjust="spacing" textLength="141" x="832" y="201.5148">run GE with parameters</text><text fill="#000000" font-family="sans-serif" font-size="13" lengthAdjust="spacing" textLength="79" x="863" y="219.2209">and callbacks</text><!--MD5=[a377956c2230f634c270756dbac27607]
link GE to TM--><path d="M843.22,363.2578 C881.79,396.6878 941.18,448.1778 981.03,482.7278 " fill="none" id="GE-to-TM" style="stroke:#A80036;stroke-width:1.0;"/><polygon fill="#A80036" points="984.82,486.0178,980.6257,477.1067,981.0368,482.7486,975.395,483.1598,984.82,486.0178" style="stroke:#A80036;stroke-width:1.0;"/><text fill="#000000" font-family="sans-serif" font-size="13" lengthAdjust="spacing" textLength="144" x="922" y="410.0148">map phenotypes to DSL</text><text fill="#000000" font-family="sans-serif" font-size="13" lengthAdjust="spacing" textLength="97" x="945.5" y="427.7209">and AST/Python</text><!--MD5=[6cfce05c7c8ad9275dc93027216b8976]
link TM to Compiler--><path d="M1023,554.3378 C1023,571.9478 1023,593.6478 1023,611.9478 " fill="none" id="TM-to-Compiler" style="stroke:#A80036;stroke-width:1.0;"/><polygon fill="#A80036" points="1023,617.0078,1027,608.0078,1023,612.0078,1019,608.0078,1023,617.0078" style="stroke:#A80036;stroke-width:1.0;"/><!--MD5=[f52f69d7169993b3a54da8075d9a45e6]
link Compiler to Registry--><path d="M1023,685.1578 C1023,702.0678 1023,722.7678 1023,740.4278 " fill="none" id="Compiler-to-Registry" style="stroke:#A80036;stroke-width:1.0;"/><polygon fill="#A80036" points="1023,745.8078,1027,736.8078,1023,740.8078,1019,736.8078,1023,745.8078" style="stroke:#A80036;stroke-width:1.0;"/><!--MD5=[d7c19139b7f9898f6a9894eb08dec38a]
link EvoUI to EvoResults--><path d="M657.73,107.1578 C757.5,112.8878 934.22,128.5878 982,169.1178 C1017.28,199.0478 1029.57,252.9678 1033.82,289.6378 " fill="none" id="EvoUI-to-EvoResults" style="stroke:#A80036;stroke-width:1.0;"/><polygon fill="#A80036" points="1034.39,294.9178,1037.3894,285.5368,1033.8472,289.9474,1029.4367,286.4052,1034.39,294.9178" style="stroke:#A80036;stroke-width:1.0;"/><text fill="#000000" font-family="sans-serif" font-size="13" lengthAdjust="spacing" textLength="101" x="1052.5" y="184.0148">write config.json,</text><text fill="#000000" font-family="sans-serif" font-size="13" lengthAdjust="spacing" textLength="136" x="1035" y="201.7209">run_*/generations.csv,</text><text fill="#000000" font-family="sans-serif" font-size="13" lengthAdjust="spacing" textLength="158" x="1024" y="219.4269">averaged_across_runs.csv,</text><text fill="#000000" font-family="sans-serif" font-size="13" lengthAdjust="spacing" textLength="62" x="1072" y="237.1329">chart.html</text><!--MD5=[a7cb8dd790754b95ba6610eb9aaee06f]
@startuml
title Evolution structure - main components

package "UI" {
  [Evolution Page\n3_evolution.py] as EvoUI
}

package "Config" {
  [Evolution Config\nconfig/evolution_config.json] as EvoConfig
}

package "Data" {
  [Dataset Loader\ndataset_loader.py] as Loader
  [CSV / UCI Data] as DataSource
}

package "Grammar & GE" {
  [BNF Grammar File\ngrammar/ensamble_grammar.bnf] as GrammarFile
  [Grammar Loader\nGrammar class] as BNFGrammar
  [GE Algorithms\ngrape.algorithms] as GE
}

package "Core DSL" {
  [TorqueMapper\nTorque_mapper.py] as TM
  [Compiler\ncompiler.py] as Compiler
  [Registry\nregistry.py] as Registry
}

package "Results" {
  [Evolution Runs\nresults/evolution_*/] as EvoResults
}

EvoUI - -> EvoConfig : read GA/GE/dataset\nand bounds
EvoUI - -> Loader : load_dataset_from_config
Loader - -> DataSource

EvoUI - -> BNFGrammar : load BNFGrammar(GRAMMAR_PATH)
BNFGrammar - -> GrammarFile

EvoUI - -> GE : run GE with parameters\nand callbacks
GE - -> TM : map phenotypes to DSL\nand AST/Python
TM - -> Compiler
Compiler - -> Registry

EvoUI - -> EvoResults : write config.json,\nrun_*/generations.csv,\naveraged_across_runs.csv,\nchart.html

@enduml

PlantUML version 1.2021.00(Sun Jan 10 10:25:05 GMT 2021)
(MIT source distribution)
Java Runtime: OpenJDK Runtime Environment
JVM: OpenJDK 64-Bit Server VM
Default Encoding: UTF-8
Language: en
Country: US
--></g></svg>