<?xml version="1.0" encoding="UTF-8" standalone="no"?><svg xmlns="http://www.w3.org/2000/svg" xmlns:xlink="http://www.w3.org/1999/xlink" contentScriptType="application/ecmascript" contentStyleType="text/css" height="890px" preserveAspectRatio="none" style="width:1243px;height:890px;" version="1.1" viewBox="0 0 1243 890" width="1243px" zoomAndPan="magnify"><defs><filter height="300%" id="fp8tewifa5n0c" width="300%" x="-1" y="-1"><feGaussianBlur result="blurOut" stdDeviation="2.0"/><feColorMatrix in="blurOut" result="blurOut2" type="matrix" values="0 0 0 0 0 0 0 0 0 0 0 0 0 0 0 0 0 0 .4 0"/><feOffset dx="4.0" dy="4.0" in="blurOut2" result="blurOut3"/><feBlend in="SourceGraphic" in2="blurOut3" mode="normal"/></filter></defs><g><text fill="#000000" font-family="sans-serif" font-size="18" lengthAdjust="spacing" textLength="334" x="448" y="19.2419">Evolution structure - main components</text><!--MD5=[9681dc6e01e10c6b4fe06895ae94f592]
cluster UI--><polygon fill="#FFFFFF" filter="url(#fp8tewifa5n0c)" points="502,31.1178,524,31.1178,531,56.1857,674,56.1857,674,153.1178,502,153.1178,502,31.1178" style="stroke:#000000;stroke-width:1.5;"/><line style="stroke:#000000;stroke-width:1.5;" x1="502" x2="531" y1="56.1857" y2="56.1857"/><text fill="#000000" font-family="sans-serif" font-size="14" font-weight="bold" lengthAdjust="spacing" textLength="16" x="506" y="48.0838">UI</text><!--MD5=[7fc138c4594c50e52424414d7476cb5f]
cluster Config--><polygon fill="#FFFFFF" filter="url(#fp8tewifa5n0c)" points="16,310.1178,67,310.1178,74,335.1857,278,335.1857,278,432.1178,16,432.1178,16,310.1178" style="stroke:#000000;stroke-width:1.5;"/><line style="stroke:#000000;stroke-width:1.5;" x1="16" x2="74" y1="335.1857" y2="335.1857"/><text fill="#000000" font-family="sans-serif" font-size="14" font-weight="bold" lengthAdjust="spacing" textLength="45" x="20" y="327.0838">Config</text><!--MD5=[f21b1f164e99c6b37934f23ad048ad54]
cluster Data--><polygon fill="#FFFFFF" filter="url(#fp8tewifa5n0c)" points="302,310.1178,340,310.1178,347,335.1857,492,335.1857,492,613.6178,302,613.6178,302,310.1178" style="stroke:#000000;stroke-width:1.5;"/><line style="stroke:#000000;stroke-width:1.5;" x1="302" x2="347" y1="335.1857" y2="335.1857"/><text fill="#000000" font-family="sans-serif" font-size="14" font-weight="bold" lengthAdjust="spacing" textLength="32" x="306" y="327.0838">Data</text><!--MD5=[513568b654b189bf3b7dad3be4590e9b]
cluster Grammar & GE--><polygon fill="#FFFFFF" filter="url(#fp8tewifa5n0c)" points="521,310.1178,630,310.1178,637,335.1857,900,335.1857,900,623.1178,521,623.1178,521,310.1178" style="stroke:#000000;stroke-width:1.5;"/><line style="stroke:#000000;stroke-width:1.5;" x1="521" x2="637" y1="335.1857" y2="335.1857"/><text fill="#000000" font-family="sans-serif" font-size="14" font-weight="bold" lengthAdjust="spacing" textLength="103" x="525" y="327.0838">Grammar &amp; GE</text><!--MD5=[da9aecba9d0d962678cd087fe99a44d3]
cluster Core DSL--><polygon fill="#FFFFFF" filter="url(#fp8tewifa5n0c)" points="924,501.1178,992,501.1178,999,526.1857,1122,526.1857,1122,883.1178,924,883.1178,924,501.1178" style="stroke:#000000;stroke-width:1.5;"/><line style="stroke:#000000;stroke-width:1.5;" x1="924" x2="999" y1="526.1857" y2="526.1857"/><text fill="#000000" font-family="sans-serif" font-size="14" font-weight="bold" lengthAdjust="spacing" textLength="62" x="928" y="518.0838">Core DSL</text><!--MD5=[9b19363d7d5bcd0327a14fcc96b289d5]
cluster Results--><polygon fill="#FFFFFF" filter="url(#fp8tewifa5n0c)" points="934,310.1178,990,310.1178,997,335.1857,1138,335.1857,1138,432.1178,934,432.1178,934,310.1178" style="stroke:#000000;stroke-width:1.5;"/><line style="stroke:#000000;stroke-width:1.5;" x1="934" x2="997" y1="335.1857" y2="335.1857"/><text fill="#000000" font-family="sans-serif" font-size="14" font-weight="bold" lengthAdjust="spacing" textLength="50" x="938" y="327.0838">Results</text><!--MD5=[d1d23d7e1f2496803f7df53350c39a80]
entity EvoUI--><rect fill="#FEFECE" filter="url(#fp8tewifa5n0c)" height="68.1358" style="stroke:#A80036;stroke-width:1.5;" width="139" x="518.5" y="69.1178"/><rect fill="#FEFECE" height="10" style="stroke:#A80036;stroke-width:1.5;" width="15" x="637.5" y="74.1178"/><rect fill="#FEFECE" height="2" style="stroke:#A80036;stroke-width:1.5;" width="4" x="635.5" y="76.1178"/><rect fill="#FEFECE" height="2" style="stroke:#A80036;stroke-width:1.5;" width="4" x="635.5" y="80.1178"/><text fill="#000000" font-family="sans-serif" font-size="14" lengthAdjust="spacing" textLength="99" x="533.5" y="104.0838">Evolution Page</text><text fill="#000000" font-family="sans-serif" font-size="14" lengthAdjust="spacing" textLength="96" x="533.5" y="123.1517">3_evolution.py</text><!--MD5=[86cc3e5ea8675cfa0c09bb879883a7f3]
entity EvoConfig--><rect fill="#FEFECE" filter="url(#fp8tewifa5n0c)" height="68.1358" style="stroke:#A80036;stroke-width:1.5;" width="229" x="32.5" y="348.1178"/><rect fill="#FEFECE" height="10" style="stroke:#A80036;stroke-width:1.5;" width="15" x="241.5" y="353.1178"/><rect fill="#FEFECE" height="2" style="stroke:#A80036;stroke-width:1.5;" width="4" x="239.5" y="355.1178"/><rect fill="#FEFECE" height="2" style="stroke:#A80036;stroke-width:1.5;" width="4" x="239.5" y="359.1178"/><text fill="#000000" font-family="sans-serif" font-size="14" lengthAdjust="spacing" textLength="110" x="47.5" y="383.0838">Evolution Config</text><text fill="#000000" font-family="sans-serif" font-size="14" lengthAdjust="spacing" textLength="189" x="47.5" y="402.1517">config/evolution_config.json</text><!--MD5=[e9afd8dee7f22e3497c63b001e7f1ac7]
entity Loader--><rect fill="#FEFECE" filter="url(#fp8tewifa5n0c)" height="68.1358" style="stroke:#A80036;stroke-width:1.5;" width="159" x="317.5" y="348.1178"/><rect fill="#FEFECE" height="10" style="stroke:#A80036;stroke-width:1.5;" width="15" x="456.5" y="353.1178"/><rect fill="#FEFECE" height="2" style="stroke:#A80036;stroke-width:1.5;" width="4" x="454.5" y="355.1178"/><rect fill="#FEFECE" height="2" style="stroke:#A80036;stroke-width:1.5;" width="4" x="454.5" y="359.1178"/><text fill="#000000" font-family="sans-serif" font-size="14" lengthAdjust="spacing" textLength="101" x="332.5" y="383.0838">Dataset Loader</text><text fill="#000000" font-family="sans-serif" font-size="14" lengthAdjust="spacing" textLength="119" x="332.5" y="402.1517">dataset_loader.py</text><!--MD5=[cafb66fbc5844cdcb58d84cde512b4ee]
entity DataSource--><rect fill="#FEFECE" filter="url(#fp8tewifa5n0c)" height="49.0679" style="stroke:#A80036;stroke-width:1.5;" width="137" x="328.5" y="548.6178"/><rect fill="#FEFECE" height="10" style="stroke:#A80036;stroke-width:1.5;" width="15" x="445.5" y="553.6178"/><rect fill="#FEFECE" height="2" style="stroke:#A80036;stroke-width:1.5;" width="4" x="443.5" y="555.6178"/><rect fill="#FEFECE" height="2" style="stroke:#A80036;stroke-width:1.5;" width="4" x="443.5" y="559.6178"/><text fill="#000000" font-family="sans-serif" font-size="14" lengthAdjust="spacing" textLength="97" x="343.5" y="583.5838">CSV / UCI Data</text><!--MD5=[7642f318d6d2a8288c8b08f01eada685]
entity GrammarFile--><rect fill="#FEFECE" filter="url(#fp8tewifa5n0c)" height="68.1358" style="stroke:#A80036;stroke-width:1.5;" width="270" x="537" y="539.1178"/><rect fill="#FEFECE" height="10" style="stroke:#A80036;stroke-width:1.5;" width="15" x="787" y="544.1178"/><rect fill="#FEFECE" height="2" style="stroke:#A80036;stroke-width:1.5;" width="4" x="785" y="546.1178"/><rect fill="#FEFECE" height="2" style="stroke:#A80036;stroke-width:1.5;" width="4" x="785" y="550.1178"/><text fill="#000000" font-family="sans-serif" font-size="14" lengthAdjust="spacing" textLength="122" x="552" y="574.0838">BNF Grammar File</text><text fill="#000000" font-family="sans-serif" font-size="14" lengthAdjust="spacing" textLength="230" x="552" y="593.1517">grammar/ensamble_grammar.bnf</text><!--MD5=[4c1396d1e45578ac1db9f657971c6264]
entity BNFGrammar--><rect fill="#FEFECE" filter="url(#fp8tewifa5n0c)" height="68.1358" style="stroke:#A80036;stroke-width:1.5;" width="154" x="537" y="348.1178"/><rect fill="#FEFECE" height="10" style="stroke:#A80036;stroke-width:1.5;" width="15" x="671" y="353.1178"/><rect fill="#FEFECE" height="2" style="stroke:#A80036;stroke-width:1.5;" width="4" x="669" y="355.1178"/><rect fill="#FEFECE" height="2" style="stroke:#A80036;stroke-width:1.5;" width="4" x="669" y="359.1178"/><text fill="#000000" font-family="sans-serif" font-size="14" lengthAdjust="spacing" textLength="114" x="552" y="383.0838">Grammar Loader</text><text fill="#000000" font-family="sans-serif" font-size="14" lengthAdjust="spacing" textLength="101" x="552" y="402.1517">Grammar class</text><!--MD5=[38d7c869583251a8098d842e36db289c]
entity GE--><rect fill="#FEFECE" filter="url(#fp8tewifa5n0c)" height="68.1358" style="stroke:#A80036;stroke-width:1.5;" width="157" x="726.5" y="348.1178"/><rect fill="#FEFECE" height="10" style="stroke:#A80036;stroke-width:1.5;" width="15" x="863.5" y="353.1178"/><rect fill="#FEFECE" height="2" style="stroke:#A80036;stroke-width:1.5;" width="4" x="861.5" y="355.1178"/><rect fill="#FEFECE" height="2" style="stroke:#A80036;stroke-width:1.5;" width="4" x="861.5" y="359.1178"/><text fill="#000000" font-family="sans-serif" font-size="14" lengthAdjust="spacing" textLength="96" x="741.5" y="383.0838">GE Algorithms</text><text fill="#000000" font-family="sans-serif" font-size="14" lengthAdjust="spacing" textLength="117" x="741.5" y="402.1517">grape.algorithms</text><!--MD5=[c6ddddda358f072e4f19aa798de5fbe9]
entity TM--><rect fill="#FEFECE" filter="url(#fp8tewifa5n0c)" height="68.1358" style="stroke:#A80036;stroke-width:1.5;" width="167" x="939.5" y="539.1178"/><rect fill="#FEFECE" height="10" style="stroke:#A80036;stroke-width:1.5;" width="15" x="1086.5" y="544.1178"/><rect fill="#FEFECE" height="2" style="stroke:#A80036;stroke-width:1.5;" width="4" x="1084.5" y="546.1178"/><rect fill="#FEFECE" height="2" style="stroke:#A80036;stroke-width:1.5;" width="4" x="1084.5" y="550.1178"/><text fill="#000000" font-family="sans-serif" font-size="14" lengthAdjust="spacing" textLength="101" x="954.5" y="574.0838">TorqueMapper</text><text fill="#000000" font-family="sans-serif" font-size="14" lengthAdjust="spacing" textLength="127" x="954.5" y="593.1517">Torque_mapper.py</text><!--MD5=[c01552aeb07e95759ece564214fd0bdc]
entity Compiler--><rect fill="#FEFECE" filter="url(#fp8tewifa5n0c)" height="68.1358" style="stroke:#A80036;stroke-width:1.5;" width="119" x="963.5" y="670.1178"/><rect fill="#FEFECE" height="10" style="stroke:#A80036;stroke-width:1.5;" width="15" x="1062.5" y="675.1178"/><rect fill="#FEFECE" height="2" style="stroke:#A80036;stroke-width:1.5;" width="4" x="1060.5" y="677.1178"/><rect fill="#FEFECE" height="2" style="stroke:#A80036;stroke-width:1.5;" width="4" x="1060.5" y="681.1178"/><text fill="#000000" font-family="sans-serif" font-size="14" lengthAdjust="spacing" textLength="61" x="978.5" y="705.0838">Compiler</text><text fill="#000000" font-family="sans-serif" font-size="14" lengthAdjust="spacing" textLength="79" x="978.5" y="724.1517">compiler.py</text><!--MD5=[4deb7753515de286d568fa33f0a2fe6f]
entity Registry--><rect fill="#FEFECE" filter="url(#fp8tewifa5n0c)" height="68.1358" style="stroke:#A80036;stroke-width:1.5;" width="112" x="967" y="799.1178"/><rect fill="#FEFECE" height="10" style="stroke:#A80036;stroke-width:1.5;" width="15" x="1059" y="804.1178"/><rect fill="#FEFECE" height="2" style="stroke:#A80036;stroke-width:1.5;" width="4" x="1057" y="806.1178"/><rect fill="#FEFECE" height="2" style="stroke:#A80036;stroke-width:1.5;" width="4" x="1057" y="810.1178"/><text fill="#000000" font-family="sans-serif" font-size="14" lengthAdjust="spacing" textLength="55" x="982" y="834.0838">Registry</text><text fill="#000000" font-family="sans-serif" font-size="14" lengthAdjust="spacing" textLength="72" x="982" y="853.1517">registry.py</text><!--MD5=[592a26111d2de2c830a109c9b24f40af]
entity EvoResults--><rect fill="#FEFECE" filter="url(#fp8tewifa5n0c)" height="68.1358" style="stroke:#A80036;stroke-width:1.5;" width="172" x="950" y="348.1178"/><rect fill="#FEFECE" height="10" style="stroke:#A80036;stroke-width:1.5;" width="15" x="1102" y="353.1178"/><rect fill="#FEFECE" height="2" style="stroke:#A80036;stroke-width:1.5;" width="4" x="1100" y="355.1178"/><rect fill="#FEFECE" height="2" style="stroke:#A80036;stroke-width:1.5;" width="4" x="1100" y="359.1178"/><text fill="#000000" font-family="sans-serif" font-size="14" lengthAdjust="spacing" textLength="100" x="965" y="383.0838">Evolution Runs</text><text fill="#000000" font-family="sans-serif" font-size="14" lengthAdjust="spacing" textLength="132" x="965" y="402.1517">results/evolution_*/</text><!--MD5=[c01257a599ebfdc5eebddafe29656926]
link EvoUI to EvoConfig--><path d="M518.37,110.5978 C433.55,119.6978 296.55,138.6378 256,169.1178 C198.43,212.3978 168.76,294.7978 155.66,343.1378 " fill="none" id="EvoUI-to-EvoConfig" style="stroke:#A80036;stroke-width:1.0;"/><polygon fill="#A80036" points="154.37,347.9978,160.5511,340.3301,155.6565,343.1662,152.8204,338.2716,154.37,347.9978" style="stroke:#A80036;stroke-width:1.0;"/><text fill="#000000" font-family="sans-serif" font-size="13" lengthAdjust="spacing" textLength="118" x="257" y="228.0148">read GA/GE/dataset</text><text fill="#000000" font-family="sans-serif" font-size="13" lengthAdjust="spacing" textLength="72" x="280" y="245.7209">and bounds</text><!--MD5=[5ebbf3d0d6dccecd456e433af015fde2]
link EvoUI to Loader--><path d="M518.35,112.4478 C481.69,120.6378 439.4,136.8878 415,169.1178 C377,219.3078 381.62,296.6378 388.95,342.7178 " fill="none" id="EvoUI-to-Loader" style="stroke:#A80036;stroke-width:1.0;"/><polygon fill="#A80036" points="389.81,347.9078,392.2894,338.3762,388.995,342.9747,384.3964,339.6802,389.81,347.9078" style="stroke:#A80036;stroke-width:1.0;"/><text fill="#000000" font-family="sans-serif" font-size="13" lengthAdjust="spacing" textLength="155" x="416" y="237.0148">load_dataset_from_config</text><!--MD5=[f6658b470591170f5d3553e119a3180c]
link Loader to DataSource--><path d="M397,416.4678 C397,452.3878 397,508.9378 397,543.0778 " fill="none" id="Loader-to-DataSource" style="stroke:#A80036;stroke-width:1.0;"/><polygon fill="#A80036" points="397,548.3578,401,539.3578,397,543.3578,393,539.3578,397,548.3578" style="stroke:#A80036;stroke-width:1.0;"/><!--MD5=[c0642b5a8fea2091abf75c683d7faeea]
link EvoUI to BNFGrammar--><path d="M583.96,137.3278 C580.14,175.4478 576.17,239.7378 585,294.1178 C587.66,310.4978 592.96,327.9578 598.31,342.9078 " fill="none" id="EvoUI-to-BNFGrammar" style="stroke:#A80036;stroke-width:1.0;"/><polygon fill="#A80036" points="600.12,347.8778,600.7939,338.0521,598.4067,343.1805,593.2782,340.7933,600.12,347.8778" style="stroke:#A80036;stroke-width:1.0;"/><text fill="#000000" font-family="sans-serif" font-size="13" lengthAdjust="spacing" textLength="223" x="586" y="237.0148">load BNFGrammar(GRAMMAR_PATH)</text><!--MD5=[446bc7cb02cb99881a3ab9e9d6ede465]
link BNFGrammar to GrammarFile--><path d="M624.24,416.4678 C634.34,449.3978 649.77,499.6878 660.34,534.1378 " fill="none" id="BNFGrammar-to-GrammarFile" style="stroke:#A80036;stroke-width:1.0;"/><polygon fill="#A80036" points="661.87,539.0978,663.0669,529.322,660.4096,534.3158,655.4158,531.6586,661.87,539.0978" style="stroke:#A80036;stroke-width:1.0;"/><!--MD5=[ea55022d3af92c027ccb506dfdd26561]
link EvoUI to GE--><path d="M657.75,114.8378 C716.89,125.5278 795.06,143.9678 814,169.1178 C851.84,219.3778 835.19,296.9278 819.91,342.9878 " fill="none" id="EvoUI-to-GE" style="stroke:#A80036;stroke-width:1.0;"/><polygon fill="#A80036" points="818.25,347.8978,824.917,340.6486,819.8483,343.1602,817.3367,338.0914,818.25,347.8978" style="stroke:#A80036;stroke-width:1.0;"/><text fill="#000000" font-family="sans-serif" font-size="13" lengthAdjust="spacing" textLength="141" x="839" y="228.0148">run GE with parameters</text><text fill="#000000" font-family="sans-serif" font-size="13" lengthAdjust="spacing" textLength="79" x="870" y="245.7209">and callbacks</text><!--MD5=[a377956c2230f634c270756dbac27607]
link GE to TM--><path d="M843.22,416.2578 C881.79,449.6878 941.18,501.1778 981.03,535.7278 " fill="none" id="GE-to-TM" style="stroke:#A80036;stroke-width:1.0;"/><polygon fill="#A80036" points="984.82,539.0178,980.6257,530.1067,981.0368,535.7486,975.395,536.1598,984.82,539.0178" style="stroke:#A80036;stroke-width:1.0;"/><text fill="#000000" font-family="sans-serif" font-size="13" lengthAdjust="spacing" textLength="144" x="922" y="463.0148">map phenotypes to DSL</text><text fill="#000000" font-family="sans-serif" font-size="13" lengthAdjust="spacing" textLength="97" x="945.5" y="480.7209">and AST/Python</text><!--MD5=[6cfce05c7c8ad9275dc93027216b8976]
link TM to Compiler--><path d="M1023,607.3378 C1023,624.9478 1023,646.6478 1023,664.9478 " fill="none" id="TM-to-Compiler" style="stroke:#A80036;stroke-width:1.0;"/><polygon fill="#A80036" points="1023,670.0078,1027,661.0078,1023,665.0078,1019,661.0078,1023,670.0078" style="stroke:#A80036;stroke-width:1.0;"/><!--MD5=[f52f69d7169993b3a54da8075d9a45e6]
link Compiler to Registry--><path d="M1023,738.1578 C1023,755.0678 1023,775.7678 1023,793.4278 " fill="none" id="Compiler-to-Registry" style="stroke:#A80036;stroke-width:1.0;"/><polygon fill="#A80036" points="1023,798.8078,1027,789.8078,1023,793.8078,1019,789.8078,1023,798.8078" style="stroke:#A80036;stroke-width:1.0;"/><!--MD5=[d7c19139b7f9898f6a9894eb08dec38a]
link EvoUI to EvoResults--><path d="M657.87,106.2478 C759.84,110.8278 942.4,125.1178 989,169.1178 C1036.48,213.9378 1041.23,295.1478 1039.33,342.9878 " fill="none" id="EvoUI-to-EvoResults" style="stroke:#A80036;stroke-width:1.0;"/><polygon fill="#A80036" points="1039.1,348.0878,1043.508,339.2805,1039.329,343.0931,1035.5164,338.9141,1039.1,348.0878" style="stroke:#A80036;stroke-width:1.0;"/><text fill="#000000" font-family="sans-serif" font-size="13" lengthAdjust="spacing" textLength="101" x="1086" y="184.0148">write config.json,</text><text fill="#000000" font-family="sans-serif" font-size="13" lengthAdjust="spacing" textLength="146" x="1063.5" y="201.7209">run_*/evolution_log.csv,</text><text fill="#000000" font-family="sans-serif" font-size="13" lengthAdjust="spacing" textLength="197" x="1038" y="219.4269">run_*/averaged_across_runs.csv,</text><text fill="#000000" font-family="sans-serif" font-size="13" lengthAdjust="spacing" textLength="191" x="1041" y="237.1329">run_*/evolution_individuals.csv,</text><text fill="#000000" font-family="sans-serif" font-size="13" lengthAdjust="spacing" textLength="142" x="1065.5" y="254.8389">run_*/model_cache.csv,</text><text fill="#000000" font-family="sans-serif" font-size="13" lengthAdjust="spacing" textLength="147" x="1063" y="272.5449">run_*/evolution_live.log,</text><text fill="#000000" font-family="sans-serif" font-size="13" lengthAdjust="spacing" textLength="101" x="1086" y="290.2509">run_*/chart.html</text><!--MD5=[d4d45fb32ff1df42bc79abeae6aadf92]
@startuml
title Evolution structure - main components

package "UI" {
  [Evolution Page\n3_evolution.py] as EvoUI
}

package "Config" {
  [Evolution Config\nconfig/evolution_config.json] as EvoConfig
}

package "Data" {
  [Dataset Loader\ndataset_loader.py] as Loader
  [CSV / UCI Data] as DataSource
}

package "Grammar & GE" {
  [BNF Grammar File\ngrammar/ensamble_grammar.bnf] as GrammarFile
  [Grammar Loader\nGrammar class] as BNFGrammar
  [GE Algorithms\ngrape.algorithms] as GE
}

package "Core DSL" {
  [TorqueMapper\nTorque_mapper.py] as TM
  [Compiler\ncompiler.py] as Compiler
  [Registry\nregistry.py] as Registry
}

package "Results" {
  [Evolution Runs\nresults/evolution_*/] as EvoResults
}

EvoUI - -> EvoConfig : read GA/GE/dataset\nand bounds
EvoUI - -> Loader : load_dataset_from_config
Loader - -> DataSource

EvoUI - -> BNFGrammar : load BNFGrammar(GRAMMAR_PATH)
BNFGrammar - -> GrammarFile

EvoUI - -> GE : run GE with parameters\nand callbacks
GE - -> TM : map phenotypes to DSL\nand AST/Python
TM - -> Compiler
Compiler - -> Registry

EvoUI - -> EvoResults : write config.json,\nrun_*/evolution_log.csv,\nrun_*/averaged_across_runs.csv,\nrun_*/evolution_individuals.csv,\nrun_*/model_cache.csv,\nrun_*/evolution_live.log,\nrun_*/chart.html

@enduml

PlantUML version 1.2021.00(Sun Jan 10 10:25:05 GMT 2021)
(MIT source distribution)
Java Runtime: OpenJDK Runtime Environment
JVM: OpenJDK 64-Bit Server VM
Default Encoding: UTF-8
Language: en
Country: US
--></g></svg>