<?xml version="1.0" encoding="UTF-8" standalone="no"?><svg xmlns="http://www.w3.org/2000/svg" xmlns:xlink="http://www.w3.org/1999/xlink" contentScriptType="application/ecmascript" contentStyleType="text/css" height="553px" preserveAspectRatio="none" style="width:744px;height:553px;" version="1.1" viewBox="0 0 744 553" width="744px" zoomAndPan="magnify"><defs><filter height="300%" id="f1puemqfw1uic9" width="300%" x="-1" y="-1"><feGaussianBlur result="blurOut" stdDeviation="2.0"/><feColorMatrix in="blurOut" result="blurOut2" type="matrix" values="0 0 0 0 0 0 0 0 0 0 0 0 0 0 0 0 0 0 .4 0"/><feOffset dx="4.0" dy="4.0" in="blurOut2" result="blurOut3"/><feBlend in="SourceGraphic" in2="blurOut3" mode="normal"/></filter></defs><g><text fill="#000000" font-family="sans-serif" font-size="18" lengthAdjust="spacing" textLength="285" x="223" y="19.2419">Torque DSL - System Architecture</text><!--MD5=[a1fe7363db7b0ab934a7630e0aacd9fc]
cluster Grammar--><polygon fill="#FFFFFF" filter="url(#f1puemqfw1uic9)" points="16,31.1178,88,31.1178,95,56.1857,403,56.1857,403,130.1178,16,130.1178,16,31.1178" style="stroke:#000000;stroke-width:1.5;"/><line style="stroke:#000000;stroke-width:1.5;" x1="16" x2="95" y1="56.1857" y2="56.1857"/><text fill="#000000" font-family="sans-serif" font-size="14" font-weight="bold" lengthAdjust="spacing" textLength="66" x="20" y="48.0838">Grammar</text><!--MD5=[e012f972f019d0f7836d3226899874dc]
cluster Parser--><polygon fill="#FFFFFF" filter="url(#f1puemqfw1uic9)" points="47,181.1178,97,181.1178,104,206.1857,378,206.1857,378,425.1178,47,425.1178,47,181.1178" style="stroke:#000000;stroke-width:1.5;"/><line style="stroke:#000000;stroke-width:1.5;" x1="47" x2="104" y1="206.1857" y2="206.1857"/><text fill="#000000" font-family="sans-serif" font-size="14" font-weight="bold" lengthAdjust="spacing" textLength="44" x="51" y="198.0838">Parser</text><!--MD5=[a68892f09945723877df40cdc2ddc224]
cluster Compiler--><polygon fill="#FFFFFF" filter="url(#f1puemqfw1uic9)" points="402,329.1178,471,329.1178,478,354.1857,727,354.1857,727,546.1178,402,546.1178,402,329.1178" style="stroke:#000000;stroke-width:1.5;"/><line style="stroke:#000000;stroke-width:1.5;" x1="402" x2="478" y1="354.1857" y2="354.1857"/><text fill="#000000" font-family="sans-serif" font-size="14" font-weight="bold" lengthAdjust="spacing" textLength="63" x="406" y="346.0838">Compiler</text><!--MD5=[f1b9accdb39545bff5220a9c5ba12722]
entity Grammar--><rect fill="#FEFECE" filter="url(#f1puemqfw1uic9)" height="39.0679" style="stroke:#000000;stroke-width:1.5;" width="154" x="32" y="72.1178"/><text fill="#000000" font-family="sans-serif" font-size="14" lengthAdjust="spacing" textLength="134" x="42" y="97.0838">Grammar Definition</text><path d="M221,69.1178 L221,87.6178 L186.31,91.6178 L221,95.6178 L221,114.5299 A0,0 0 0 0 221,114.5299 L387,114.5299 A0,0 0 0 0 387,114.5299 L387,79.1178 L377,69.1178 L221,69.1178 A0,0 0 0 0 221,69.1178 " fill="#FBFB77" filter="url(#f1puemqfw1uic9)" style="stroke:#A80036;stroke-width:1.0;"/><path d="M377,69.1178 L377,79.1178 L387,79.1178 L377,69.1178 " fill="#FBFB77" style="stroke:#A80036;stroke-width:1.0;"/><text fill="#000000" font-family="sans-serif" font-size="13" lengthAdjust="spacing" textLength="145" x="227" y="88.0148">Defines DSL syntax rules</text><text fill="#000000" font-family="sans-serif" font-size="13" lengthAdjust="spacing" textLength="125" x="227" y="105.7209">and production rules</text><!--MD5=[b8966a4a60ec894312d4f55fd40cce21]
entity Parser--><rect fill="#FEFECE" filter="url(#f1puemqfw1uic9)" height="39.0679" style="stroke:#000000;stroke-width:1.5;" width="92" x="63" y="222.1178"/><text fill="#000000" font-family="sans-serif" font-size="14" lengthAdjust="spacing" textLength="72" x="73" y="247.0838">DSL Parser</text><!--MD5=[e6af9b54498f9626a4d612954af2c766]
entity AST--><rect fill="#FEFECE" filter="url(#f1puemqfw1uic9)" height="39.0679" style="stroke:#000000;stroke-width:1.5;" width="45" x="86.5" y="370.1178"/><text fill="#000000" font-family="sans-serif" font-size="14" lengthAdjust="spacing" textLength="25" x="96.5" y="395.0838">AST</text><path d="M190.5,219.1178 L190.5,237.6178 L155.32,241.6178 L190.5,245.6178 L190.5,264.5299 A0,0 0 0 0 190.5,264.5299 L361.5,264.5299 A0,0 0 0 0 361.5,264.5299 L361.5,229.1178 L351.5,219.1178 L190.5,219.1178 A0,0 0 0 0 190.5,219.1178 " fill="#FBFB77" filter="url(#f1puemqfw1uic9)" style="stroke:#A80036;stroke-width:1.0;"/><path d="M351.5,219.1178 L351.5,229.1178 L361.5,229.1178 L351.5,219.1178 " fill="#FBFB77" style="stroke:#A80036;stroke-width:1.0;"/><text fill="#000000" font-family="sans-serif" font-size="13" lengthAdjust="spacing" textLength="92" x="196.5" y="238.0148">Parses DSL text</text><text fill="#000000" font-family="sans-serif" font-size="13" lengthAdjust="spacing" textLength="150" x="196.5" y="255.7209">into Abstract Syntax Tree</text><!--MD5=[c01552aeb07e95759ece564214fd0bdc]
entity Compiler--><rect fill="#FEFECE" filter="url(#f1puemqfw1uic9)" height="39.0679" style="stroke:#000000;stroke-width:1.5;" width="110" x="418" y="370.1178"/><text fill="#000000" font-family="sans-serif" font-size="14" lengthAdjust="spacing" textLength="90" x="428" y="395.0838">AST Compiler</text><!--MD5=[8404609364f0db4bc0d004610372b560]
entity Estimators--><rect fill="#FEFECE" filter="url(#f1puemqfw1uic9)" height="39.0679" style="stroke:#000000;stroke-width:1.5;" width="144" x="455" y="491.1178"/><text fill="#000000" font-family="sans-serif" font-size="14" lengthAdjust="spacing" textLength="124" x="465" y="516.0838">sklearn Estimators</text><path d="M563,367.1178 L563,385.6178 L528.09,389.6178 L563,393.6178 L563,412.5299 A0,0 0 0 0 563,412.5299 L711,412.5299 A0,0 0 0 0 711,412.5299 L711,377.1178 L701,367.1178 L563,367.1178 A0,0 0 0 0 563,367.1178 " fill="#FBFB77" filter="url(#f1puemqfw1uic9)" style="stroke:#A80036;stroke-width:1.0;"/><path d="M701,367.1178 L701,377.1178 L711,377.1178 L701,367.1178 " fill="#FBFB77" style="stroke:#A80036;stroke-width:1.0;"/><text fill="#000000" font-family="sans-serif" font-size="13" lengthAdjust="spacing" textLength="80" x="569" y="386.0148">Compiles AST</text><text fill="#000000" font-family="sans-serif" font-size="13" lengthAdjust="spacing" textLength="127" x="569" y="403.7209">to scikit-learn models</text><!--MD5=[882075581c4ef7c0d80690f96d72e313]
link Parser to AST--><path codeLine="16" d="M109,261.4078 C109,287.7978 109,335.8478 109,364.7378 " fill="none" id="Parser-to-AST" style="stroke:#A80036;stroke-width:1.0;"/><polygon fill="#A80036" points="109,369.8978,113,360.8978,109,364.8978,105,360.8978,109,369.8978" style="stroke:#A80036;stroke-width:1.0;"/><text fill="#000000" font-family="sans-serif" font-size="13" lengthAdjust="spacing" textLength="56" x="110" y="309.0148">produces</text><!--MD5=[136dda7538ffe5b6a5119dcacd8e27cf]
link Compiler to Estimators--><path codeLine="26" d="M463.41,409.2178 C457.2,423.9978 451.68,444.8278 460,461.1178 C465.54,471.9678 474.77,480.9578 484.64,488.1278 " fill="none" id="Compiler-to-Estimators" style="stroke:#A80036;stroke-width:1.0;"/><polygon fill="#A80036" points="488.9,491.0878,483.803,482.6605,484.7978,488.2292,479.2291,489.224,488.9,491.0878" style="stroke:#A80036;stroke-width:1.0;"/><text fill="#000000" font-family="sans-serif" font-size="13" lengthAdjust="spacing" textLength="60" x="461" y="457.0148">generates</text><!--MD5=[136dda7538ffe5b6a5119dcacd8e27cf]
link Compiler to Estimators--><path codeLine="35" d="M499.6,409.1178 C509.84,417.8278 520.41,429.1578 526,442.1178 C531.9,455.7978 532.19,472.5378 530.98,485.9178 " fill="none" id="Compiler-to-Estimators-1" style="stroke:#A80036;stroke-width:1.0;"/><polygon fill="#A80036" points="530.43,491.0578,535.3591,482.5312,530.9586,486.0859,527.404,481.6854,530.43,491.0578" style="stroke:#A80036;stroke-width:1.0;"/><text fill="#000000" font-family="sans-serif" font-size="13" lengthAdjust="spacing" textLength="66" x="531" y="457.0148">ML models</text><!--MD5=[95f14a3317e89803627f1dbda442309c]
link Grammar to Parser--><path codeLine="33" d="M109,111.3578 C109,138.1578 109,187.4278 109,216.7878 " fill="none" id="Grammar-to-Parser" style="stroke:#A80036;stroke-width:1.0;"/><polygon fill="#A80036" points="109,222.0278,113,213.0278,109,217.0278,105,213.0278,109,222.0278" style="stroke:#A80036;stroke-width:1.0;"/><text fill="#000000" font-family="sans-serif" font-size="13" lengthAdjust="spacing" textLength="61" x="110" y="161.0148">DSL string</text><!--MD5=[ed40a7008728363d5793a2746bb513bb]
link Parser to Compiler--><path codeLine="34" d="M155.05,258.4078 C161.07,260.3778 167.17,262.3278 173,264.1178 C263.41,291.8478 292.62,280.4578 378,321.1178 C403.3,333.1678 429.04,351.9378 447.33,366.6378 " fill="none" id="Parser-to-Compiler" style="stroke:#A80036;stroke-width:1.0;"/><polygon fill="#A80036" points="451.35,369.8878,446.9032,361.1,447.4751,366.7279,441.8473,367.2998,451.35,369.8878" style="stroke:#A80036;stroke-width:1.0;"/><text fill="#000000" font-family="sans-serif" font-size="13" lengthAdjust="spacing" textLength="22" x="359" y="309.0148">AST</text><!--MD5=[d4825cf0d4806188cdd4832654db3587]
@startuml
allowmixing

title Torque DSL - System Architecture

package Grammar {
  rectangle "Grammar Definition" as Grammar
  note right of Grammar
    Defines DSL syntax rules
    and production rules
  end note
}

package Parser {
  rectangle "DSL Parser" as Parser
  rectangle "AST" as AST
  Parser - -> AST : produces
  note right of Parser
    Parses DSL text
    into Abstract Syntax Tree
  end note
}

package Compiler {
  rectangle "AST Compiler" as Compiler
  rectangle "sklearn Estimators" as Estimators
  Compiler - -> Estimators : generates
  note right of Compiler
    Compiles AST
    to scikit-learn models
  end note
}

Grammar - -> Parser : DSL string
Parser - -> Compiler : AST
Compiler - -> Estimators : ML models

@enduml

PlantUML version 1.2021.00(Sun Jan 10 10:25:05 GMT 2021)
(MIT source distribution)
Java Runtime: OpenJDK Runtime Environment
JVM: OpenJDK 64-Bit Server VM
Default Encoding: UTF-8
Language: en
Country: US
--></g></svg>