<?xml version="1.0" encoding="UTF-8" standalone="no"?><svg xmlns="http://www.w3.org/2000/svg" xmlns:xlink="http://www.w3.org/1999/xlink" contentScriptType="application/ecmascript" contentStyleType="text/css" height="1245px" preserveAspectRatio="none" style="width:1584px;height:1245px;" version="1.1" viewBox="0 0 1584 1245" width="1584px" zoomAndPan="magnify"><defs><filter height="300%" id="f15juc8b28y4rb" width="300%" x="-1" y="-1"><feGaussianBlur result="blurOut" stdDeviation="2.0"/><feColorMatrix in="blurOut" result="blurOut2" type="matrix" values="0 0 0 0 0 0 0 0 0 0 0 0 0 0 0 0 0 0 .4 0"/><feOffset dx="4.0" dy="4.0" in="blurOut2" result="blurOut3"/><feBlend in="SourceGraphic" in2="blurOut3" mode="normal"/></filter></defs><g><text fill="#000000" font-family="sans-serif" font-size="18" lengthAdjust="spacing" textLength="254" x="658.5" y="19.2419">Evolution system architecture</text><!--MD5=[406b65fecc21e832f7a9b6ebadc6dce1]
cluster Client--><polygon fill="#FFFFFF" filter="url(#f15juc8b28y4rb)" points="931,178.0158,977,178.0158,984,203.0838,1093,203.0838,1093,281.0158,931,281.0158,931,178.0158" style="stroke:#000000;stroke-width:1.5;"/><line style="stroke:#000000;stroke-width:1.5;" x1="931" x2="984" y1="203.0838" y2="203.0838"/><text fill="#000000" font-family="sans-serif" font-size="14" font-weight="bold" lengthAdjust="spacing" textLength="40" x="935" y="194.9818">Client</text><!--MD5=[6e0d427754a400b0d323ae1c0705a90d]
cluster Torque App (Streamlit)--><polygon fill="#FFFFFF" filter="url(#f15juc8b28y4rb)" points="775,332.0158,940,332.0158,947,357.0838,1086,357.0838,1086,601.0158,775,601.0158,775,332.0158" style="stroke:#000000;stroke-width:1.5;"/><line style="stroke:#000000;stroke-width:1.5;" x1="775" x2="947" y1="357.0838" y2="357.0838"/><text fill="#000000" font-family="sans-serif" font-size="14" font-weight="bold" lengthAdjust="spacing" textLength="159" x="779" y="348.9818">Torque App (Streamlit)</text><!--MD5=[a1f3d1d41f7e16c4649cbdda5978ac96]
cluster Config & Grammar--><polygon fill="#FFFFFF" filter="url(#f15juc8b28y4rb)" points="16,856.0158,152,856.0158,159,881.0838,583,881.0838,583,978.0158,16,978.0158,16,856.0158" style="stroke:#000000;stroke-width:1.5;"/><line style="stroke:#000000;stroke-width:1.5;" x1="16" x2="159" y1="881.0838" y2="881.0838"/><text fill="#000000" font-family="sans-serif" font-size="14" font-weight="bold" lengthAdjust="spacing" textLength="130" x="20" y="872.9818">Config &amp; Grammar</text><!--MD5=[4ffeee6453d812a484c0f5a65a4c3923]
cluster Evolution Engine--><polygon fill="#FFFFFF" filter="url(#f15juc8b28y4rb)" points="607,656.5158,730,656.5158,737,681.5838,1166,681.5838,1166,1238.0158,607,1238.0158,607,656.5158" style="stroke:#000000;stroke-width:1.5;"/><line style="stroke:#000000;stroke-width:1.5;" x1="607" x2="737" y1="681.5838" y2="681.5838"/><text fill="#000000" font-family="sans-serif" font-size="14" font-weight="bold" lengthAdjust="spacing" textLength="117" x="611" y="673.4818">Evolution Engine</text><!--MD5=[a1ee53d871c67fe32688766c0bcd2965]
cluster Data & Results--><polygon fill="#FFFFFF" filter="url(#f15juc8b28y4rb)" points="1190,856.0158,1297,856.0158,1304,881.0838,1567,881.0838,1567,978.0158,1190,978.0158,1190,856.0158" style="stroke:#000000;stroke-width:1.5;"/><line style="stroke:#000000;stroke-width:1.5;" x1="1190" x2="1304" y1="881.0838" y2="881.0838"/><text fill="#000000" font-family="sans-serif" font-size="14" font-weight="bold" lengthAdjust="spacing" textLength="101" x="1194" y="872.9818">Data &amp; Results</text><!--MD5=[e9dede37b31fdda9664526f66258b036]
entity Browser--><rect fill="#FEFECE" filter="url(#f15juc8b28y4rb)" height="49.0679" style="stroke:#A80036;stroke-width:1.5;" width="129" x="947.5" y="216.0158"/><rect fill="#FEFECE" height="10" style="stroke:#A80036;stroke-width:1.5;" width="15" x="1056.5" y="221.0158"/><rect fill="#FEFECE" height="2" style="stroke:#A80036;stroke-width:1.5;" width="4" x="1054.5" y="223.0158"/><rect fill="#FEFECE" height="2" style="stroke:#A80036;stroke-width:1.5;" width="4" x="1054.5" y="227.0158"/><text fill="#000000" font-family="sans-serif" font-size="14" lengthAdjust="spacing" textLength="89" x="962.5" y="250.9818">Web Browser</text><!--MD5=[cfbf5bfb2284cb4360c7117782840247]
entity Home--><rect fill="#FEFECE" filter="url(#f15juc8b28y4rb)" height="68.1358" style="stroke:#A80036;stroke-width:1.5;" width="116" x="954" y="370.0158"/><rect fill="#FEFECE" height="10" style="stroke:#A80036;stroke-width:1.5;" width="15" x="1050" y="375.0158"/><rect fill="#FEFECE" height="2" style="stroke:#A80036;stroke-width:1.5;" width="4" x="1048" y="377.0158"/><rect fill="#FEFECE" height="2" style="stroke:#A80036;stroke-width:1.5;" width="4" x="1048" y="381.0158"/><text fill="#000000" font-family="sans-serif" font-size="14" lengthAdjust="spacing" textLength="76" x="969" y="404.9818">Home Page</text><text fill="#000000" font-family="sans-serif" font-size="14" lengthAdjust="spacing" textLength="46" x="969" y="424.0497">app.py</text><!--MD5=[d1d23d7e1f2496803f7df53350c39a80]
entity EvoUI--><rect fill="#FEFECE" filter="url(#f15juc8b28y4rb)" height="68.1358" style="stroke:#A80036;stroke-width:1.5;" width="139" x="808.5" y="517.0158"/><rect fill="#FEFECE" height="10" style="stroke:#A80036;stroke-width:1.5;" width="15" x="927.5" y="522.0158"/><rect fill="#FEFECE" height="2" style="stroke:#A80036;stroke-width:1.5;" width="4" x="925.5" y="524.0158"/><rect fill="#FEFECE" height="2" style="stroke:#A80036;stroke-width:1.5;" width="4" x="925.5" y="528.0158"/><text fill="#000000" font-family="sans-serif" font-size="14" lengthAdjust="spacing" textLength="99" x="823.5" y="551.9818">Evolution Page</text><text fill="#000000" font-family="sans-serif" font-size="14" lengthAdjust="spacing" textLength="96" x="823.5" y="571.0497">3_evolution.py</text><!--MD5=[1bbff15fb21456d717c3a12862abd8bc]
entity RunnerUI--><rect fill="#FEFECE" filter="url(#f15juc8b28y4rb)" height="68.1358" style="stroke:#A80036;stroke-width:1.5;" width="127" x="791.5" y="370.0158"/><rect fill="#FEFECE" height="10" style="stroke:#A80036;stroke-width:1.5;" width="15" x="898.5" y="375.0158"/><rect fill="#FEFECE" height="2" style="stroke:#A80036;stroke-width:1.5;" width="4" x="896.5" y="377.0158"/><rect fill="#FEFECE" height="2" style="stroke:#A80036;stroke-width:1.5;" width="4" x="896.5" y="381.0158"/><text fill="#000000" font-family="sans-serif" font-size="14" lengthAdjust="spacing" textLength="87" x="806.5" y="404.9818">Runner Page</text><text fill="#000000" font-family="sans-serif" font-size="14" lengthAdjust="spacing" textLength="59" x="806.5" y="424.0497">2_test.py</text><!--MD5=[86cc3e5ea8675cfa0c09bb879883a7f3]
entity EvoConfig--><rect fill="#FEFECE" filter="url(#f15juc8b28y4rb)" height="68.1358" style="stroke:#A80036;stroke-width:1.5;" width="229" x="32.5" y="894.0158"/><rect fill="#FEFECE" height="10" style="stroke:#A80036;stroke-width:1.5;" width="15" x="241.5" y="899.0158"/><rect fill="#FEFECE" height="2" style="stroke:#A80036;stroke-width:1.5;" width="4" x="239.5" y="901.0158"/><rect fill="#FEFECE" height="2" style="stroke:#A80036;stroke-width:1.5;" width="4" x="239.5" y="905.0158"/><text fill="#000000" font-family="sans-serif" font-size="14" lengthAdjust="spacing" textLength="110" x="47.5" y="928.9818">Evolution Config</text><text fill="#000000" font-family="sans-serif" font-size="14" lengthAdjust="spacing" textLength="189" x="47.5" y="948.0497">config/evolution_config.json</text><!--MD5=[7642f318d6d2a8288c8b08f01eada685]
entity GrammarFile--><rect fill="#FEFECE" filter="url(#f15juc8b28y4rb)" height="68.1358" style="stroke:#A80036;stroke-width:1.5;" width="270" x="297" y="894.0158"/><rect fill="#FEFECE" height="10" style="stroke:#A80036;stroke-width:1.5;" width="15" x="547" y="899.0158"/><rect fill="#FEFECE" height="2" style="stroke:#A80036;stroke-width:1.5;" width="4" x="545" y="901.0158"/><rect fill="#FEFECE" height="2" style="stroke:#A80036;stroke-width:1.5;" width="4" x="545" y="905.0158"/><text fill="#000000" font-family="sans-serif" font-size="14" lengthAdjust="spacing" textLength="122" x="312" y="928.9818">BNF Grammar File</text><text fill="#000000" font-family="sans-serif" font-size="14" lengthAdjust="spacing" textLength="230" x="312" y="948.0497">grammar/ensamble_grammar.bnf</text><!--MD5=[e9afd8dee7f22e3497c63b001e7f1ac7]
entity Loader--><rect fill="#FEFECE" filter="url(#f15juc8b28y4rb)" height="68.1358" style="stroke:#A80036;stroke-width:1.5;" width="159" x="991.5" y="694.5158"/><rect fill="#FEFECE" height="10" style="stroke:#A80036;stroke-width:1.5;" width="15" x="1130.5" y="699.5158"/><rect fill="#FEFECE" height="2" style="stroke:#A80036;stroke-width:1.5;" width="4" x="1128.5" y="701.5158"/><rect fill="#FEFECE" height="2" style="stroke:#A80036;stroke-width:1.5;" width="4" x="1128.5" y="705.5158"/><text fill="#000000" font-family="sans-serif" font-size="14" lengthAdjust="spacing" textLength="101" x="1006.5" y="729.4818">Dataset Loader</text><text fill="#000000" font-family="sans-serif" font-size="14" lengthAdjust="spacing" textLength="119" x="1006.5" y="748.5497">dataset_loader.py</text><!--MD5=[4c1396d1e45578ac1db9f657971c6264]
entity BNFGrammar--><rect fill="#FEFECE" filter="url(#f15juc8b28y4rb)" height="68.1358" style="stroke:#A80036;stroke-width:1.5;" width="141" x="623.5" y="694.5158"/><rect fill="#FEFECE" height="10" style="stroke:#A80036;stroke-width:1.5;" width="15" x="744.5" y="699.5158"/><rect fill="#FEFECE" height="2" style="stroke:#A80036;stroke-width:1.5;" width="4" x="742.5" y="701.5158"/><rect fill="#FEFECE" height="2" style="stroke:#A80036;stroke-width:1.5;" width="4" x="742.5" y="705.5158"/><text fill="#000000" font-family="sans-serif" font-size="14" lengthAdjust="spacing" textLength="86" x="638.5" y="729.4818">GE Grammar</text><text fill="#000000" font-family="sans-serif" font-size="14" lengthAdjust="spacing" textLength="101" x="638.5" y="748.5497">Grammar class</text><!--MD5=[38d7c869583251a8098d842e36db289c]
entity GE--><rect fill="#FEFECE" filter="url(#f15juc8b28y4rb)" height="68.1358" style="stroke:#A80036;stroke-width:1.5;" width="157" x="799.5" y="694.5158"/><rect fill="#FEFECE" height="10" style="stroke:#A80036;stroke-width:1.5;" width="15" x="936.5" y="699.5158"/><rect fill="#FEFECE" height="2" style="stroke:#A80036;stroke-width:1.5;" width="4" x="934.5" y="701.5158"/><rect fill="#FEFECE" height="2" style="stroke:#A80036;stroke-width:1.5;" width="4" x="934.5" y="705.5158"/><text fill="#000000" font-family="sans-serif" font-size="14" lengthAdjust="spacing" textLength="96" x="814.5" y="729.4818">GE Algorithms</text><text fill="#000000" font-family="sans-serif" font-size="14" lengthAdjust="spacing" textLength="117" x="814.5" y="748.5497">grape.algorithms</text><!--MD5=[c6ddddda358f072e4f19aa798de5fbe9]
entity TM--><rect fill="#FEFECE" filter="url(#f15juc8b28y4rb)" height="68.1358" style="stroke:#A80036;stroke-width:1.5;" width="167" x="794.5" y="894.0158"/><rect fill="#FEFECE" height="10" style="stroke:#A80036;stroke-width:1.5;" width="15" x="941.5" y="899.0158"/><rect fill="#FEFECE" height="2" style="stroke:#A80036;stroke-width:1.5;" width="4" x="939.5" y="901.0158"/><rect fill="#FEFECE" height="2" style="stroke:#A80036;stroke-width:1.5;" width="4" x="939.5" y="905.0158"/><text fill="#000000" font-family="sans-serif" font-size="14" lengthAdjust="spacing" textLength="101" x="809.5" y="928.9818">TorqueMapper</text><text fill="#000000" font-family="sans-serif" font-size="14" lengthAdjust="spacing" textLength="127" x="809.5" y="948.0497">Torque_mapper.py</text><!--MD5=[c01552aeb07e95759ece564214fd0bdc]
entity Compiler--><rect fill="#FEFECE" filter="url(#f15juc8b28y4rb)" height="68.1358" style="stroke:#A80036;stroke-width:1.5;" width="119" x="818.5" y="1025.0158"/><rect fill="#FEFECE" height="10" style="stroke:#A80036;stroke-width:1.5;" width="15" x="917.5" y="1030.0158"/><rect fill="#FEFECE" height="2" style="stroke:#A80036;stroke-width:1.5;" width="4" x="915.5" y="1032.0158"/><rect fill="#FEFECE" height="2" style="stroke:#A80036;stroke-width:1.5;" width="4" x="915.5" y="1036.0158"/><text fill="#000000" font-family="sans-serif" font-size="14" lengthAdjust="spacing" textLength="61" x="833.5" y="1059.9818">Compiler</text><text fill="#000000" font-family="sans-serif" font-size="14" lengthAdjust="spacing" textLength="79" x="833.5" y="1079.0497">compiler.py</text><!--MD5=[4deb7753515de286d568fa33f0a2fe6f]
entity Registry--><rect fill="#FEFECE" filter="url(#f15juc8b28y4rb)" height="68.1358" style="stroke:#A80036;stroke-width:1.5;" width="112" x="822" y="1154.0158"/><rect fill="#FEFECE" height="10" style="stroke:#A80036;stroke-width:1.5;" width="15" x="914" y="1159.0158"/><rect fill="#FEFECE" height="2" style="stroke:#A80036;stroke-width:1.5;" width="4" x="912" y="1161.0158"/><rect fill="#FEFECE" height="2" style="stroke:#A80036;stroke-width:1.5;" width="4" x="912" y="1165.0158"/><text fill="#000000" font-family="sans-serif" font-size="14" lengthAdjust="spacing" textLength="55" x="837" y="1188.9818">Registry</text><text fill="#000000" font-family="sans-serif" font-size="14" lengthAdjust="spacing" textLength="72" x="837" y="1208.0497">registry.py</text><!--MD5=[cafb66fbc5844cdcb58d84cde512b4ee]
entity DataSource--><rect fill="#FEFECE" filter="url(#f15juc8b28y4rb)" height="49.0679" style="stroke:#A80036;stroke-width:1.5;" width="137" x="1206.5" y="903.5158"/><rect fill="#FEFECE" height="10" style="stroke:#A80036;stroke-width:1.5;" width="15" x="1323.5" y="908.5158"/><rect fill="#FEFECE" height="2" style="stroke:#A80036;stroke-width:1.5;" width="4" x="1321.5" y="910.5158"/><rect fill="#FEFECE" height="2" style="stroke:#A80036;stroke-width:1.5;" width="4" x="1321.5" y="914.5158"/><text fill="#000000" font-family="sans-serif" font-size="14" lengthAdjust="spacing" textLength="97" x="1221.5" y="938.4818">CSV / UCI Data</text><!--MD5=[592a26111d2de2c830a109c9b24f40af]
entity EvoResults--><rect fill="#FEFECE" filter="url(#f15juc8b28y4rb)" height="68.1358" style="stroke:#A80036;stroke-width:1.5;" width="172" x="1379" y="894.0158"/><rect fill="#FEFECE" height="10" style="stroke:#A80036;stroke-width:1.5;" width="15" x="1531" y="899.0158"/><rect fill="#FEFECE" height="2" style="stroke:#A80036;stroke-width:1.5;" width="4" x="1529" y="901.0158"/><rect fill="#FEFECE" height="2" style="stroke:#A80036;stroke-width:1.5;" width="4" x="1529" y="905.0158"/><text fill="#000000" font-family="sans-serif" font-size="14" lengthAdjust="spacing" textLength="115" x="1394" y="928.9818">Evolution Results</text><text fill="#000000" font-family="sans-serif" font-size="14" lengthAdjust="spacing" textLength="132" x="1394" y="948.0497">results/evolution_*/</text><!--MD5=[fee662a292a0353a69bd162820bae93b]
entity User--><ellipse cx="1012" cy="38.5158" fill="#FEFECE" filter="url(#f15juc8b28y4rb)" rx="8" ry="8" style="stroke:#A80036;stroke-width:1.5;"/><path d="M1012,46.5158 L1012,73.5158 M999,54.5158 L1025,54.5158 M1012,73.5158 L999,88.5158 M1012,73.5158 L1025,88.5158 " fill="none" filter="url(#f15juc8b28y4rb)" style="stroke:#A80036;stroke-width:1.5;"/><text fill="#000000" font-family="sans-serif" font-size="14" lengthAdjust="spacing" textLength="31" x="996.5" y="108.9818">User</text><!--MD5=[ec4c93e45963a154c97e3947d19a9663]
link User to Browser--><path d="M1012,113.4158 C1012,143.5758 1012,183.6658 1012,210.4658 " fill="none" id="User-to-Browser" style="stroke:#A80036;stroke-width:1.0;"/><polygon fill="#A80036" points="1012,215.6458,1016,206.6458,1012,210.6458,1008,206.6458,1012,215.6458" style="stroke:#A80036;stroke-width:1.0;"/><text fill="#000000" font-family="sans-serif" font-size="13" lengthAdjust="spacing" textLength="103" x="1013" y="157.9129">open Torque app</text><!--MD5=[3938fcd18a2facc0c88cf7bda1beea46]
link Browser to Home--><path d="M1012,265.3458 C1012,291.4758 1012,333.7758 1012,364.6058 " fill="none" id="Browser-to-Home" style="stroke:#A80036;stroke-width:1.0;"/><polygon fill="#A80036" points="1012,369.8358,1016,360.8358,1012,364.8358,1008,360.8358,1012,369.8358" style="stroke:#A80036;stroke-width:1.0;"/><text fill="#000000" font-family="sans-serif" font-size="13" lengthAdjust="spacing" textLength="26" x="1013" y="311.9129">load</text><!--MD5=[2c48c272772c66abe6c4bc913c96f7f2]
link Home to EvoUI--><path d="M981.26,438.2858 C960.66,460.5658 933.52,489.9358 912.23,512.9758 " fill="none" id="Home-to-EvoUI" style="stroke:#A80036;stroke-width:1.0;"/><polygon fill="#A80036" points="908.6,516.9058,917.6418,513.0013,911.9896,513.2302,911.7608,507.578,908.6,516.9058" style="stroke:#A80036;stroke-width:1.0;"/><text fill="#000000" font-family="sans-serif" font-size="13" lengthAdjust="spacing" textLength="190" x="954" y="482.9129">switch_page(\"3_evolution.py\")</text><!--MD5=[c01257a599ebfdc5eebddafe29656926]
link EvoUI to EvoConfig--><path d="M808.39,559.7458 C727.6,570.8058 592.04,595.9358 487,648.5158 C360.15,712.0158 238.22,830.1758 180.97,890.1058 " fill="none" id="EvoUI-to-EvoConfig" style="stroke:#A80036;stroke-width:1.0;"/><polygon fill="#A80036" points="177.29,893.9658,186.3942,890.209,180.739,890.3458,180.6022,884.6906,177.29,893.9658" style="stroke:#A80036;stroke-width:1.0;"/><text fill="#000000" font-family="sans-serif" font-size="13" lengthAdjust="spacing" textLength="118" x="488" y="724.9129">read GA/GE/dataset</text><text fill="#000000" font-family="sans-serif" font-size="13" lengthAdjust="spacing" textLength="72" x="511" y="742.6189">and bounds</text><!--MD5=[5ebbf3d0d6dccecd456e433af015fde2]
link EvoUI to Loader--><path d="M947.27,585.1458 C962.87,594.2858 978.72,605.0358 992,617.0158 C1015.22,637.9758 1035.59,666.8858 1049.83,689.8758 " fill="none" id="EvoUI-to-Loader" style="stroke:#A80036;stroke-width:1.0;"/><polygon fill="#A80036" points="1052.59,694.3958,1051.3127,684.6302,1049.9839,690.1287,1044.4853,688.7999,1052.59,694.3958" style="stroke:#A80036;stroke-width:1.0;"/><text fill="#000000" font-family="sans-serif" font-size="13" lengthAdjust="spacing" textLength="155" x="1011" y="631.9129">load_dataset_from_config</text><!--MD5=[f6658b470591170f5d3553e119a3180c]
link Loader to DataSource--><path d="M1105.15,762.5758 C1144.87,801.0358 1209.73,863.8258 1246.75,899.6658 " fill="none" id="Loader-to-DataSource" style="stroke:#A80036;stroke-width:1.0;"/><polygon fill="#A80036" points="1250.68,903.4658,1246.9961,894.3319,1247.0877,899.988,1241.4316,900.0796,1250.68,903.4658" style="stroke:#A80036;stroke-width:1.0;"/><!--MD5=[c0642b5a8fea2091abf75c683d7faeea]
link EvoUI to BNFGrammar--><path d="M823.66,585.1758 C809.79,594.7058 795.32,605.6158 783,617.0158 C759.17,639.0558 736.28,667.6958 719.69,690.2858 " fill="none" id="EvoUI-to-BNFGrammar" style="stroke:#A80036;stroke-width:1.0;"/><polygon fill="#A80036" points="716.67,694.4358,725.2006,689.5135,719.6126,690.3934,718.7326,684.8054,716.67,694.4358" style="stroke:#A80036;stroke-width:1.0;"/><text fill="#000000" font-family="sans-serif" font-size="13" lengthAdjust="spacing" textLength="85" x="784" y="631.9129">load grammar</text><!--MD5=[446bc7cb02cb99881a3ab9e9d6ede465]
link BNFGrammar to GrammarFile--><path d="M650.15,762.5758 C603.11,798.0358 528.63,854.1758 480.03,890.8058 " fill="none" id="BNFGrammar-to-GrammarFile" style="stroke:#A80036;stroke-width:1.0;"/><polygon fill="#A80036" points="476,893.8558,485.5962,891.6394,479.9948,890.849,480.7852,885.2476,476,893.8558" style="stroke:#A80036;stroke-width:1.0;"/><!--MD5=[ea55022d3af92c027ccb506dfdd26561]
link EvoUI to GE--><path d="M878,585.0258 C878,614.5958 878,657.9658 878,689.0858 " fill="none" id="EvoUI-to-GE" style="stroke:#A80036;stroke-width:1.0;"/><polygon fill="#A80036" points="878,694.3558,882,685.3558,878,689.3558,874,685.3558,878,694.3558" style="stroke:#A80036;stroke-width:1.0;"/><text fill="#000000" font-family="sans-serif" font-size="13" lengthAdjust="spacing" textLength="104" x="879" y="631.9129">run GE for n_runs</text><!--MD5=[a377956c2230f634c270756dbac27607]
link GE to TM--><path d="M878,762.5758 C878,797.3258 878,851.9358 878,888.5758 " fill="none" id="GE-to-TM" style="stroke:#A80036;stroke-width:1.0;"/><polygon fill="#A80036" points="878,893.8558,882,884.8558,878,888.8558,874,884.8558,878,893.8558" style="stroke:#A80036;stroke-width:1.0;"/><text fill="#000000" font-family="sans-serif" font-size="13" lengthAdjust="spacing" textLength="102" x="879" y="835.9129">map phenotypes</text><!--MD5=[6cfce05c7c8ad9275dc93027216b8976]
link TM to Compiler--><path d="M878,962.2358 C878,979.8458 878,1001.5458 878,1019.8458 " fill="none" id="TM-to-Compiler" style="stroke:#A80036;stroke-width:1.0;"/><polygon fill="#A80036" points="878,1024.9058,882,1015.9058,878,1019.9058,874,1015.9058,878,1024.9058" style="stroke:#A80036;stroke-width:1.0;"/><!--MD5=[f52f69d7169993b3a54da8075d9a45e6]
link Compiler to Registry--><path d="M878,1093.0558 C878,1109.9658 878,1130.6658 878,1148.3258 " fill="none" id="Compiler-to-Registry" style="stroke:#A80036;stroke-width:1.0;"/><polygon fill="#A80036" points="878,1153.7058,882,1144.7058,878,1148.7058,874,1144.7058,878,1153.7058" style="stroke:#A80036;stroke-width:1.0;"/><!--MD5=[d7c19139b7f9898f6a9894eb08dec38a]
link EvoUI to EvoResults--><path d="M947.61,555.5558 C1010.61,561.3758 1104.11,576.7058 1175,617.0158 C1296.61,686.1758 1397.33,823.2258 1441.27,889.4558 " fill="none" id="EvoUI-to-EvoResults" style="stroke:#A80036;stroke-width:1.0;"/><polygon fill="#A80036" points="1444.08,893.7158,1442.4544,884.0021,1441.323,889.5446,1435.7804,888.4133,1444.08,893.7158" style="stroke:#A80036;stroke-width:1.0;"/><text fill="#000000" font-family="sans-serif" font-size="13" lengthAdjust="spacing" textLength="101" x="1416" y="680.9129">write config.json,</text><text fill="#000000" font-family="sans-serif" font-size="13" lengthAdjust="spacing" textLength="146" x="1393.5" y="698.6189">run_*/evolution_log.csv,</text><text fill="#000000" font-family="sans-serif" font-size="13" lengthAdjust="spacing" textLength="197" x="1368" y="716.3249">run_*/averaged_across_runs.csv,</text><text fill="#000000" font-family="sans-serif" font-size="13" lengthAdjust="spacing" textLength="191" x="1371" y="734.0309">run_*/evolution_individuals.csv,</text><text fill="#000000" font-family="sans-serif" font-size="13" lengthAdjust="spacing" textLength="142" x="1395.5" y="751.7369">run_*/model_cache.csv,</text><text fill="#000000" font-family="sans-serif" font-size="13" lengthAdjust="spacing" textLength="147" x="1393" y="769.4429">run_*/evolution_live.log,</text><text fill="#000000" font-family="sans-serif" font-size="13" lengthAdjust="spacing" textLength="101" x="1416" y="787.149">run_*/chart.html</text><!--MD5=[c414fc0b26cc8cb05a46ebe18b71945f]
@startuml
title Evolution system architecture

actor User

package "Client" {
  [Web Browser] as Browser
}

package "Torque App (Streamlit)" {
  [Home Page\napp.py] as Home
  [Evolution Page\n3_evolution.py] as EvoUI
  [Runner Page\n2_test.py] as RunnerUI
}

package "Config & Grammar" {
  [Evolution Config\nconfig/evolution_config.json] as EvoConfig
  [BNF Grammar File\ngrammar/ensamble_grammar.bnf] as GrammarFile
}

package "Evolution Engine" {
  [Dataset Loader\ndataset_loader.py] as Loader
  [GE Grammar\nGrammar class] as BNFGrammar
  [GE Algorithms\ngrape.algorithms] as GE
  [TorqueMapper\nTorque_mapper.py] as TM
  [Compiler\ncompiler.py] as Compiler
  [Registry\nregistry.py] as Registry
}

package "Data & Results" {
  [CSV / UCI Data] as DataSource
  [Evolution Results\nresults/evolution_*/] as EvoResults
}

User - -> Browser : open Torque app
Browser - -> Home : load
Home - -> EvoUI : switch_page(\"3_evolution.py\")

EvoUI - -> EvoConfig : read GA/GE/dataset\nand bounds
EvoUI - -> Loader : load_dataset_from_config
Loader - -> DataSource

EvoUI - -> BNFGrammar : load grammar
BNFGrammar - -> GrammarFile

EvoUI - -> GE : run GE for n_runs
GE - -> TM : map phenotypes
TM - -> Compiler
Compiler - -> Registry

EvoUI - -> EvoResults : write config.json,\nrun_*/evolution_log.csv,\nrun_*/averaged_across_runs.csv,\nrun_*/evolution_individuals.csv,\nrun_*/model_cache.csv,\nrun_*/evolution_live.log,\nrun_*/chart.html

@enduml

PlantUML version 1.2021.00(Sun Jan 10 10:25:05 GMT 2021)
(MIT source distribution)
Java Runtime: OpenJDK Runtime Environment
JVM: OpenJDK 64-Bit Server VM
Default Encoding: UTF-8
Language: en
Country: US
--></g></svg>