<?xml version="1.0" encoding="UTF-8" standalone="no"?><svg xmlns="http://www.w3.org/2000/svg" xmlns:xlink="http://www.w3.org/1999/xlink" contentScriptType="application/ecmascript" contentStyleType="text/css" height="1161px" preserveAspectRatio="none" style="width:1643px;height:1161px;" version="1.1" viewBox="0 0 1643 1161" width="1643px" zoomAndPan="magnify"><defs><filter height="300%" id="f10at9bjvxmusg" width="300%" x="-1" y="-1"><feGaussianBlur result="blurOut" stdDeviation="2.0"/><feColorMatrix in="blurOut" result="blurOut2" type="matrix" values="0 0 0 0 0 0 0 0 0 0 0 0 0 0 0 0 0 0 .4 0"/><feOffset dx="4.0" dy="4.0" in="blurOut2" result="blurOut3"/><feBlend in="SourceGraphic" in2="blurOut3" mode="normal"/></filter></defs><g><text fill="#000000" font-family="sans-serif" font-size="18" lengthAdjust="spacing" textLength="426" x="602" y="19.2419">Overall system architecture - Torque DSL platform</text><!--MD5=[406b65fecc21e832f7a9b6ebadc6dce1]
cluster Client--><polygon fill="#FFFFFF" filter="url(#f10at9bjvxmusg)" points="1208,178.0158,1254,178.0158,1261,203.0838,1370,203.0838,1370,281.0158,1208,281.0158,1208,178.0158" style="stroke:#000000;stroke-width:1.5;"/><line style="stroke:#000000;stroke-width:1.5;" x1="1208" x2="1261" y1="203.0838" y2="203.0838"/><text fill="#000000" font-family="sans-serif" font-size="14" font-weight="bold" lengthAdjust="spacing" textLength="40" x="1212" y="194.9818">Client</text><!--MD5=[d67bfe2e5e77c6dbc7552895f1efd6d4]
cluster Torque Web App\n(Streamlit)--><polygon fill="#FFFFFF" filter="url(#f10at9bjvxmusg)" points="1044,314.0158,1166,314.0158,1173,358.1517,1543,358.1517,1543,584.0158,1044,584.0158,1044,314.0158" style="stroke:#000000;stroke-width:1.5;"/><line style="stroke:#000000;stroke-width:1.5;" x1="1044" x2="1173" y1="358.1517" y2="358.1517"/><text fill="#000000" font-family="sans-serif" font-size="14" font-weight="bold" lengthAdjust="spacing" textLength="116" x="1048" y="330.9818">Torque Web App</text><text fill="#000000" font-family="sans-serif" font-size="14" font-weight="bold" lengthAdjust="spacing" textLength="74" x="1069" y="350.0497">(Streamlit)</text><!--MD5=[08771fc85768dcb585e8a253895693ec]
cluster Core Engine--><polygon fill="#FFFFFF" filter="url(#f10at9bjvxmusg)" points="838,617.0158,927,617.0158,934,642.0838,1224,642.0838,1224,1154.0158,838,1154.0158,838,617.0158" style="stroke:#000000;stroke-width:1.5;"/><line style="stroke:#000000;stroke-width:1.5;" x1="838" x2="934" y1="642.0838" y2="642.0838"/><text fill="#000000" font-family="sans-serif" font-size="14" font-weight="bold" lengthAdjust="spacing" textLength="83" x="842" y="633.9818">Core Engine</text><!--MD5=[0ace255d53e25926dff37a981a579595]
cluster Configuration & Grammar--><polygon fill="#FFFFFF" filter="url(#f10at9bjvxmusg)" points="16,617.0158,203,617.0158,210,642.0838,814,642.0838,814,892.0158,16,892.0158,16,617.0158" style="stroke:#000000;stroke-width:1.5;"/><line style="stroke:#000000;stroke-width:1.5;" x1="16" x2="210" y1="642.0838" y2="642.0838"/><text fill="#000000" font-family="sans-serif" font-size="14" font-weight="bold" lengthAdjust="spacing" textLength="181" x="20" y="633.9818">Configuration &amp; Grammar</text><!--MD5=[a5ebea3c8aba3f857caacb00d6846268]
cluster Data & Storage--><polygon fill="#FFFFFF" filter="url(#f10at9bjvxmusg)" points="1257,770.0158,1368,770.0158,1375,795.0838,1626,795.0838,1626,1023.0158,1257,1023.0158,1257,770.0158" style="stroke:#000000;stroke-width:1.5;"/><line style="stroke:#000000;stroke-width:1.5;" x1="1257" x2="1375" y1="795.0838" y2="795.0838"/><text fill="#000000" font-family="sans-serif" font-size="14" font-weight="bold" lengthAdjust="spacing" textLength="105" x="1261" y="786.9818">Data &amp; Storage</text><!--MD5=[e9dede37b31fdda9664526f66258b036]
entity Browser--><rect fill="#FEFECE" filter="url(#f10at9bjvxmusg)" height="49.0679" style="stroke:#A80036;stroke-width:1.5;" width="129" x="1224.5" y="216.0158"/><rect fill="#FEFECE" height="10" style="stroke:#A80036;stroke-width:1.5;" width="15" x="1333.5" y="221.0158"/><rect fill="#FEFECE" height="2" style="stroke:#A80036;stroke-width:1.5;" width="4" x="1331.5" y="223.0158"/><rect fill="#FEFECE" height="2" style="stroke:#A80036;stroke-width:1.5;" width="4" x="1331.5" y="227.0158"/><text fill="#000000" font-family="sans-serif" font-size="14" lengthAdjust="spacing" textLength="89" x="1239.5" y="250.9818">Web Browser</text><!--MD5=[cfbf5bfb2284cb4360c7117782840247]
entity Home--><rect fill="#FEFECE" filter="url(#f10at9bjvxmusg)" height="68.1358" style="stroke:#A80036;stroke-width:1.5;" width="116" x="1231" y="371.0158"/><rect fill="#FEFECE" height="10" style="stroke:#A80036;stroke-width:1.5;" width="15" x="1327" y="376.0158"/><rect fill="#FEFECE" height="2" style="stroke:#A80036;stroke-width:1.5;" width="4" x="1325" y="378.0158"/><rect fill="#FEFECE" height="2" style="stroke:#A80036;stroke-width:1.5;" width="4" x="1325" y="382.0158"/><text fill="#000000" font-family="sans-serif" font-size="14" lengthAdjust="spacing" textLength="76" x="1246" y="405.9818">Home Page</text><text fill="#000000" font-family="sans-serif" font-size="14" lengthAdjust="spacing" textLength="46" x="1246" y="425.0497">app.py</text><!--MD5=[3058c7db85c12fcc63ae21611ef884f0]
entity MapperUI--><rect fill="#FEFECE" filter="url(#f10at9bjvxmusg)" height="68.1358" style="stroke:#A80036;stroke-width:1.5;" width="130" x="1060" y="500.0158"/><rect fill="#FEFECE" height="10" style="stroke:#A80036;stroke-width:1.5;" width="15" x="1170" y="505.0158"/><rect fill="#FEFECE" height="2" style="stroke:#A80036;stroke-width:1.5;" width="4" x="1168" y="507.0158"/><rect fill="#FEFECE" height="2" style="stroke:#A80036;stroke-width:1.5;" width="4" x="1168" y="511.0158"/><text fill="#000000" font-family="sans-serif" font-size="14" lengthAdjust="spacing" textLength="90" x="1075" y="534.9818">Mapper Page</text><text fill="#000000" font-family="sans-serif" font-size="14" lengthAdjust="spacing" textLength="87" x="1075" y="554.0497">0_mapper.py</text><!--MD5=[1bbff15fb21456d717c3a12862abd8bc]
entity RunnerUI--><rect fill="#FEFECE" filter="url(#f10at9bjvxmusg)" height="68.1358" style="stroke:#A80036;stroke-width:1.5;" width="127" x="1225.5" y="500.0158"/><rect fill="#FEFECE" height="10" style="stroke:#A80036;stroke-width:1.5;" width="15" x="1332.5" y="505.0158"/><rect fill="#FEFECE" height="2" style="stroke:#A80036;stroke-width:1.5;" width="4" x="1330.5" y="507.0158"/><rect fill="#FEFECE" height="2" style="stroke:#A80036;stroke-width:1.5;" width="4" x="1330.5" y="511.0158"/><text fill="#000000" font-family="sans-serif" font-size="14" lengthAdjust="spacing" textLength="87" x="1240.5" y="534.9818">Runner Page</text><text fill="#000000" font-family="sans-serif" font-size="14" lengthAdjust="spacing" textLength="59" x="1240.5" y="554.0497">2_test.py</text><!--MD5=[d1d23d7e1f2496803f7df53350c39a80]
entity EvoUI--><rect fill="#FEFECE" filter="url(#f10at9bjvxmusg)" height="68.1358" style="stroke:#A80036;stroke-width:1.5;" width="139" x="1387.5" y="500.0158"/><rect fill="#FEFECE" height="10" style="stroke:#A80036;stroke-width:1.5;" width="15" x="1506.5" y="505.0158"/><rect fill="#FEFECE" height="2" style="stroke:#A80036;stroke-width:1.5;" width="4" x="1504.5" y="507.0158"/><rect fill="#FEFECE" height="2" style="stroke:#A80036;stroke-width:1.5;" width="4" x="1504.5" y="511.0158"/><text fill="#000000" font-family="sans-serif" font-size="14" lengthAdjust="spacing" textLength="99" x="1402.5" y="534.9818">Evolution Page</text><text fill="#000000" font-family="sans-serif" font-size="14" lengthAdjust="spacing" textLength="96" x="1402.5" y="554.0497">3_evolution.py</text><!--MD5=[c6ddddda358f072e4f19aa798de5fbe9]
entity TM--><rect fill="#FEFECE" filter="url(#f10at9bjvxmusg)" height="68.1358" style="stroke:#A80036;stroke-width:1.5;" width="167" x="947.5" y="808.0158"/><rect fill="#FEFECE" height="10" style="stroke:#A80036;stroke-width:1.5;" width="15" x="1094.5" y="813.0158"/><rect fill="#FEFECE" height="2" style="stroke:#A80036;stroke-width:1.5;" width="4" x="1092.5" y="815.0158"/><rect fill="#FEFECE" height="2" style="stroke:#A80036;stroke-width:1.5;" width="4" x="1092.5" y="819.0158"/><text fill="#000000" font-family="sans-serif" font-size="14" lengthAdjust="spacing" textLength="101" x="962.5" y="842.9818">TorqueMapper</text><text fill="#000000" font-family="sans-serif" font-size="14" lengthAdjust="spacing" textLength="127" x="962.5" y="862.0497">Torque_mapper.py</text><!--MD5=[d5b45c8b0274f0bd032f9fa02440ab36]
entity TR--><rect fill="#FEFECE" filter="url(#f10at9bjvxmusg)" height="68.1358" style="stroke:#A80036;stroke-width:1.5;" width="161" x="854.5" y="655.0158"/><rect fill="#FEFECE" height="10" style="stroke:#A80036;stroke-width:1.5;" width="15" x="995.5" y="660.0158"/><rect fill="#FEFECE" height="2" style="stroke:#A80036;stroke-width:1.5;" width="4" x="993.5" y="662.0158"/><rect fill="#FEFECE" height="2" style="stroke:#A80036;stroke-width:1.5;" width="4" x="993.5" y="666.0158"/><text fill="#000000" font-family="sans-serif" font-size="14" lengthAdjust="spacing" textLength="98" x="869.5" y="689.9818">TorqueRunner</text><text fill="#000000" font-family="sans-serif" font-size="14" lengthAdjust="spacing" textLength="121" x="869.5" y="709.0497">Torque_runner.py</text><!--MD5=[c01552aeb07e95759ece564214fd0bdc]
entity Compiler--><rect fill="#FEFECE" filter="url(#f10at9bjvxmusg)" height="68.1358" style="stroke:#A80036;stroke-width:1.5;" width="119" x="971.5" y="939.0158"/><rect fill="#FEFECE" height="10" style="stroke:#A80036;stroke-width:1.5;" width="15" x="1070.5" y="944.0158"/><rect fill="#FEFECE" height="2" style="stroke:#A80036;stroke-width:1.5;" width="4" x="1068.5" y="946.0158"/><rect fill="#FEFECE" height="2" style="stroke:#A80036;stroke-width:1.5;" width="4" x="1068.5" y="950.0158"/><text fill="#000000" font-family="sans-serif" font-size="14" lengthAdjust="spacing" textLength="61" x="986.5" y="973.9818">Compiler</text><text fill="#000000" font-family="sans-serif" font-size="14" lengthAdjust="spacing" textLength="79" x="986.5" y="993.0497">compiler.py</text><!--MD5=[4deb7753515de286d568fa33f0a2fe6f]
entity Registry--><rect fill="#FEFECE" filter="url(#f10at9bjvxmusg)" height="68.1358" style="stroke:#A80036;stroke-width:1.5;" width="112" x="975" y="1070.0158"/><rect fill="#FEFECE" height="10" style="stroke:#A80036;stroke-width:1.5;" width="15" x="1067" y="1075.0158"/><rect fill="#FEFECE" height="2" style="stroke:#A80036;stroke-width:1.5;" width="4" x="1065" y="1077.0158"/><rect fill="#FEFECE" height="2" style="stroke:#A80036;stroke-width:1.5;" width="4" x="1065" y="1081.0158"/><text fill="#000000" font-family="sans-serif" font-size="14" lengthAdjust="spacing" textLength="55" x="990" y="1104.9818">Registry</text><text fill="#000000" font-family="sans-serif" font-size="14" lengthAdjust="spacing" textLength="72" x="990" y="1124.0497">registry.py</text><!--MD5=[38d7c869583251a8098d842e36db289c]
entity GE--><rect fill="#FEFECE" filter="url(#f10at9bjvxmusg)" height="68.1358" style="stroke:#A80036;stroke-width:1.5;" width="157" x="1050.5" y="655.0158"/><rect fill="#FEFECE" height="10" style="stroke:#A80036;stroke-width:1.5;" width="15" x="1187.5" y="660.0158"/><rect fill="#FEFECE" height="2" style="stroke:#A80036;stroke-width:1.5;" width="4" x="1185.5" y="662.0158"/><rect fill="#FEFECE" height="2" style="stroke:#A80036;stroke-width:1.5;" width="4" x="1185.5" y="666.0158"/><text fill="#000000" font-family="sans-serif" font-size="14" lengthAdjust="spacing" textLength="96" x="1065.5" y="689.9818">GE Algorithms</text><text fill="#000000" font-family="sans-serif" font-size="14" lengthAdjust="spacing" textLength="117" x="1065.5" y="709.0497">grape.algorithms</text><!--MD5=[35f8ee014494c71eb5321427dbc4a23d]
entity MapperConfig--><rect fill="#FEFECE" filter="url(#f10at9bjvxmusg)" height="68.1358" style="stroke:#A80036;stroke-width:1.5;" width="274" x="221" y="655.0158"/><rect fill="#FEFECE" height="10" style="stroke:#A80036;stroke-width:1.5;" width="15" x="475" y="660.0158"/><rect fill="#FEFECE" height="2" style="stroke:#A80036;stroke-width:1.5;" width="4" x="473" y="662.0158"/><rect fill="#FEFECE" height="2" style="stroke:#A80036;stroke-width:1.5;" width="4" x="473" y="666.0158"/><text fill="#000000" font-family="sans-serif" font-size="14" lengthAdjust="spacing" textLength="101" x="236" y="689.9818">Mapper Config</text><text fill="#000000" font-family="sans-serif" font-size="14" lengthAdjust="spacing" textLength="234" x="236" y="709.0497">config/Torque_mapper_config.json</text><!--MD5=[0dfb31d2945350c445aec9688242672d]
entity RunnerConfig--><rect fill="#FEFECE" filter="url(#f10at9bjvxmusg)" height="68.1358" style="stroke:#A80036;stroke-width:1.5;" width="268" x="530" y="655.0158"/><rect fill="#FEFECE" height="10" style="stroke:#A80036;stroke-width:1.5;" width="15" x="778" y="660.0158"/><rect fill="#FEFECE" height="2" style="stroke:#A80036;stroke-width:1.5;" width="4" x="776" y="662.0158"/><rect fill="#FEFECE" height="2" style="stroke:#A80036;stroke-width:1.5;" width="4" x="776" y="666.0158"/><text fill="#000000" font-family="sans-serif" font-size="14" lengthAdjust="spacing" textLength="98" x="545" y="689.9818">Runner Config</text><text fill="#000000" font-family="sans-serif" font-size="14" lengthAdjust="spacing" textLength="228" x="545" y="709.0497">config/Torque_runner_config.json</text><!--MD5=[86cc3e5ea8675cfa0c09bb879883a7f3]
entity EvoConfig--><rect fill="#FEFECE" filter="url(#f10at9bjvxmusg)" height="68.1358" style="stroke:#A80036;stroke-width:1.5;" width="229" x="337.5" y="808.0158"/><rect fill="#FEFECE" height="10" style="stroke:#A80036;stroke-width:1.5;" width="15" x="546.5" y="813.0158"/><rect fill="#FEFECE" height="2" style="stroke:#A80036;stroke-width:1.5;" width="4" x="544.5" y="815.0158"/><rect fill="#FEFECE" height="2" style="stroke:#A80036;stroke-width:1.5;" width="4" x="544.5" y="819.0158"/><text fill="#000000" font-family="sans-serif" font-size="14" lengthAdjust="spacing" textLength="110" x="352.5" y="842.9818">Evolution Config</text><text fill="#000000" font-family="sans-serif" font-size="14" lengthAdjust="spacing" textLength="189" x="352.5" y="862.0497">config/evolution_config.json</text><!--MD5=[7642f318d6d2a8288c8b08f01eada685]
entity GrammarFile--><rect fill="#FEFECE" filter="url(#f10at9bjvxmusg)" height="68.1358" style="stroke:#A80036;stroke-width:1.5;" width="270" x="32" y="808.0158"/><rect fill="#FEFECE" height="10" style="stroke:#A80036;stroke-width:1.5;" width="15" x="282" y="813.0158"/><rect fill="#FEFECE" height="2" style="stroke:#A80036;stroke-width:1.5;" width="4" x="280" y="815.0158"/><rect fill="#FEFECE" height="2" style="stroke:#A80036;stroke-width:1.5;" width="4" x="280" y="819.0158"/><text fill="#000000" font-family="sans-serif" font-size="14" lengthAdjust="spacing" textLength="122" x="47" y="842.9818">BNF Grammar File</text><text fill="#000000" font-family="sans-serif" font-size="14" lengthAdjust="spacing" textLength="230" x="47" y="862.0497">grammar/ensamble_grammar.bnf</text><!--MD5=[4e46ea923f25faeca3157dc85fae6288]
entity GrammarLoader--><rect fill="#FEFECE" filter="url(#f10at9bjvxmusg)" height="68.1358" style="stroke:#A80036;stroke-width:1.5;" width="154" x="32" y="655.0158"/><rect fill="#FEFECE" height="10" style="stroke:#A80036;stroke-width:1.5;" width="15" x="166" y="660.0158"/><rect fill="#FEFECE" height="2" style="stroke:#A80036;stroke-width:1.5;" width="4" x="164" y="662.0158"/><rect fill="#FEFECE" height="2" style="stroke:#A80036;stroke-width:1.5;" width="4" x="164" y="666.0158"/><text fill="#000000" font-family="sans-serif" font-size="14" lengthAdjust="spacing" textLength="114" x="47" y="689.9818">Grammar Loader</text><text fill="#000000" font-family="sans-serif" font-size="14" lengthAdjust="spacing" textLength="83" x="47" y="709.0497">grammar.py</text><!--MD5=[e9afd8dee7f22e3497c63b001e7f1ac7]
entity Loader--><rect fill="#FEFECE" filter="url(#f10at9bjvxmusg)" height="68.1358" style="stroke:#A80036;stroke-width:1.5;" width="159" x="1437.5" y="808.0158"/><rect fill="#FEFECE" height="10" style="stroke:#A80036;stroke-width:1.5;" width="15" x="1576.5" y="813.0158"/><rect fill="#FEFECE" height="2" style="stroke:#A80036;stroke-width:1.5;" width="4" x="1574.5" y="815.0158"/><rect fill="#FEFECE" height="2" style="stroke:#A80036;stroke-width:1.5;" width="4" x="1574.5" y="819.0158"/><text fill="#000000" font-family="sans-serif" font-size="14" lengthAdjust="spacing" textLength="101" x="1452.5" y="842.9818">Dataset Loader</text><text fill="#000000" font-family="sans-serif" font-size="14" lengthAdjust="spacing" textLength="119" x="1452.5" y="862.0497">dataset_loader.py</text><!--MD5=[c39622e0d58d966b68286b329896549a]
entity CSVData--><rect fill="#FEFECE" filter="url(#f10at9bjvxmusg)" height="68.1358" style="stroke:#A80036;stroke-width:1.5;" width="138" x="1273" y="939.0158"/><rect fill="#FEFECE" height="10" style="stroke:#A80036;stroke-width:1.5;" width="15" x="1391" y="944.0158"/><rect fill="#FEFECE" height="2" style="stroke:#A80036;stroke-width:1.5;" width="4" x="1389" y="946.0158"/><rect fill="#FEFECE" height="2" style="stroke:#A80036;stroke-width:1.5;" width="4" x="1389" y="950.0158"/><text fill="#000000" font-family="sans-serif" font-size="14" lengthAdjust="spacing" textLength="98" x="1288" y="973.9818">Local CSV Data</text><text fill="#000000" font-family="sans-serif" font-size="14" lengthAdjust="spacing" textLength="68" x="1288" y="993.0497">data/*.csv</text><!--MD5=[a38c53f4c8c6781f29c247b186564c16]
entity UCI--><rect fill="#FEFECE" filter="url(#f10at9bjvxmusg)" height="49.0679" style="stroke:#A80036;stroke-width:1.5;" width="163" x="1446.5" y="948.5158"/><rect fill="#FEFECE" height="10" style="stroke:#A80036;stroke-width:1.5;" width="15" x="1589.5" y="953.5158"/><rect fill="#FEFECE" height="2" style="stroke:#A80036;stroke-width:1.5;" width="4" x="1587.5" y="955.5158"/><rect fill="#FEFECE" height="2" style="stroke:#A80036;stroke-width:1.5;" width="4" x="1587.5" y="959.5158"/><text fill="#000000" font-family="sans-serif" font-size="14" lengthAdjust="spacing" textLength="123" x="1461.5" y="983.4818">UCI ML Repository</text><!--MD5=[9b8af6697c917a00185d52e9ead47c2e]
entity Results--><rect fill="#FEFECE" filter="url(#f10at9bjvxmusg)" height="68.1358" style="stroke:#A80036;stroke-width:1.5;" width="99" x="1293.5" y="808.0158"/><rect fill="#FEFECE" height="10" style="stroke:#A80036;stroke-width:1.5;" width="15" x="1372.5" y="813.0158"/><rect fill="#FEFECE" height="2" style="stroke:#A80036;stroke-width:1.5;" width="4" x="1370.5" y="815.0158"/><rect fill="#FEFECE" height="2" style="stroke:#A80036;stroke-width:1.5;" width="4" x="1370.5" y="819.0158"/><text fill="#000000" font-family="sans-serif" font-size="14" lengthAdjust="spacing" textLength="49" x="1308.5" y="842.9818">Results</text><text fill="#000000" font-family="sans-serif" font-size="14" lengthAdjust="spacing" textLength="59" x="1308.5" y="862.0497">results/*</text><!--MD5=[fee662a292a0353a69bd162820bae93b]
entity User--><ellipse cx="1289" cy="38.5158" fill="#FEFECE" filter="url(#f10at9bjvxmusg)" rx="8" ry="8" style="stroke:#A80036;stroke-width:1.5;"/><path d="M1289,46.5158 L1289,73.5158 M1276,54.5158 L1302,54.5158 M1289,73.5158 L1276,88.5158 M1289,73.5158 L1302,88.5158 " fill="none" filter="url(#f10at9bjvxmusg)" style="stroke:#A80036;stroke-width:1.5;"/><text fill="#000000" font-family="sans-serif" font-size="14" lengthAdjust="spacing" textLength="31" x="1273.5" y="108.9818">User</text><!--MD5=[ec4c93e45963a154c97e3947d19a9663]
link User to Browser--><path d="M1289,113.4158 C1289,143.5758 1289,183.6658 1289,210.4658 " fill="none" id="User-to-Browser" style="stroke:#A80036;stroke-width:1.0;"/><polygon fill="#A80036" points="1289,215.6458,1293,206.6458,1289,210.6458,1285,206.6458,1289,215.6458" style="stroke:#A80036;stroke-width:1.0;"/><text fill="#000000" font-family="sans-serif" font-size="13" lengthAdjust="spacing" textLength="103" x="1290" y="157.9129">open Torque app</text><!--MD5=[3938fcd18a2facc0c88cf7bda1beea46]
link Browser to Home--><path d="M1289,265.1458 C1289,291.4358 1289,334.3258 1289,365.4858 " fill="none" id="Browser-to-Home" style="stroke:#A80036;stroke-width:1.0;"/><polygon fill="#A80036" points="1289,370.7758,1293,361.7758,1289,365.7758,1285,361.7758,1289,370.7758" style="stroke:#A80036;stroke-width:1.0;"/><!--MD5=[560fc0e79cc73e814ebdbfce0f4a00a2]
link Home to MapperUI--><path d="M1246.34,439.0558 C1223.46,456.7658 1195.23,478.6358 1171.76,496.8058 " fill="none" id="Home-to-MapperUI" style="stroke:#A80036;stroke-width:1.0;"/><polygon fill="#A80036" points="1167.73,499.9258,1177.2923,497.5674,1171.6798,496.8601,1172.3871,491.2476,1167.73,499.9258" style="stroke:#A80036;stroke-width:1.0;"/><!--MD5=[4b41958f10500894b54bd75f7da43d47]
link Home to RunnerUI--><path d="M1289,439.0558 C1289,455.9658 1289,476.6658 1289,494.3258 " fill="none" id="Home-to-RunnerUI" style="stroke:#A80036;stroke-width:1.0;"/><polygon fill="#A80036" points="1289,499.7058,1293,490.7058,1289,494.7058,1285,490.7058,1289,499.7058" style="stroke:#A80036;stroke-width:1.0;"/><!--MD5=[2c48c272772c66abe6c4bc913c96f7f2]
link Home to EvoUI--><path d="M1332.7,439.0558 C1356.14,456.7658 1385.06,478.6358 1409.1,496.8058 " fill="none" id="Home-to-EvoUI" style="stroke:#A80036;stroke-width:1.0;"/><polygon fill="#A80036" points="1413.23,499.9258,1408.4645,491.3067,1409.242,496.9099,1403.6389,497.6874,1413.23,499.9258" style="stroke:#A80036;stroke-width:1.0;"/><!--MD5=[8a4b2d88ea8873835b7ddf243bba20dd]
link MapperUI to TM--><path d="M1173.8,568.1858 C1197.67,584.9158 1221.94,602.9358 1225,609.0158 C1247.8,654.2558 1249.83,678.8458 1225,723.0158 C1202.21,763.5458 1159.24,791.7858 1119.52,810.4458 " fill="none" id="MapperUI-to-TM" style="stroke:#A80036;stroke-width:1.0;"/><polygon fill="#A80036" points="1114.69,812.6758,1124.5381,812.5558,1119.234,810.5896,1121.2002,805.2855,1114.69,812.6758" style="stroke:#A80036;stroke-width:1.0;"/><!--MD5=[03f43401fbf82707d1179df234de5197]
link RunnerUI to TR--><path d="M1250.54,568.1558 C1237.78,577.4158 1222.99,586.4558 1208,592.0158 C1134.73,619.1758 1105.35,579.4758 1033,609.0158 C1009.68,618.5358 987.49,635.5058 970.14,651.2758 " fill="none" id="RunnerUI-to-TR" style="stroke:#A80036;stroke-width:1.0;"/><polygon fill="#A80036" points="966.29,654.8358,975.6112,651.6555,969.9585,651.4385,970.1755,645.7858,966.29,654.8358" style="stroke:#A80036;stroke-width:1.0;"/><!--MD5=[ea55022d3af92c027ccb506dfdd26561]
link EvoUI to GE--><path d="M1430.17,568.1858 C1419.34,579.8758 1406.07,592.2658 1392,601.0158 C1336.9,635.2758 1266.85,657.5858 1212.89,671.0258 " fill="none" id="EvoUI-to-GE" style="stroke:#A80036;stroke-width:1.0;"/><polygon fill="#A80036" points="1207.72,672.2958,1217.4167,674.0205,1212.5741,671.0966,1215.4979,666.254,1207.72,672.2958" style="stroke:#A80036;stroke-width:1.0;"/><!--MD5=[2167c3df9f0825e197f681700f7df08e]
link TR to TM--><path d="M956.07,723.1558 C971.14,746.8558 991.44,778.7958 1007.11,803.4458 " fill="none" id="TR-to-TM" style="stroke:#A80036;stroke-width:1.0;"/><polygon fill="#A80036" points="1009.98,807.9558,1008.5313,798.2141,1007.2993,803.7352,1001.7782,802.5032,1009.98,807.9558" style="stroke:#A80036;stroke-width:1.0;"/><!--MD5=[6cfce05c7c8ad9275dc93027216b8976]
link TM to Compiler--><path d="M1031,876.2358 C1031,893.8458 1031,915.5458 1031,933.8458 " fill="none" id="TM-to-Compiler" style="stroke:#A80036;stroke-width:1.0;"/><polygon fill="#A80036" points="1031,938.9058,1035,929.9058,1031,933.9058,1027,929.9058,1031,938.9058" style="stroke:#A80036;stroke-width:1.0;"/><!--MD5=[f52f69d7169993b3a54da8075d9a45e6]
link Compiler to Registry--><path d="M1031,1007.2358 C1031,1024.8458 1031,1046.5458 1031,1064.8458 " fill="none" id="Compiler-to-Registry" style="stroke:#A80036;stroke-width:1.0;"/><polygon fill="#A80036" points="1031,1069.9058,1035,1060.9058,1031,1064.9058,1027,1060.9058,1031,1069.9058" style="stroke:#A80036;stroke-width:1.0;"/><!--MD5=[cd4c7dd2e0fa18f5543858caa2b4e066]
link MapperUI to GrammarLoader--><path d="M1059.95,535.1758 C876.72,536.4358 359.52,545.6458 204,609.0158 C181.1,618.3458 159.56,635.2958 142.8,651.1058 " fill="none" id="MapperUI-to-GrammarLoader" style="stroke:#A80036;stroke-width:1.0;"/><polygon fill="#A80036" points="139.08,654.6658,148.3487,651.3354,142.6932,651.2097,142.8189,645.5543,139.08,654.6658" style="stroke:#A80036;stroke-width:1.0;"/><!--MD5=[7cc661a49ef115d121a58d6e82ba0142]
link EvoUI to GrammarLoader--><path d="M1416.95,568.0258 C1402.95,577.6558 1386.57,586.9358 1370,592.0158 C1308.06,610.9958 264.76,586.5458 204,609.0158 C180.43,617.7258 158.54,635.0058 141.73,651.1958 " fill="none" id="EvoUI-to-GrammarLoader" style="stroke:#A80036;stroke-width:1.0;"/><polygon fill="#A80036" points="138,654.8458,147.2276,651.4033,141.5711,651.3462,141.6282,645.6896,138,654.8458" style="stroke:#A80036;stroke-width:1.0;"/><!--MD5=[66bc3ffa447e74f73a9b25e50d81d95e]
link GrammarLoader to GrammarFile--><path d="M121.73,723.1558 C130.79,746.7558 143,778.5258 152.45,803.1358 " fill="none" id="GrammarLoader-to-GrammarFile" style="stroke:#A80036;stroke-width:1.0;"/><polygon fill="#A80036" points="154.3,807.9558,154.7965,798.1195,152.5022,803.2902,147.3315,800.9959,154.3,807.9558" style="stroke:#A80036;stroke-width:1.0;"/><!--MD5=[4d6cbbb34eaa45afafaf6dd58e31a055]
link RunnerUI to Loader--><path d="M1313.62,568.0558 C1356.35,625.4058 1443.98,743.0158 1488.98,803.4058 " fill="none" id="RunnerUI-to-Loader" style="stroke:#A80036;stroke-width:1.0;"/><polygon fill="#A80036" points="1492.14,807.6558,1489.9784,798.0471,1489.156,803.6439,1483.5593,802.8215,1492.14,807.6558" style="stroke:#A80036;stroke-width:1.0;"/><!--MD5=[5ebbf3d0d6dccecd456e433af015fde2]
link EvoUI to Loader--><path d="M1470.79,568.3358 C1474.55,578.3858 1478.31,589.5258 1481,600.0158 C1499.04,670.3958 1509.08,754.8058 1513.73,802.7558 " fill="none" id="EvoUI-to-Loader" style="stroke:#A80036;stroke-width:1.0;"/><polygon fill="#A80036" points="1514.22,807.8458,1517.355,798.5093,1513.7493,802.868,1509.3905,799.2624,1514.22,807.8458" style="stroke:#A80036;stroke-width:1.0;"/><!--MD5=[bb480a49155155dcd15b2f9a0c4ce1b2]
link Loader to CSVData--><path d="M1471.93,876.2358 C1447.13,894.5158 1416.33,917.2258 1390.94,935.9358 " fill="none" id="Loader-to-CSVData" style="stroke:#A80036;stroke-width:1.0;"/><polygon fill="#A80036" points="1386.91,938.9058,1396.5237,936.7663,1390.9288,935.9311,1391.764,930.3362,1386.91,938.9058" style="stroke:#A80036;stroke-width:1.0;"/><!--MD5=[2ef1d67759631e1333310d6ed4fa9ab2]
link Loader to UCI--><path d="M1519.83,876.2358 C1521.6,896.9358 1523.85,923.2958 1525.54,943.1258 " fill="none" id="Loader-to-UCI" style="stroke:#A80036;stroke-width:1.0;"/><polygon fill="#A80036" points="1525.98,948.2758,1529.2188,938.9748,1525.5648,943.2931,1521.2464,939.6391,1525.98,948.2758" style="stroke:#A80036;stroke-width:1.0;"/><!--MD5=[89cf473d9731b40e8a88628a7374ece7]
link TR to Results--><path d="M1015.51,718.0058 C1021.41,719.7858 1027.28,721.4758 1033,723.0158 C1116.66,745.5458 1143.99,728.7758 1224,762.0158 C1249.98,772.8058 1276.3,789.5458 1297.56,804.8458 " fill="none" id="TR-to-Results" style="stroke:#A80036;stroke-width:1.0;"/><polygon fill="#A80036" points="1301.74,807.8858,1296.7979,799.3667,1297.6908,804.9526,1292.1048,805.8455,1301.74,807.8858" style="stroke:#A80036;stroke-width:1.0;"/><!--MD5=[728fd054700202e5ac4fcf9aaa597eb9]
link EvoUI to Results--><path d="M1444.69,568.0558 C1423.41,625.1758 1379.86,742.0758 1357.28,802.6758 " fill="none" id="EvoUI-to-Results" style="stroke:#A80036;stroke-width:1.0;"/><polygon fill="#A80036" points="1355.43,807.6558,1362.3166,800.6149,1357.1731,802.9695,1354.8185,797.826,1355.43,807.6558" style="stroke:#A80036;stroke-width:1.0;"/><!--MD5=[874c7383a76fb7993dfc7a069c45cb4f]
link MapperConfig to RunnerConfig--><!--MD5=[27e2ee948b5e6290708f8dd6aa9a594c]
link MapperConfig to EvoConfig--><!--MD5=[b98dd199e67c5bd547ea9f1c8e5a7e61]
@startuml
title Overall system architecture - Torque DSL platform

actor User

package "Client" {
  [Web Browser] as Browser
}

package "Torque Web App\n(Streamlit)" {
  [Home Page\napp.py] as Home
  [Mapper Page\n0_mapper.py] as MapperUI
  [Runner Page\n2_test.py] as RunnerUI
  [Evolution Page\n3_evolution.py] as EvoUI
}

package "Core Engine" {
  [TorqueMapper\nTorque_mapper.py] as TM
  [TorqueRunner\nTorque_runner.py] as TR
  [Compiler\ncompiler.py] as Compiler
  [Registry\nregistry.py] as Registry
  [GE Algorithms\ngrape.algorithms] as GE
}

package "Configuration & Grammar" {
  [Mapper Config\nconfig/Torque_mapper_config.json] as MapperConfig
  [Runner Config\nconfig/Torque_runner_config.json] as RunnerConfig
  [Evolution Config\nconfig/evolution_config.json] as EvoConfig
  [BNF Grammar File\ngrammar/ensamble_grammar.bnf] as GrammarFile
  [Grammar Loader\ngrammar.py] as GrammarLoader
}

package "Data & Storage" {
  [Dataset Loader\ndataset_loader.py] as Loader
  [Local CSV Data\ndata/*.csv] as CSVData
  [UCI ML Repository] as UCI
  [Results\nresults/*] as Results
}

User - -> Browser : open Torque app
Browser - -> Home

Home - -> MapperUI
Home - -> RunnerUI
Home - -> EvoUI

MapperUI - -> TM
RunnerUI - -> TR
EvoUI - -> GE

TR - -> TM
TM - -> Compiler
Compiler - -> Registry

MapperUI - -> GrammarLoader
EvoUI - -> GrammarLoader
GrammarLoader - -> GrammarFile

RunnerUI - -> Loader
EvoUI - -> Loader
Loader - -> CSVData
Loader - -> UCI

TR - -> Results
EvoUI - -> Results

@enduml

PlantUML version 1.2021.00(Sun Jan 10 10:25:05 GMT 2021)
(MIT source distribution)
Java Runtime: OpenJDK Runtime Environment
JVM: OpenJDK 64-Bit Server VM
Default Encoding: UTF-8
Language: en
Country: US
--></g></svg>