<?xml version="1.0" encoding="UTF-8" standalone="no"?><svg xmlns="http://www.w3.org/2000/svg" xmlns:xlink="http://www.w3.org/1999/xlink" contentScriptType="application/ecmascript" contentStyleType="text/css" height="945px" preserveAspectRatio="none" style="width:1616px;height:945px;" version="1.1" viewBox="0 0 1616 945" width="1616px" zoomAndPan="magnify"><defs><filter height="300%" id="f1f4sfwou108xn" width="300%" x="-1" y="-1"><feGaussianBlur result="blurOut" stdDeviation="2.0"/><feColorMatrix in="blurOut" result="blurOut2" type="matrix" values="0 0 0 0 0 0 0 0 0 0 0 0 0 0 0 0 0 0 .4 0"/><feOffset dx="4.0" dy="4.0" in="blurOut2" result="blurOut3"/><feBlend in="SourceGraphic" in2="blurOut3" mode="normal"/></filter></defs><g><text fill="#000000" font-family="sans-serif" font-size="18" lengthAdjust="spacing" textLength="438" x="582.5" y="19.2419">System structure - main packages and components</text><!--MD5=[406b65fecc21e832f7a9b6ebadc6dce1]
cluster Client--><polygon fill="#FFFFFF" filter="url(#f1f4sfwou108xn)" points="896,31.1178,942,31.1178,949,56.1857,1058,56.1857,1058,134.1178,896,134.1178,896,31.1178" style="stroke:#000000;stroke-width:1.5;"/><line style="stroke:#000000;stroke-width:1.5;" x1="896" x2="949" y1="56.1857" y2="56.1857"/><text fill="#000000" font-family="sans-serif" font-size="14" font-weight="bold" lengthAdjust="spacing" textLength="40" x="900" y="48.0838">Client</text><!--MD5=[6e0d427754a400b0d323ae1c0705a90d]
cluster Torque App (Streamlit)--><polygon fill="#FFFFFF" filter="url(#f1f4sfwou108xn)" points="726,158.1178,891,158.1178,898,183.1857,1225,183.1857,1225,408.1178,726,408.1178,726,158.1178" style="stroke:#000000;stroke-width:1.5;"/><line style="stroke:#000000;stroke-width:1.5;" x1="726" x2="898" y1="183.1857" y2="183.1857"/><text fill="#000000" font-family="sans-serif" font-size="14" font-weight="bold" lengthAdjust="spacing" textLength="159" x="730" y="175.0838">Torque App (Streamlit)</text><!--MD5=[08771fc85768dcb585e8a253895693ec]
cluster Core Engine--><polygon fill="#FFFFFF" filter="url(#f1f4sfwou108xn)" points="850,432.1178,939,432.1178,946,457.1857,1236,457.1857,1236,938.1178,850,938.1178,850,432.1178" style="stroke:#000000;stroke-width:1.5;"/><line style="stroke:#000000;stroke-width:1.5;" x1="850" x2="946" y1="457.1857" y2="457.1857"/><text fill="#000000" font-family="sans-serif" font-size="14" font-weight="bold" lengthAdjust="spacing" textLength="83" x="854" y="449.0838">Core Engine</text><!--MD5=[a1f3d1d41f7e16c4649cbdda5978ac96]
cluster Config & Grammar--><polygon fill="#FFFFFF" filter="url(#f1f4sfwou108xn)" points="16,432.1178,152,432.1178,159,457.1857,776,457.1857,776,682.1178,16,682.1178,16,432.1178" style="stroke:#000000;stroke-width:1.5;"/><line style="stroke:#000000;stroke-width:1.5;" x1="16" x2="159" y1="457.1857" y2="457.1857"/><text fill="#000000" font-family="sans-serif" font-size="14" font-weight="bold" lengthAdjust="spacing" textLength="130" x="20" y="449.0838">Config &amp; Grammar</text><!--MD5=[a1ee53d871c67fe32688766c0bcd2965]
cluster Data & Results--><polygon fill="#FFFFFF" filter="url(#f1f4sfwou108xn)" points="1260,560.1178,1367,560.1178,1374,585.1857,1599,585.1857,1599,810.1178,1260,810.1178,1260,560.1178" style="stroke:#000000;stroke-width:1.5;"/><line style="stroke:#000000;stroke-width:1.5;" x1="1260" x2="1374" y1="585.1857" y2="585.1857"/><text fill="#000000" font-family="sans-serif" font-size="14" font-weight="bold" lengthAdjust="spacing" textLength="101" x="1264" y="577.0838">Data &amp; Results</text><!--MD5=[e9dede37b31fdda9664526f66258b036]
entity Browser--><rect fill="#FEFECE" filter="url(#f1f4sfwou108xn)" height="49.0679" style="stroke:#A80036;stroke-width:1.5;" width="129" x="912.5" y="69.1178"/><rect fill="#FEFECE" height="10" style="stroke:#A80036;stroke-width:1.5;" width="15" x="1021.5" y="74.1178"/><rect fill="#FEFECE" height="2" style="stroke:#A80036;stroke-width:1.5;" width="4" x="1019.5" y="76.1178"/><rect fill="#FEFECE" height="2" style="stroke:#A80036;stroke-width:1.5;" width="4" x="1019.5" y="80.1178"/><text fill="#000000" font-family="sans-serif" font-size="14" lengthAdjust="spacing" textLength="89" x="927.5" y="104.0838">Web Browser</text><!--MD5=[cfbf5bfb2284cb4360c7117782840247]
entity Home--><rect fill="#FEFECE" filter="url(#f1f4sfwou108xn)" height="68.1358" style="stroke:#A80036;stroke-width:1.5;" width="116" x="919" y="196.1178"/><rect fill="#FEFECE" height="10" style="stroke:#A80036;stroke-width:1.5;" width="15" x="1015" y="201.1178"/><rect fill="#FEFECE" height="2" style="stroke:#A80036;stroke-width:1.5;" width="4" x="1013" y="203.1178"/><rect fill="#FEFECE" height="2" style="stroke:#A80036;stroke-width:1.5;" width="4" x="1013" y="207.1178"/><text fill="#000000" font-family="sans-serif" font-size="14" lengthAdjust="spacing" textLength="76" x="934" y="231.0838">Home Page</text><text fill="#000000" font-family="sans-serif" font-size="14" lengthAdjust="spacing" textLength="46" x="934" y="250.1517">app.py</text><!--MD5=[3058c7db85c12fcc63ae21611ef884f0]
entity MapperUI--><rect fill="#FEFECE" filter="url(#f1f4sfwou108xn)" height="68.1358" style="stroke:#A80036;stroke-width:1.5;" width="130" x="742" y="324.1178"/><rect fill="#FEFECE" height="10" style="stroke:#A80036;stroke-width:1.5;" width="15" x="852" y="329.1178"/><rect fill="#FEFECE" height="2" style="stroke:#A80036;stroke-width:1.5;" width="4" x="850" y="331.1178"/><rect fill="#FEFECE" height="2" style="stroke:#A80036;stroke-width:1.5;" width="4" x="850" y="335.1178"/><text fill="#000000" font-family="sans-serif" font-size="14" lengthAdjust="spacing" textLength="90" x="757" y="359.0838">Mapper Page</text><text fill="#000000" font-family="sans-serif" font-size="14" lengthAdjust="spacing" textLength="87" x="757" y="378.1517">0_mapper.py</text><!--MD5=[1bbff15fb21456d717c3a12862abd8bc]
entity RunnerUI--><rect fill="#FEFECE" filter="url(#f1f4sfwou108xn)" height="68.1358" style="stroke:#A80036;stroke-width:1.5;" width="127" x="1081.5" y="324.1178"/><rect fill="#FEFECE" height="10" style="stroke:#A80036;stroke-width:1.5;" width="15" x="1188.5" y="329.1178"/><rect fill="#FEFECE" height="2" style="stroke:#A80036;stroke-width:1.5;" width="4" x="1186.5" y="331.1178"/><rect fill="#FEFECE" height="2" style="stroke:#A80036;stroke-width:1.5;" width="4" x="1186.5" y="335.1178"/><text fill="#000000" font-family="sans-serif" font-size="14" lengthAdjust="spacing" textLength="87" x="1096.5" y="359.0838">Runner Page</text><text fill="#000000" font-family="sans-serif" font-size="14" lengthAdjust="spacing" textLength="59" x="1096.5" y="378.1517">2_test.py</text><!--MD5=[d1d23d7e1f2496803f7df53350c39a80]
entity EvoUI--><rect fill="#FEFECE" filter="url(#f1f4sfwou108xn)" height="68.1358" style="stroke:#A80036;stroke-width:1.5;" width="139" x="907.5" y="324.1178"/><rect fill="#FEFECE" height="10" style="stroke:#A80036;stroke-width:1.5;" width="15" x="1026.5" y="329.1178"/><rect fill="#FEFECE" height="2" style="stroke:#A80036;stroke-width:1.5;" width="4" x="1024.5" y="331.1178"/><rect fill="#FEFECE" height="2" style="stroke:#A80036;stroke-width:1.5;" width="4" x="1024.5" y="335.1178"/><text fill="#000000" font-family="sans-serif" font-size="14" lengthAdjust="spacing" textLength="99" x="922.5" y="359.0838">Evolution Page</text><text fill="#000000" font-family="sans-serif" font-size="14" lengthAdjust="spacing" textLength="96" x="922.5" y="378.1517">3_evolution.py</text><!--MD5=[c6ddddda358f072e4f19aa798de5fbe9]
entity TM--><rect fill="#FEFECE" filter="url(#f1f4sfwou108xn)" height="68.1358" style="stroke:#A80036;stroke-width:1.5;" width="167" x="959.5" y="598.1178"/><rect fill="#FEFECE" height="10" style="stroke:#A80036;stroke-width:1.5;" width="15" x="1106.5" y="603.1178"/><rect fill="#FEFECE" height="2" style="stroke:#A80036;stroke-width:1.5;" width="4" x="1104.5" y="605.1178"/><rect fill="#FEFECE" height="2" style="stroke:#A80036;stroke-width:1.5;" width="4" x="1104.5" y="609.1178"/><text fill="#000000" font-family="sans-serif" font-size="14" lengthAdjust="spacing" textLength="101" x="974.5" y="633.0838">TorqueMapper</text><text fill="#000000" font-family="sans-serif" font-size="14" lengthAdjust="spacing" textLength="127" x="974.5" y="652.1517">Torque_mapper.py</text><!--MD5=[d5b45c8b0274f0bd032f9fa02440ab36]
entity TR--><rect fill="#FEFECE" filter="url(#f1f4sfwou108xn)" height="68.1358" style="stroke:#A80036;stroke-width:1.5;" width="161" x="1058.5" y="470.1178"/><rect fill="#FEFECE" height="10" style="stroke:#A80036;stroke-width:1.5;" width="15" x="1199.5" y="475.1178"/><rect fill="#FEFECE" height="2" style="stroke:#A80036;stroke-width:1.5;" width="4" x="1197.5" y="477.1178"/><rect fill="#FEFECE" height="2" style="stroke:#A80036;stroke-width:1.5;" width="4" x="1197.5" y="481.1178"/><text fill="#000000" font-family="sans-serif" font-size="14" lengthAdjust="spacing" textLength="98" x="1073.5" y="505.0838">TorqueRunner</text><text fill="#000000" font-family="sans-serif" font-size="14" lengthAdjust="spacing" textLength="121" x="1073.5" y="524.1517">Torque_runner.py</text><!--MD5=[c01552aeb07e95759ece564214fd0bdc]
entity Compiler--><rect fill="#FEFECE" filter="url(#f1f4sfwou108xn)" height="68.1358" style="stroke:#A80036;stroke-width:1.5;" width="119" x="983.5" y="726.1178"/><rect fill="#FEFECE" height="10" style="stroke:#A80036;stroke-width:1.5;" width="15" x="1082.5" y="731.1178"/><rect fill="#FEFECE" height="2" style="stroke:#A80036;stroke-width:1.5;" width="4" x="1080.5" y="733.1178"/><rect fill="#FEFECE" height="2" style="stroke:#A80036;stroke-width:1.5;" width="4" x="1080.5" y="737.1178"/><text fill="#000000" font-family="sans-serif" font-size="14" lengthAdjust="spacing" textLength="61" x="998.5" y="761.0838">Compiler</text><text fill="#000000" font-family="sans-serif" font-size="14" lengthAdjust="spacing" textLength="79" x="998.5" y="780.1517">compiler.py</text><!--MD5=[4deb7753515de286d568fa33f0a2fe6f]
entity Registry--><rect fill="#FEFECE" filter="url(#f1f4sfwou108xn)" height="68.1358" style="stroke:#A80036;stroke-width:1.5;" width="112" x="987" y="854.1178"/><rect fill="#FEFECE" height="10" style="stroke:#A80036;stroke-width:1.5;" width="15" x="1079" y="859.1178"/><rect fill="#FEFECE" height="2" style="stroke:#A80036;stroke-width:1.5;" width="4" x="1077" y="861.1178"/><rect fill="#FEFECE" height="2" style="stroke:#A80036;stroke-width:1.5;" width="4" x="1077" y="865.1178"/><text fill="#000000" font-family="sans-serif" font-size="14" lengthAdjust="spacing" textLength="55" x="1002" y="889.0838">Registry</text><text fill="#000000" font-family="sans-serif" font-size="14" lengthAdjust="spacing" textLength="72" x="1002" y="908.1517">registry.py</text><!--MD5=[38d7c869583251a8098d842e36db289c]
entity GE--><rect fill="#FEFECE" filter="url(#f1f4sfwou108xn)" height="68.1358" style="stroke:#A80036;stroke-width:1.5;" width="157" x="866.5" y="470.1178"/><rect fill="#FEFECE" height="10" style="stroke:#A80036;stroke-width:1.5;" width="15" x="1003.5" y="475.1178"/><rect fill="#FEFECE" height="2" style="stroke:#A80036;stroke-width:1.5;" width="4" x="1001.5" y="477.1178"/><rect fill="#FEFECE" height="2" style="stroke:#A80036;stroke-width:1.5;" width="4" x="1001.5" y="481.1178"/><text fill="#000000" font-family="sans-serif" font-size="14" lengthAdjust="spacing" textLength="96" x="881.5" y="505.0838">GE Algorithms</text><text fill="#000000" font-family="sans-serif" font-size="14" lengthAdjust="spacing" textLength="117" x="881.5" y="524.1517">grape.algorithms</text><!--MD5=[86cc3e5ea8675cfa0c09bb879883a7f3]
entity EvoConfig--><rect fill="#FEFECE" filter="url(#f1f4sfwou108xn)" height="68.1358" style="stroke:#A80036;stroke-width:1.5;" width="229" x="221.5" y="470.1178"/><rect fill="#FEFECE" height="10" style="stroke:#A80036;stroke-width:1.5;" width="15" x="430.5" y="475.1178"/><rect fill="#FEFECE" height="2" style="stroke:#A80036;stroke-width:1.5;" width="4" x="428.5" y="477.1178"/><rect fill="#FEFECE" height="2" style="stroke:#A80036;stroke-width:1.5;" width="4" x="428.5" y="481.1178"/><text fill="#000000" font-family="sans-serif" font-size="14" lengthAdjust="spacing" textLength="110" x="236.5" y="505.0838">Evolution Config</text><text fill="#000000" font-family="sans-serif" font-size="14" lengthAdjust="spacing" textLength="189" x="236.5" y="524.1517">config/evolution_config.json</text><!--MD5=[35f8ee014494c71eb5321427dbc4a23d]
entity MapperConfig--><rect fill="#FEFECE" filter="url(#f1f4sfwou108xn)" height="68.1358" style="stroke:#A80036;stroke-width:1.5;" width="274" x="486" y="470.1178"/><rect fill="#FEFECE" height="10" style="stroke:#A80036;stroke-width:1.5;" width="15" x="740" y="475.1178"/><rect fill="#FEFECE" height="2" style="stroke:#A80036;stroke-width:1.5;" width="4" x="738" y="477.1178"/><rect fill="#FEFECE" height="2" style="stroke:#A80036;stroke-width:1.5;" width="4" x="738" y="481.1178"/><text fill="#000000" font-family="sans-serif" font-size="14" lengthAdjust="spacing" textLength="101" x="501" y="505.0838">Mapper Config</text><text fill="#000000" font-family="sans-serif" font-size="14" lengthAdjust="spacing" textLength="234" x="501" y="524.1517">config/Torque_mapper_config.json</text><!--MD5=[0dfb31d2945350c445aec9688242672d]
entity RunnerConfig--><rect fill="#FEFECE" filter="url(#f1f4sfwou108xn)" height="68.1358" style="stroke:#A80036;stroke-width:1.5;" width="268" x="337" y="598.1178"/><rect fill="#FEFECE" height="10" style="stroke:#A80036;stroke-width:1.5;" width="15" x="585" y="603.1178"/><rect fill="#FEFECE" height="2" style="stroke:#A80036;stroke-width:1.5;" width="4" x="583" y="605.1178"/><rect fill="#FEFECE" height="2" style="stroke:#A80036;stroke-width:1.5;" width="4" x="583" y="609.1178"/><text fill="#000000" font-family="sans-serif" font-size="14" lengthAdjust="spacing" textLength="98" x="352" y="633.0838">Runner Config</text><text fill="#000000" font-family="sans-serif" font-size="14" lengthAdjust="spacing" textLength="228" x="352" y="652.1517">config/Torque_runner_config.json</text><!--MD5=[7642f318d6d2a8288c8b08f01eada685]
entity GrammarFile--><rect fill="#FEFECE" filter="url(#f1f4sfwou108xn)" height="68.1358" style="stroke:#A80036;stroke-width:1.5;" width="270" x="32" y="598.1178"/><rect fill="#FEFECE" height="10" style="stroke:#A80036;stroke-width:1.5;" width="15" x="282" y="603.1178"/><rect fill="#FEFECE" height="2" style="stroke:#A80036;stroke-width:1.5;" width="4" x="280" y="605.1178"/><rect fill="#FEFECE" height="2" style="stroke:#A80036;stroke-width:1.5;" width="4" x="280" y="609.1178"/><text fill="#000000" font-family="sans-serif" font-size="14" lengthAdjust="spacing" textLength="122" x="47" y="633.0838">BNF Grammar File</text><text fill="#000000" font-family="sans-serif" font-size="14" lengthAdjust="spacing" textLength="230" x="47" y="652.1517">grammar/ensamble_grammar.bnf</text><!--MD5=[4e46ea923f25faeca3157dc85fae6288]
entity GrammarLoader--><rect fill="#FEFECE" filter="url(#f1f4sfwou108xn)" height="68.1358" style="stroke:#A80036;stroke-width:1.5;" width="154" x="32" y="470.1178"/><rect fill="#FEFECE" height="10" style="stroke:#A80036;stroke-width:1.5;" width="15" x="166" y="475.1178"/><rect fill="#FEFECE" height="2" style="stroke:#A80036;stroke-width:1.5;" width="4" x="164" y="477.1178"/><rect fill="#FEFECE" height="2" style="stroke:#A80036;stroke-width:1.5;" width="4" x="164" y="481.1178"/><text fill="#000000" font-family="sans-serif" font-size="14" lengthAdjust="spacing" textLength="114" x="47" y="505.0838">Grammar Loader</text><text fill="#000000" font-family="sans-serif" font-size="14" lengthAdjust="spacing" textLength="83" x="47" y="524.1517">grammar.py</text><!--MD5=[e9afd8dee7f22e3497c63b001e7f1ac7]
entity Loader--><rect fill="#FEFECE" filter="url(#f1f4sfwou108xn)" height="68.1358" style="stroke:#A80036;stroke-width:1.5;" width="159" x="1410.5" y="598.1178"/><rect fill="#FEFECE" height="10" style="stroke:#A80036;stroke-width:1.5;" width="15" x="1549.5" y="603.1178"/><rect fill="#FEFECE" height="2" style="stroke:#A80036;stroke-width:1.5;" width="4" x="1547.5" y="605.1178"/><rect fill="#FEFECE" height="2" style="stroke:#A80036;stroke-width:1.5;" width="4" x="1547.5" y="609.1178"/><text fill="#000000" font-family="sans-serif" font-size="14" lengthAdjust="spacing" textLength="101" x="1425.5" y="633.0838">Dataset Loader</text><text fill="#000000" font-family="sans-serif" font-size="14" lengthAdjust="spacing" textLength="119" x="1425.5" y="652.1517">dataset_loader.py</text><!--MD5=[c39622e0d58d966b68286b329896549a]
entity CSVData--><rect fill="#FEFECE" filter="url(#f1f4sfwou108xn)" height="68.1358" style="stroke:#A80036;stroke-width:1.5;" width="108" x="1475" y="726.1178"/><rect fill="#FEFECE" height="10" style="stroke:#A80036;stroke-width:1.5;" width="15" x="1563" y="731.1178"/><rect fill="#FEFECE" height="2" style="stroke:#A80036;stroke-width:1.5;" width="4" x="1561" y="733.1178"/><rect fill="#FEFECE" height="2" style="stroke:#A80036;stroke-width:1.5;" width="4" x="1561" y="737.1178"/><text fill="#000000" font-family="sans-serif" font-size="14" lengthAdjust="spacing" textLength="65" x="1490" y="761.0838">Data Files</text><text fill="#000000" font-family="sans-serif" font-size="14" lengthAdjust="spacing" textLength="68" x="1490" y="780.1517">data/*.csv</text><!--MD5=[a38c53f4c8c6781f29c247b186564c16]
entity UCI--><rect fill="#FEFECE" filter="url(#f1f4sfwou108xn)" height="49.0679" style="stroke:#A80036;stroke-width:1.5;" width="163" x="1276.5" y="735.6178"/><rect fill="#FEFECE" height="10" style="stroke:#A80036;stroke-width:1.5;" width="15" x="1419.5" y="740.6178"/><rect fill="#FEFECE" height="2" style="stroke:#A80036;stroke-width:1.5;" width="4" x="1417.5" y="742.6178"/><rect fill="#FEFECE" height="2" style="stroke:#A80036;stroke-width:1.5;" width="4" x="1417.5" y="746.6178"/><text fill="#000000" font-family="sans-serif" font-size="14" lengthAdjust="spacing" textLength="123" x="1291.5" y="770.5838">UCI ML Repository</text><!--MD5=[9b8af6697c917a00185d52e9ead47c2e]
entity Results--><rect fill="#FEFECE" filter="url(#f1f4sfwou108xn)" height="68.1358" style="stroke:#A80036;stroke-width:1.5;" width="99" x="1276.5" y="598.1178"/><rect fill="#FEFECE" height="10" style="stroke:#A80036;stroke-width:1.5;" width="15" x="1355.5" y="603.1178"/><rect fill="#FEFECE" height="2" style="stroke:#A80036;stroke-width:1.5;" width="4" x="1353.5" y="605.1178"/><rect fill="#FEFECE" height="2" style="stroke:#A80036;stroke-width:1.5;" width="4" x="1353.5" y="609.1178"/><text fill="#000000" font-family="sans-serif" font-size="14" lengthAdjust="spacing" textLength="49" x="1291.5" y="633.0838">Results</text><text fill="#000000" font-family="sans-serif" font-size="14" lengthAdjust="spacing" textLength="59" x="1291.5" y="652.1517">results/*</text><!--MD5=[3938fcd18a2facc0c88cf7bda1beea46]
link Browser to Home--><path d="M977,118.3578 C977,138.4078 977,167.5078 977,190.8478 " fill="none" id="Browser-to-Home" style="stroke:#A80036;stroke-width:1.0;"/><polygon fill="#A80036" points="977,196.0378,981,187.0378,977,191.0378,973,187.0378,977,196.0378" style="stroke:#A80036;stroke-width:1.0;"/><!--MD5=[560fc0e79cc73e814ebdbfce0f4a00a2]
link Home to MapperUI--><path d="M932.33,264.2278 C908.81,281.6578 879.91,303.0778 855.8,320.9478 " fill="none" id="Home-to-MapperUI" style="stroke:#A80036;stroke-width:1.0;"/><polygon fill="#A80036" points="851.66,324.0178,861.2773,321.8946,855.6838,321.0499,856.5286,315.4565,851.66,324.0178" style="stroke:#A80036;stroke-width:1.0;"/><!--MD5=[4b41958f10500894b54bd75f7da43d47]
link Home to RunnerUI--><path d="M1021.14,264.2278 C1044.39,281.6578 1072.95,303.0778 1096.78,320.9478 " fill="none" id="Home-to-RunnerUI" style="stroke:#A80036;stroke-width:1.0;"/><polygon fill="#A80036" points="1100.86,324.0178,1096.06,315.4178,1096.86,321.0178,1091.26,321.8178,1100.86,324.0178" style="stroke:#A80036;stroke-width:1.0;"/><!--MD5=[2c48c272772c66abe6c4bc913c96f7f2]
link Home to EvoUI--><path d="M977,264.2278 C977,280.8778 977,301.1578 977,318.5078 " fill="none" id="Home-to-EvoUI" style="stroke:#A80036;stroke-width:1.0;"/><polygon fill="#A80036" points="977,323.7978,981,314.7978,977,318.7978,973,314.7978,977,323.7978" style="stroke:#A80036;stroke-width:1.0;"/><!--MD5=[8a4b2d88ea8873835b7ddf243bba20dd]
link MapperUI to TM--><path d="M806.53,392.1778 C807.68,431.1478 815.1,495.9478 849,538.1178 C875.54,571.1278 916.64,593.1478 954.19,607.4278 " fill="none" id="MapperUI-to-TM" style="stroke:#A80036;stroke-width:1.0;"/><polygon fill="#A80036" points="959.22,609.3078,952.1791,602.4212,954.5337,607.5647,949.3901,609.9193,959.22,609.3078" style="stroke:#A80036;stroke-width:1.0;"/><!--MD5=[03f43401fbf82707d1179df234de5197]
link RunnerUI to TR--><path d="M1143.62,392.1578 C1142.72,413.7678 1141.54,442.0878 1140.6,464.7078 " fill="none" id="RunnerUI-to-TR" style="stroke:#A80036;stroke-width:1.0;"/><polygon fill="#A80036" points="1140.39,469.7378,1144.7717,460.9174,1140.6041,464.7424,1136.779,460.5748,1140.39,469.7378" style="stroke:#A80036;stroke-width:1.0;"/><!--MD5=[ea55022d3af92c027ccb506dfdd26561]
link EvoUI to GE--><path d="M969.66,392.1578 C964.86,413.7678 958.56,442.0878 953.54,464.7078 " fill="none" id="EvoUI-to-GE" style="stroke:#A80036;stroke-width:1.0;"/><polygon fill="#A80036" points="952.42,469.7378,958.2771,461.8199,953.5047,464.8569,950.4676,460.0844,952.42,469.7378" style="stroke:#A80036;stroke-width:1.0;"/><!--MD5=[2167c3df9f0825e197f681700f7df08e]
link TR to TM--><path d="M1113.78,538.2278 C1100.87,555.1578 1085.11,575.8578 1071.73,593.4078 " fill="none" id="TR-to-TM" style="stroke:#A80036;stroke-width:1.0;"/><polygon fill="#A80036" points="1068.39,597.7978,1077.0282,593.0669,1071.4219,593.822,1070.6668,588.2158,1068.39,597.7978" style="stroke:#A80036;stroke-width:1.0;"/><!--MD5=[6cfce05c7c8ad9275dc93027216b8976]
link TM to Compiler--><path d="M1043,666.2278 C1043,682.8778 1043,703.1578 1043,720.5078 " fill="none" id="TM-to-Compiler" style="stroke:#A80036;stroke-width:1.0;"/><polygon fill="#A80036" points="1043,725.7978,1047,716.7978,1043,720.7978,1039,716.7978,1043,725.7978" style="stroke:#A80036;stroke-width:1.0;"/><!--MD5=[f52f69d7169993b3a54da8075d9a45e6]
link Compiler to Registry--><path d="M1043,794.2278 C1043,810.8778 1043,831.1578 1043,848.5078 " fill="none" id="Compiler-to-Registry" style="stroke:#A80036;stroke-width:1.0;"/><polygon fill="#A80036" points="1043,853.7978,1047,844.7978,1043,848.7978,1039,844.7978,1043,853.7978" style="stroke:#A80036;stroke-width:1.0;"/><!--MD5=[66bc3ffa447e74f73a9b25e50d81d95e]
link GrammarLoader to GrammarFile--><path d="M124.24,538.2278 C131.97,555.0178 141.4,575.5078 149.43,592.9578 " fill="none" id="GrammarLoader-to-GrammarFile" style="stroke:#A80036;stroke-width:1.0;"/><polygon fill="#A80036" points="151.66,597.7978,151.5144,587.95,149.562,593.2593,144.2528,591.3069,151.66,597.7978" style="stroke:#A80036;stroke-width:1.0;"/><!--MD5=[cd4c7dd2e0fa18f5543858caa2b4e066]
link MapperUI to GrammarLoader--><path d="M741.93,361.3978 C606.66,366.8978 299.75,383.5778 204,424.1178 C181.23,433.7578 159.7,450.7378 142.92,466.4878 " fill="none" id="MapperUI-to-GrammarLoader" style="stroke:#A80036;stroke-width:1.0;"/><polygon fill="#A80036" points="139.19,470.0378,148.4587,466.7074,142.8032,466.5817,142.9289,460.9263,139.19,470.0378" style="stroke:#A80036;stroke-width:1.0;"/><!--MD5=[7cc661a49ef115d121a58d6e82ba0142]
link EvoUI to GrammarLoader--><path d="M936.45,392.1678 C922.29,401.7878 905.73,411.0678 889,416.1178 C852.57,427.1178 239.72,410.9678 204,424.1178 C180.42,432.7978 158.53,450.0778 141.72,466.2678 " fill="none" id="EvoUI-to-GrammarLoader" style="stroke:#A80036;stroke-width:1.0;"/><polygon fill="#A80036" points="137.99,469.9178,147.2176,466.4753,141.5611,466.4182,141.6182,460.7616,137.99,469.9178" style="stroke:#A80036;stroke-width:1.0;"/><!--MD5=[4d6cbbb34eaa45afafaf6dd58e31a055]
link RunnerUI to Loader--><path d="M1208.71,366.9578 C1279.97,376.9378 1389.43,396.2978 1420,424.1178 C1468.09,467.8878 1483.16,545.8378 1487.87,592.5778 " fill="none" id="RunnerUI-to-Loader" style="stroke:#A80036;stroke-width:1.0;"/><polygon fill="#A80036" points="1488.37,597.8378,1491.5025,588.5004,1487.898,592.8602,1483.5382,589.2556,1488.37,597.8378" style="stroke:#A80036;stroke-width:1.0;"/><!--MD5=[5ebbf3d0d6dccecd456e433af015fde2]
link EvoUI to Loader--><path d="M1017.55,392.2378 C1031.45,401.7478 1047.65,410.9278 1064,416.1178 C1088.8,423.9778 1274.34,413.3078 1298,424.1178 C1338.52,442.6278 1418.29,539.2078 1461.15,593.6678 " fill="none" id="EvoUI-to-Loader" style="stroke:#A80036;stroke-width:1.0;"/><polygon fill="#A80036" points="1464.42,597.8278,1462.0064,588.2793,1461.3315,593.8957,1455.7151,593.2209,1464.42,597.8278" style="stroke:#A80036;stroke-width:1.0;"/><!--MD5=[bb480a49155155dcd15b2f9a0c4ce1b2]
link Loader to CSVData--><path d="M1500.25,666.2278 C1505.45,683.0178 1511.79,703.5078 1517.19,720.9578 " fill="none" id="Loader-to-CSVData" style="stroke:#A80036;stroke-width:1.0;"/><polygon fill="#A80036" points="1518.69,725.7978,1519.8335,716.0156,1517.2035,721.0239,1512.1952,718.394,1518.69,725.7978" style="stroke:#A80036;stroke-width:1.0;"/><!--MD5=[2ef1d67759631e1333310d6ed4fa9ab2]
link Loader to UCI--><path d="M1455.32,666.2278 C1433.98,686.5978 1406.95,712.3878 1386.8,731.6278 " fill="none" id="Loader-to-UCI" style="stroke:#A80036;stroke-width:1.0;"/><polygon fill="#A80036" points="1382.86,735.3878,1392.1287,732.0574,1386.4732,731.9317,1386.5989,726.2763,1382.86,735.3878" style="stroke:#A80036;stroke-width:1.0;"/><!--MD5=[89cf473d9731b40e8a88628a7374ece7]
link TR to Results--><path d="M1212.74,538.2278 C1220.76,542.5978 1228.67,547.2578 1236,552.1178 C1254.53,564.4078 1273.28,580.2178 1288.84,594.4578 " fill="none" id="TR-to-Results" style="stroke:#A80036;stroke-width:1.0;"/><polygon fill="#A80036" points="1292.72,598.0378,1288.8155,588.996,1289.0443,594.6482,1283.3921,594.877,1292.72,598.0378" style="stroke:#A80036;stroke-width:1.0;"/><!--MD5=[728fd054700202e5ac4fcf9aaa597eb9]
link EvoUI to Results--><path d="M1017.59,392.1278 C1031.49,401.6178 1047.68,410.8278 1064,416.1178 C1082.2,422.0178 1220.25,413.2578 1236,424.1178 C1292.03,462.7478 1313.46,544.2278 1321.45,592.6478 " fill="none" id="EvoUI-to-Results" style="stroke:#A80036;stroke-width:1.0;"/><polygon fill="#A80036" points="1322.27,597.8078,1324.8075,588.2915,1321.4851,592.8698,1316.9067,589.5474,1322.27,597.8078" style="stroke:#A80036;stroke-width:1.0;"/><!--MD5=[86b9d94d67a54081704d727ae636fcbc]
link EvoConfig to MapperConfig--><!--MD5=[095161f2e09c68d3366d91a6c5c94add]
link EvoConfig to RunnerConfig--><!--MD5=[f55ce4701f52bc69ca8614f5b8086e3b]
@startuml
title System structure - main packages and components

package "Client" {
  [Web Browser] as Browser
}

package "Torque App (Streamlit)" {
  [Home Page\napp.py] as Home
  [Mapper Page\n0_mapper.py] as MapperUI
  [Runner Page\n2_test.py] as RunnerUI
  [Evolution Page\n3_evolution.py] as EvoUI
}

package "Core Engine" {
  [TorqueMapper\nTorque_mapper.py] as TM
  [TorqueRunner\nTorque_runner.py] as TR
  [Compiler\ncompiler.py] as Compiler
  [Registry\nregistry.py] as Registry
  [GE Algorithms\ngrape.algorithms] as GE
}

package "Config & Grammar" {
  [Evolution Config\nconfig/evolution_config.json] as EvoConfig
  [Mapper Config\nconfig/Torque_mapper_config.json] as MapperConfig
  [Runner Config\nconfig/Torque_runner_config.json] as RunnerConfig
  [BNF Grammar File\ngrammar/ensamble_grammar.bnf] as GrammarFile
  [Grammar Loader\ngrammar.py] as GrammarLoader
}

package "Data & Results" {
  [Dataset Loader\ndataset_loader.py] as Loader
  [Data Files\ndata/*.csv] as CSVData
  [UCI ML Repository] as UCI
  [Results\nresults/*] as Results
}

Browser - -> Home
Home - -> MapperUI
Home - -> RunnerUI
Home - -> EvoUI

MapperUI - -> TM
RunnerUI - -> TR
EvoUI - -> GE

TR - -> TM
TM - -> Compiler
Compiler - -> Registry

GrammarLoader - -> GrammarFile
MapperUI - -> GrammarLoader
EvoUI - -> GrammarLoader

RunnerUI - -> Loader
EvoUI - -> Loader
Loader - -> CSVData
Loader - -> UCI

TR - -> Results
EvoUI - -> Results

@enduml

PlantUML version 1.2021.00(Sun Jan 10 10:25:05 GMT 2021)
(MIT source distribution)
Java Runtime: OpenJDK Runtime Environment
JVM: OpenJDK 64-Bit Server VM
Default Encoding: UTF-8
Language: en
Country: US
--></g></svg>