<?xml version="1.0" encoding="UTF-8" standalone="no"?><svg xmlns="http://www.w3.org/2000/svg" xmlns:xlink="http://www.w3.org/1999/xlink" contentScriptType="application/ecmascript" contentStyleType="text/css" height="1094px" preserveAspectRatio="none" style="width:1257px;height:1094px;" version="1.1" viewBox="0 0 1257 1094" width="1257px" zoomAndPan="magnify"><defs><filter height="300%" id="f19bdutml2d0yo" width="300%" x="-1" y="-1"><feGaussianBlur result="blurOut" stdDeviation="2.0"/><feColorMatrix in="blurOut" result="blurOut2" type="matrix" values="0 0 0 0 0 0 0 0 0 0 0 0 0 0 0 0 0 0 .4 0"/><feOffset dx="4.0" dy="4.0" in="blurOut2" result="blurOut3"/><feBlend in="SourceGraphic" in2="blurOut3" mode="normal"/></filter></defs><g><text fill="#000000" font-family="sans-serif" font-size="18" lengthAdjust="spacing" textLength="235" x="504.5" y="19.2419">Runner system architecture</text><!--MD5=[406b65fecc21e832f7a9b6ebadc6dce1]
cluster Client--><polygon fill="#FFFFFF" filter="url(#f19bdutml2d0yo)" points="410,187.5158,456,187.5158,463,212.5838,572,212.5838,572,290.5158,410,290.5158,410,187.5158" style="stroke:#000000;stroke-width:1.5;"/><line style="stroke:#000000;stroke-width:1.5;" x1="410" x2="463" y1="212.5838" y2="212.5838"/><text fill="#000000" font-family="sans-serif" font-size="14" font-weight="bold" lengthAdjust="spacing" textLength="40" x="414" y="204.4818">Client</text><!--MD5=[6e0d427754a400b0d323ae1c0705a90d]
cluster Torque App (Streamlit)--><polygon fill="#FFFFFF" filter="url(#f19bdutml2d0yo)" points="625,178.0158,790,178.0158,797,203.0838,850,203.0838,850,465.0158,625,465.0158,625,178.0158" style="stroke:#000000;stroke-width:1.5;"/><line style="stroke:#000000;stroke-width:1.5;" x1="625" x2="797" y1="203.0838" y2="203.0838"/><text fill="#000000" font-family="sans-serif" font-size="14" font-weight="bold" lengthAdjust="spacing" textLength="159" x="629" y="194.9818">Torque App (Streamlit)</text><!--MD5=[1a8d404bc7806d79b115573ba3cd9941]
cluster Execution Engine--><polygon fill="#FFFFFF" filter="url(#f19bdutml2d0yo)" points="16,534.0158,141,534.0158,148,559.0838,233,559.0838,233,1087.0158,16,1087.0158,16,534.0158" style="stroke:#000000;stroke-width:1.5;"/><line style="stroke:#000000;stroke-width:1.5;" x1="16" x2="148" y1="559.0838" y2="559.0838"/><text fill="#000000" font-family="sans-serif" font-size="14" font-weight="bold" lengthAdjust="spacing" textLength="119" x="20" y="550.9818">Execution Engine</text><!--MD5=[023fe2768d341cd525e8503fdfbee177]
cluster Data Layer--><polygon fill="#FFFFFF" filter="url(#f19bdutml2d0yo)" points="893,534.0158,973,534.0158,980,559.0838,1240,559.0838,1240,827.0158,893,827.0158,893,534.0158" style="stroke:#000000;stroke-width:1.5;"/><line style="stroke:#000000;stroke-width:1.5;" x1="893" x2="980" y1="559.0838" y2="559.0838"/><text fill="#000000" font-family="sans-serif" font-size="14" font-weight="bold" lengthAdjust="spacing" textLength="74" x="897" y="550.9818">Data Layer</text><!--MD5=[9b19363d7d5bcd0327a14fcc96b289d5]
cluster Results--><polygon fill="#FFFFFF" filter="url(#f19bdutml2d0yo)" points="257,705.0158,313,705.0158,320,730.0838,869,730.0838,869,827.0158,257,827.0158,257,705.0158" style="stroke:#000000;stroke-width:1.5;"/><line style="stroke:#000000;stroke-width:1.5;" x1="257" x2="320" y1="730.0838" y2="730.0838"/><text fill="#000000" font-family="sans-serif" font-size="14" font-weight="bold" lengthAdjust="spacing" textLength="50" x="261" y="721.9818">Results</text><!--MD5=[e9dede37b31fdda9664526f66258b036]
entity Browser--><rect fill="#FEFECE" filter="url(#f19bdutml2d0yo)" height="49.0679" style="stroke:#A80036;stroke-width:1.5;" width="129" x="426.5" y="225.5158"/><rect fill="#FEFECE" height="10" style="stroke:#A80036;stroke-width:1.5;" width="15" x="535.5" y="230.5158"/><rect fill="#FEFECE" height="2" style="stroke:#A80036;stroke-width:1.5;" width="4" x="533.5" y="232.5158"/><rect fill="#FEFECE" height="2" style="stroke:#A80036;stroke-width:1.5;" width="4" x="533.5" y="236.5158"/><text fill="#000000" font-family="sans-serif" font-size="14" lengthAdjust="spacing" textLength="89" x="441.5" y="260.4818">Web Browser</text><!--MD5=[cfbf5bfb2284cb4360c7117782840247]
entity Home--><rect fill="#FEFECE" filter="url(#f19bdutml2d0yo)" height="68.1358" style="stroke:#A80036;stroke-width:1.5;" width="116" x="641" y="216.0158"/><rect fill="#FEFECE" height="10" style="stroke:#A80036;stroke-width:1.5;" width="15" x="737" y="221.0158"/><rect fill="#FEFECE" height="2" style="stroke:#A80036;stroke-width:1.5;" width="4" x="735" y="223.0158"/><rect fill="#FEFECE" height="2" style="stroke:#A80036;stroke-width:1.5;" width="4" x="735" y="227.0158"/><text fill="#000000" font-family="sans-serif" font-size="14" lengthAdjust="spacing" textLength="76" x="656" y="250.9818">Home Page</text><text fill="#000000" font-family="sans-serif" font-size="14" lengthAdjust="spacing" textLength="46" x="656" y="270.0497">app.py</text><!--MD5=[1bbff15fb21456d717c3a12862abd8bc]
entity RunnerUI--><rect fill="#FEFECE" filter="url(#f19bdutml2d0yo)" height="68.1358" style="stroke:#A80036;stroke-width:1.5;" width="127" x="641.5" y="381.0158"/><rect fill="#FEFECE" height="10" style="stroke:#A80036;stroke-width:1.5;" width="15" x="748.5" y="386.0158"/><rect fill="#FEFECE" height="2" style="stroke:#A80036;stroke-width:1.5;" width="4" x="746.5" y="388.0158"/><rect fill="#FEFECE" height="2" style="stroke:#A80036;stroke-width:1.5;" width="4" x="746.5" y="392.0158"/><text fill="#000000" font-family="sans-serif" font-size="14" lengthAdjust="spacing" textLength="87" x="656.5" y="415.9818">Runner Page</text><text fill="#000000" font-family="sans-serif" font-size="14" lengthAdjust="spacing" textLength="59" x="656.5" y="435.0497">2_test.py</text><!--MD5=[d5b45c8b0274f0bd032f9fa02440ab36]
entity TR--><rect fill="#FEFECE" filter="url(#f19bdutml2d0yo)" height="68.1358" style="stroke:#A80036;stroke-width:1.5;" width="161" x="55.5" y="572.0158"/><rect fill="#FEFECE" height="10" style="stroke:#A80036;stroke-width:1.5;" width="15" x="196.5" y="577.0158"/><rect fill="#FEFECE" height="2" style="stroke:#A80036;stroke-width:1.5;" width="4" x="194.5" y="579.0158"/><rect fill="#FEFECE" height="2" style="stroke:#A80036;stroke-width:1.5;" width="4" x="194.5" y="583.0158"/><text fill="#000000" font-family="sans-serif" font-size="14" lengthAdjust="spacing" textLength="98" x="70.5" y="606.9818">TorqueRunner</text><text fill="#000000" font-family="sans-serif" font-size="14" lengthAdjust="spacing" textLength="121" x="70.5" y="626.0497">Torque_runner.py</text><!--MD5=[c6ddddda358f072e4f19aa798de5fbe9]
entity TM--><rect fill="#FEFECE" filter="url(#f19bdutml2d0yo)" height="68.1358" style="stroke:#A80036;stroke-width:1.5;" width="167" x="31.5" y="743.0158"/><rect fill="#FEFECE" height="10" style="stroke:#A80036;stroke-width:1.5;" width="15" x="178.5" y="748.0158"/><rect fill="#FEFECE" height="2" style="stroke:#A80036;stroke-width:1.5;" width="4" x="176.5" y="750.0158"/><rect fill="#FEFECE" height="2" style="stroke:#A80036;stroke-width:1.5;" width="4" x="176.5" y="754.0158"/><text fill="#000000" font-family="sans-serif" font-size="14" lengthAdjust="spacing" textLength="101" x="46.5" y="777.9818">TorqueMapper</text><text fill="#000000" font-family="sans-serif" font-size="14" lengthAdjust="spacing" textLength="127" x="46.5" y="797.0497">Torque_mapper.py</text><!--MD5=[c01552aeb07e95759ece564214fd0bdc]
entity Compiler--><rect fill="#FEFECE" filter="url(#f19bdutml2d0yo)" height="68.1358" style="stroke:#A80036;stroke-width:1.5;" width="119" x="55.5" y="874.0158"/><rect fill="#FEFECE" height="10" style="stroke:#A80036;stroke-width:1.5;" width="15" x="154.5" y="879.0158"/><rect fill="#FEFECE" height="2" style="stroke:#A80036;stroke-width:1.5;" width="4" x="152.5" y="881.0158"/><rect fill="#FEFECE" height="2" style="stroke:#A80036;stroke-width:1.5;" width="4" x="152.5" y="885.0158"/><text fill="#000000" font-family="sans-serif" font-size="14" lengthAdjust="spacing" textLength="61" x="70.5" y="908.9818">Compiler</text><text fill="#000000" font-family="sans-serif" font-size="14" lengthAdjust="spacing" textLength="79" x="70.5" y="928.0497">compiler.py</text><!--MD5=[4deb7753515de286d568fa33f0a2fe6f]
entity Registry--><rect fill="#FEFECE" filter="url(#f19bdutml2d0yo)" height="68.1358" style="stroke:#A80036;stroke-width:1.5;" width="112" x="59" y="1003.0158"/><rect fill="#FEFECE" height="10" style="stroke:#A80036;stroke-width:1.5;" width="15" x="151" y="1008.0158"/><rect fill="#FEFECE" height="2" style="stroke:#A80036;stroke-width:1.5;" width="4" x="149" y="1010.0158"/><rect fill="#FEFECE" height="2" style="stroke:#A80036;stroke-width:1.5;" width="4" x="149" y="1014.0158"/><text fill="#000000" font-family="sans-serif" font-size="14" lengthAdjust="spacing" textLength="55" x="74" y="1037.9818">Registry</text><text fill="#000000" font-family="sans-serif" font-size="14" lengthAdjust="spacing" textLength="72" x="74" y="1057.0497">registry.py</text><!--MD5=[e9afd8dee7f22e3497c63b001e7f1ac7]
entity Loader--><rect fill="#FEFECE" filter="url(#f19bdutml2d0yo)" height="68.1358" style="stroke:#A80036;stroke-width:1.5;" width="159" x="908.5" y="572.0158"/><rect fill="#FEFECE" height="10" style="stroke:#A80036;stroke-width:1.5;" width="15" x="1047.5" y="577.0158"/><rect fill="#FEFECE" height="2" style="stroke:#A80036;stroke-width:1.5;" width="4" x="1045.5" y="579.0158"/><rect fill="#FEFECE" height="2" style="stroke:#A80036;stroke-width:1.5;" width="4" x="1045.5" y="583.0158"/><text fill="#000000" font-family="sans-serif" font-size="14" lengthAdjust="spacing" textLength="101" x="923.5" y="606.9818">Dataset Loader</text><text fill="#000000" font-family="sans-serif" font-size="14" lengthAdjust="spacing" textLength="119" x="923.5" y="626.0497">dataset_loader.py</text><!--MD5=[1194ee1088c4a1f787c0b58111daa5b9]
entity CSV--><rect fill="#FEFECE" filter="url(#f19bdutml2d0yo)" height="68.1358" style="stroke:#A80036;stroke-width:1.5;" width="116" x="909" y="743.0158"/><rect fill="#FEFECE" height="10" style="stroke:#A80036;stroke-width:1.5;" width="15" x="1005" y="748.0158"/><rect fill="#FEFECE" height="2" style="stroke:#A80036;stroke-width:1.5;" width="4" x="1003" y="750.0158"/><rect fill="#FEFECE" height="2" style="stroke:#A80036;stroke-width:1.5;" width="4" x="1003" y="754.0158"/><text fill="#000000" font-family="sans-serif" font-size="14" lengthAdjust="spacing" textLength="59" x="924" y="777.9818">CSV Files</text><text fill="#000000" font-family="sans-serif" font-size="14" lengthAdjust="spacing" textLength="76" x="924" y="797.0497">(data/*.csv)</text><!--MD5=[a38c53f4c8c6781f29c247b186564c16]
entity UCI--><rect fill="#FEFECE" filter="url(#f19bdutml2d0yo)" height="49.0679" style="stroke:#A80036;stroke-width:1.5;" width="163" x="1060.5" y="752.5158"/><rect fill="#FEFECE" height="10" style="stroke:#A80036;stroke-width:1.5;" width="15" x="1203.5" y="757.5158"/><rect fill="#FEFECE" height="2" style="stroke:#A80036;stroke-width:1.5;" width="4" x="1201.5" y="759.5158"/><rect fill="#FEFECE" height="2" style="stroke:#A80036;stroke-width:1.5;" width="4" x="1201.5" y="763.5158"/><text fill="#000000" font-family="sans-serif" font-size="14" lengthAdjust="spacing" textLength="123" x="1075.5" y="787.4818">UCI ML Repository</text><!--MD5=[8ee0f65e38e7d7251c737ab2923434ae]
entity MetricsJSON--><rect fill="#FEFECE" filter="url(#f19bdutml2d0yo)" height="68.1358" style="stroke:#A80036;stroke-width:1.5;" width="269" x="273.5" y="743.0158"/><rect fill="#FEFECE" height="10" style="stroke:#A80036;stroke-width:1.5;" width="15" x="522.5" y="748.0158"/><rect fill="#FEFECE" height="2" style="stroke:#A80036;stroke-width:1.5;" width="4" x="520.5" y="750.0158"/><rect fill="#FEFECE" height="2" style="stroke:#A80036;stroke-width:1.5;" width="4" x="520.5" y="754.0158"/><text fill="#000000" font-family="sans-serif" font-size="14" lengthAdjust="spacing" textLength="88" x="288.5" y="777.9818">JSON Metrics</text><text fill="#000000" font-family="sans-serif" font-size="14" lengthAdjust="spacing" textLength="229" x="288.5" y="797.0497">results/Torque_runner_result.json</text><!--MD5=[a5a4c45dd18d1b4cf9038a50d07d5153]
entity MappingJSON--><rect fill="#FEFECE" filter="url(#f19bdutml2d0yo)" height="68.1358" style="stroke:#A80036;stroke-width:1.5;" width="275" x="577.5" y="743.0158"/><rect fill="#FEFECE" height="10" style="stroke:#A80036;stroke-width:1.5;" width="15" x="832.5" y="748.0158"/><rect fill="#FEFECE" height="2" style="stroke:#A80036;stroke-width:1.5;" width="4" x="830.5" y="750.0158"/><rect fill="#FEFECE" height="2" style="stroke:#A80036;stroke-width:1.5;" width="4" x="830.5" y="754.0158"/><text fill="#000000" font-family="sans-serif" font-size="14" lengthAdjust="spacing" textLength="99" x="592.5" y="777.9818">Mapping JSON</text><text fill="#000000" font-family="sans-serif" font-size="14" lengthAdjust="spacing" textLength="235" x="592.5" y="797.0497">results/Torque_mapper_result.json</text><!--MD5=[fee662a292a0353a69bd162820bae93b]
entity User--><ellipse cx="491" cy="38.5158" fill="#FEFECE" filter="url(#f19bdutml2d0yo)" rx="8" ry="8" style="stroke:#A80036;stroke-width:1.5;"/><path d="M491,46.5158 L491,73.5158 M478,54.5158 L504,54.5158 M491,73.5158 L478,88.5158 M491,73.5158 L504,88.5158 " fill="none" filter="url(#f19bdutml2d0yo)" style="stroke:#A80036;stroke-width:1.5;"/><text fill="#000000" font-family="sans-serif" font-size="14" lengthAdjust="spacing" textLength="31" x="475.5" y="108.9818">User</text><!--MD5=[ec4c93e45963a154c97e3947d19a9663]
link User to Browser--><path d="M491,113.0658 C491,145.8558 491,190.9658 491,220.0658 " fill="none" id="User-to-Browser" style="stroke:#A80036;stroke-width:1.0;"/><polygon fill="#A80036" points="491,225.3058,495,216.3058,491,220.3058,487,216.3058,491,225.3058" style="stroke:#A80036;stroke-width:1.0;"/><text fill="#000000" font-family="sans-serif" font-size="13" lengthAdjust="spacing" textLength="103" x="492" y="157.9129">open Torque app</text><!--MD5=[3938fcd18a2facc0c88cf7bda1beea46]
link Browser to Home--><path d="M555.67,250.0158 C581.16,250.0158 610.35,250.0158 635.71,250.0158 " fill="none" id="Browser-to-Home" style="stroke:#A80036;stroke-width:1.0;"/><polygon fill="#A80036" points="640.72,250.0158,631.72,246.0158,635.72,250.0158,631.72,254.0158,640.72,250.0158" style="stroke:#A80036;stroke-width:1.0;"/><text fill="#000000" font-family="sans-serif" font-size="13" lengthAdjust="spacing" textLength="26" x="585.25" y="242.9129">load</text><!--MD5=[4b41958f10500894b54bd75f7da43d47]
link Home to RunnerUI--><path d="M700.23,284.3958 C701.21,310.9658 702.58,348.1558 703.6,375.8958 " fill="none" id="Home-to-RunnerUI" style="stroke:#A80036;stroke-width:1.0;"/><polygon fill="#A80036" points="703.78,380.9558,707.4432,371.8136,703.5944,375.9593,699.4487,372.1105,703.78,380.9558" style="stroke:#A80036;stroke-width:1.0;"/><text fill="#000000" font-family="sans-serif" font-size="13" lengthAdjust="spacing" textLength="156" x="703" y="337.9129">switch_page(\"2_test.py\")</text><!--MD5=[79ee44ba55860aa48d8d7d56f2a77c53]
link Browser to RunnerUI--><path d="M499.2,274.6358 C508.07,297.0358 524.2,330.2658 548,351.0158 C573,372.8258 606.51,387.6458 636.15,397.4158 " fill="none" id="Browser-to-RunnerUI" style="stroke:#A80036;stroke-width:1.0;"/><polygon fill="#A80036" points="641.25,399.0558,633.9051,392.4944,636.4897,397.5263,631.4578,400.1108,641.25,399.0558" style="stroke:#A80036;stroke-width:1.0;"/><text fill="#000000" font-family="sans-serif" font-size="13" lengthAdjust="spacing" textLength="85" x="578" y="328.9129">select dataset,</text><text fill="#000000" font-family="sans-serif" font-size="13" lengthAdjust="spacing" textLength="143" x="549" y="346.6189">enter Torque DSL, click \</text><text fill="#000000" font-family="sans-serif" font-size="13" lengthAdjust="spacing" textLength="55" x="578.4082" y="393.8753">Run DSL\</text><!--MD5=[c8c6d78b755946ea697e87fb56eb097b]
link RunnerUI to Browser--><path d="M641.32,411.9058 C550.96,407.4258 392.52,393.5458 357,351.0158 C330.1,318.8158 376.29,291.0958 421.61,273.0658 " fill="none" id="RunnerUI-to-Browser" style="stroke:#A80036;stroke-width:1.0;"/><polygon fill="#A80036" points="426.28,271.2458,416.4407,270.8118,421.6259,273.0732,419.3645,278.2584,426.28,271.2458" style="stroke:#A80036;stroke-width:1.0;"/><text fill="#000000" font-family="sans-serif" font-size="13" lengthAdjust="spacing" textLength="82" x="392.5" y="328.9129">show metrics,</text><text fill="#000000" font-family="sans-serif" font-size="13" lengthAdjust="spacing" textLength="151" x="358" y="346.6189">confusion matrix, reports</text><!--MD5=[4d6cbbb34eaa45afafaf6dd58e31a055]
link RunnerUI to Loader--><path d="M735.79,449.4458 C756.54,470.7558 785.28,498.0358 814,518.0158 C842.16,537.6058 875.36,555.3458 905.17,569.6258 " fill="none" id="RunnerUI-to-Loader" style="stroke:#A80036;stroke-width:1.0;"/><polygon fill="#A80036" points="909.93,571.8858,903.5148,564.4129,905.4131,569.7417,900.0842,571.64,909.93,571.8858" style="stroke:#A80036;stroke-width:1.0;"/><text fill="#000000" font-family="sans-serif" font-size="13" lengthAdjust="spacing" textLength="110" x="815" y="504.9129">load / sample data</text><!--MD5=[3311d8abfe8a9b9d9e7efb2ef12fc257]
link Loader to RunnerUI--><path d="M980.66,571.8658 C972.76,543.8058 957.46,504.4858 930,481.0158 C886.39,443.7358 822.49,427.8058 773.93,421.0158 " fill="none" id="Loader-to-RunnerUI" style="stroke:#A80036;stroke-width:1.0;"/><polygon fill="#A80036" points="768.68,420.3058,777.0597,425.4809,773.6345,420.9789,778.1365,417.5537,768.68,420.3058" style="stroke:#A80036;stroke-width:1.0;"/><text fill="#000000" font-family="sans-serif" font-size="13" lengthAdjust="spacing" textLength="21" x="958" y="504.9129">X, y</text><!--MD5=[914516cbd5d9057a642dab6d57a003a8]
link Loader to CSV--><path d="M983.85,640.4058 C980.36,668.5058 975.37,708.6758 971.72,738.0058 " fill="none" id="Loader-to-CSV" style="stroke:#A80036;stroke-width:1.0;"/><polygon fill="#A80036" points="971.1,742.9858,976.1735,734.5443,971.7132,738.0236,968.2339,733.5633,971.1,742.9858" style="stroke:#A80036;stroke-width:1.0;"/><!--MD5=[2ef1d67759631e1333310d6ed4fa9ab2]
link Loader to UCI--><path d="M1018.43,640.4058 C1047.28,672.0758 1090.12,719.0858 1117.03,748.6158 " fill="none" id="Loader-to-UCI" style="stroke:#A80036;stroke-width:1.0;"/><polygon fill="#A80036" points="1120.56,752.4858,1117.4369,743.1453,1117.1853,748.7965,1111.534,748.5448,1120.56,752.4858" style="stroke:#A80036;stroke-width:1.0;"/><!--MD5=[03f43401fbf82707d1179df234de5197]
link RunnerUI to TR--><path d="M641.45,421.1958 C569.43,428.5358 449.41,445.2858 352,481.0158 C291.95,503.0458 229.18,541.0158 186.88,569.1558 " fill="none" id="RunnerUI-to-TR" style="stroke:#A80036;stroke-width:1.0;"/><polygon fill="#A80036" points="182.6,572.0158,192.3033,570.3287,186.7537,569.2325,187.8499,563.6828,182.6,572.0158" style="stroke:#A80036;stroke-width:1.0;"/><text fill="#000000" font-family="sans-serif" font-size="13" lengthAdjust="spacing" textLength="95" x="413" y="495.9129">run_dsl(dsl, X, y,</text><text fill="#000000" font-family="sans-serif" font-size="13" lengthAdjust="spacing" textLength="212" x="356" y="513.6189">mapped_json_file, metrics_json_file)</text><!--MD5=[72ff11d28189131b85231c7841f14103]
link TR to RunnerUI--><path d="M216.72,600.0458 C307.08,592.0058 456.13,571.2158 573,518.0158 C608.28,501.9558 642.75,474.8058 667.61,452.5558 " fill="none" id="TR-to-RunnerUI" style="stroke:#A80036;stroke-width:1.0;"/><polygon fill="#A80036" points="671.52,449.0258,662.1604,452.0913,667.8099,452.3778,667.5235,458.0274,671.52,449.0258" style="stroke:#A80036;stroke-width:1.0;"/><text fill="#000000" font-family="sans-serif" font-size="13" lengthAdjust="spacing" textLength="108" x="632" y="504.9129">results in memory</text><!--MD5=[2167c3df9f0825e197f681700f7df08e]
link TR to TM--><path d="M131.85,640.4058 C128.36,668.5058 123.37,708.6758 119.72,738.0058 " fill="none" id="TR-to-TM" style="stroke:#A80036;stroke-width:1.0;"/><polygon fill="#A80036" points="119.1,742.9858,124.1735,734.5443,119.7132,738.0236,116.2339,733.5633,119.1,742.9858" style="stroke:#A80036;stroke-width:1.0;"/><text fill="#000000" font-family="sans-serif" font-size="13" lengthAdjust="spacing" textLength="148" x="128" y="684.9129">map DSL to Python code</text><!--MD5=[6cfce05c7c8ad9275dc93027216b8976]
link TM to Compiler--><path d="M115,811.2358 C115,828.8458 115,850.5458 115,868.8458 " fill="none" id="TM-to-Compiler" style="stroke:#A80036;stroke-width:1.0;"/><polygon fill="#A80036" points="115,873.9058,119,864.9058,115,868.9058,111,864.9058,115,873.9058" style="stroke:#A80036;stroke-width:1.0;"/><!--MD5=[f52f69d7169993b3a54da8075d9a45e6]
link Compiler to Registry--><path d="M115,942.0558 C115,958.9658 115,979.6658 115,997.3258 " fill="none" id="Compiler-to-Registry" style="stroke:#A80036;stroke-width:1.0;"/><polygon fill="#A80036" points="115,1002.7058,119,993.7058,115,997.7058,111,993.7058,115,1002.7058" style="stroke:#A80036;stroke-width:1.0;"/><!--MD5=[cc811a535fc5f0b9f064953c7b328951]
link TR to MetricsJSON--><path d="M216.77,635.7958 C239.56,645.3258 263.88,656.9058 285,670.0158 C316.6,689.6358 348.3,717.1858 371.6,739.2858 " fill="none" id="TR-to-MetricsJSON" style="stroke:#A80036;stroke-width:1.0;"/><polygon fill="#A80036" points="375.27,742.7858,371.5311,733.6743,371.6568,739.3297,366.0013,739.4554,375.27,742.7858" style="stroke:#A80036;stroke-width:1.0;"/><text fill="#000000" font-family="sans-serif" font-size="13" lengthAdjust="spacing" textLength="111" x="311" y="684.9129">write metrics JSON</text><!--MD5=[af469a5883ec3e4d3cc09a3f3163a18e]
link TR to MappingJSON--><path d="M216.64,617.6958 C303.23,630.6358 444.02,655.9558 560,697.0158 C592.3,708.4458 626.4,725.2658 654.38,740.4358 " fill="none" id="TR-to-MappingJSON" style="stroke:#A80036;stroke-width:1.0;"/><polygon fill="#A80036" points="658.81,742.8558,652.8243,735.0346,654.4205,740.4616,648.9935,742.0578,658.81,742.8558" style="stroke:#A80036;stroke-width:1.0;"/><text fill="#000000" font-family="sans-serif" font-size="13" lengthAdjust="spacing" textLength="121" x="527" y="684.9129">write mapping JSON</text><!--MD5=[35b2b6f043d5641e759fabf64b91e65a]
@startuml
title Runner system architecture

actor User

package "Client" {
  [Web Browser] as Browser
}

package "Torque App (Streamlit)" {
  [Home Page\napp.py] as Home
  [Runner Page\n2_test.py] as RunnerUI
}

package "Execution Engine" {
  [TorqueRunner\nTorque_runner.py] as TR
  [TorqueMapper\nTorque_mapper.py] as TM
  [Compiler\ncompiler.py] as Compiler
  [Registry\nregistry.py] as Registry
}

package "Data Layer" {
  [Dataset Loader\ndataset_loader.py] as Loader
  [CSV Files\n(data/*.csv)] as CSV
  [UCI ML Repository] as UCI
}

package "Results" {
  [JSON Metrics\nresults/Torque_runner_result.json] as MetricsJSON
  [Mapping JSON\nresults/Torque_mapper_result.json] as MappingJSON
}

User - -> Browser : open Torque app
Browser - -> Home : load
Home - -> RunnerUI : switch_page(\"2_test.py\")

Browser - -> RunnerUI : select dataset,\nenter Torque DSL, click \"Run DSL\"
RunnerUI - -> Loader : load / sample data
Loader - -> CSV
Loader - -> UCI
Loader - -> RunnerUI : X, y

RunnerUI - -> TR : run_dsl(dsl, X, y,\n mapped_json_file, metrics_json_file)
TR - -> TM : map DSL to Python code
TM - -> Compiler
Compiler - -> Registry

TR - -> MetricsJSON : write metrics JSON
TR - -> MappingJSON : write mapping JSON
TR - -> RunnerUI : results in memory
RunnerUI - -> Browser : show metrics,\nconfusion matrix, reports

@enduml

PlantUML version 1.2021.00(Sun Jan 10 10:25:05 GMT 2021)
(MIT source distribution)
Java Runtime: OpenJDK Runtime Environment
JVM: OpenJDK 64-Bit Server VM
Default Encoding: UTF-8
Language: en
Country: US
--></g></svg>